<?xml version="1.0" standalone="no"?>
<!DOCTYPE svg PUBLIC "-//W3C//DTD SVG 1.1//EN" "http://www.w3.org/Graphics/SVG/1.1/DTD/svg11.dtd" >
<svg>
<metadata>
Created by FontForge 20090914 at Thu Oct 26 22:15:57 2017
 By www-data
Copyright (c) 2010-2012 by Claus Eggers S&#195;&#184;rensen (es@forthehearts.net), with Reserved Font Name 'Playfair'.
</metadata>
<defs>
<font id="PlayfairDisplay-Italic" horiz-adv-x="698" >
  <font-face 
    font-family="Playfair Display"
    font-weight="400"
    font-style="italic"
    font-stretch="normal"
    units-per-em="2048"
    panose-1="0 0 5 0 0 0 0 0 0 0"
    ascent="1638"
    descent="-410"
    x-height="1065"
    cap-height="1450"
    bbox="-760 -494.005 2255 2134"
    underline-thickness="20"
    underline-position="-90"
    slope="-14"
    unicode-range="U+000D-U+FB02"
  />
<missing-glyph horiz-adv-x="1151" 
d="M1028 0h-905v1581h905v-1581zM954 1520h-757v-1459h757v1459z" />
    <glyph glyph-name="fi" unicode="fi" horiz-adv-x="1186" 
d="M1235 1449c0 -26.667 -7.1709 -51.832 -21.5039 -75.499s-33.5 -42.834 -57.5 -57.501s-49 -22 -75 -22c-30 0 -54.667 9.83301 -74 29.5s-29 44.167 -29 73.5c0 10 1 19.333 3 28c5.33301 30.667 19.333 58 42 82s49 39.333 79 46c-33.333 12 -77.666 18 -132.999 18
c-75.333 0 -147 -22 -215 -66c-38 -25.333 -70.167 -58 -96.5 -98s-49.333 -87 -69 -141s-41.167 -124.333 -64.5 -211l-1 -2h390c78 2 140.333 11.333 187 28l-277 -907c-9.33301 -32 -14 -57.333 -14 -76c0 -34 15.667 -51 47 -51c28 0 54.333 15.5 79 46.5
s51.667 85.167 81 162.5l28 76h39l-53 -150c-26.667 -74 -62.334 -127.667 -107.001 -161s-93 -50 -145 -50c-95.333 0 -143 41.333 -143 124c0 40.667 12.333 95 37 163l229 754h-389l-389 -1368c-72 -2 -133.333 -11.667 -184 -29l396 1397h-198l13 41h196
c26.667 98.667 56.334 180.167 89.001 244.5s73.334 117.166 122.001 158.499c58 49.333 124.167 86 198.5 110s150.833 36 229.5 36c48.667 0 93.834 -7.16699 135.501 -21.5s73.834 -36.833 96.501 -67.5c12 -19.333 18 -40.666 18 -63.999z" />
    <glyph glyph-name="fl" unicode="fl" horiz-adv-x="1204" 
d="M1100 332l-51.002 -150.001c-49.333 -140.667 -131.333 -211 -246 -211c-94 0 -141 44.333 -141 133c0 39.333 9.33301 90.666 28 153.999l334 1108c7.33301 24 11 44.333 11 61c0 28.667 -10.5 50.167 -31.5 64.5s-55.833 21.5 -104.5 21.5h-25
c-47.333 0 -100.333 -17.667 -159 -53c-32 -18 -59.333 -44.833 -82 -80.5s-42.5 -78.334 -59.5 -128.001s-36.167 -115.167 -57.5 -196.5l-1 -2h241l-13 -41h-239l-379 -1368c-72 -2 -133.333 -11.667 -184 -29l386 1397h-188l13 41h186
c24.667 90.667 51.5 164.834 80.5 222.501s64.833 104.834 107.5 141.501c47.333 41.333 101.333 72.833 162 94.5s121.334 32.5 182.001 32.5h39c72.667 0.666992 137.834 8 195.501 22s114.167 34.667 169.5 62l-428 -1454c-8.66699 -31.333 -13 -55.666 -13 -72.999
c0 -36 16 -54 48 -54c27.333 0 53 15.833 77 47.5s49.333 85.5 76 161.5l27 76h39z" />
    <glyph glyph-name="f_f" unicode="ff" horiz-adv-x="1249" 
d="M414.5 1242c31.667 58.667 66.168 104.67 103.501 138.003c104.667 93.333 227 140 367 140c83.333 0 153 -22.333 209 -67c12.667 16.667 26.334 32 41.001 46c31.333 32 69.666 57.167 114.999 75.5s92.333 27.5 141 27.5c60.667 0 108.167 -13.667 142.5 -41
s51.5 -62.333 51.5 -105c0 -23.333 -6 -45.833 -18 -67.5s-28.5 -39.334 -49.5 -53.001s-44.167 -20.5 -69.5 -20.5c-26 0 -46.333 6 -61 18s-21.667 29 -21 51c0 32.667 10.667 61.167 32 85.5s49.666 41.833 84.999 52.5c0 12.667 -9.16699 24 -27.5 34s-40.5 15 -66.5 15
c-40 0 -79.667 -17.667 -119 -53c-28 -26.667 -52 -68.834 -72 -126.501s-38.833 -120.834 -56.5 -189.501l-37.5 -147l-1 -2h243l-13 -41h-241l-367 -1368c-72 -2 -133.333 -11.667 -184 -29l374 1397h-413l-369 -1368c-72 -2 -133.333 -11.667 -184 -29l376 1397h-188
l13 41h187c20 67.333 45.833 130.333 77.5 189zM1071 1421c-50 41.333 -110.666 61.999 -181.999 61.999c-73.333 0 -133.833 -18.167 -181.5 -54.5s-85.667 -84.666 -114 -144.999s-54.833 -136.5 -79.5 -228.5l-1 -2h412l1 2c43.333 164 91.666 286 144.999 366z" />
    <glyph glyph-name="f_f_i" unicode="ffi" horiz-adv-x="1772" 
d="M416.5 1242c31.667 58.667 66.165 104.668 103.498 138.001c104.667 93.333 227 140 367 140c95.333 0 172.333 -29 231 -87l25 23c58 49.333 124.167 86 198.5 110s150.833 36 229.5 36c48.667 0 93.834 -7.16699 135.501 -21.5s73.834 -36.833 96.501 -67.5
c12 -19.333 18 -40.666 18 -63.999c0 -26.667 -7.16699 -51.834 -21.5 -75.501s-33.5 -42.834 -57.5 -57.501s-49 -22 -75 -22c-30 0 -54.667 9.83301 -74 29.5s-29 44.167 -29 73.5c0 10 1 19.333 3 28c4.66699 30.667 18.5 58 41.5 82s49.5 39.333 79.5 46
c-33.333 12 -77.666 18 -132.999 18c-75.333 0 -147 -22 -215 -66c-38 -25.333 -70.167 -58 -96.5 -98s-49.333 -87 -69 -141s-41.167 -124.333 -64.5 -211l-1 -2h390c78 2 140.333 11.333 187 28l-277 -907c-9.33301 -32 -14 -57.333 -14 -76c0 -34 15.667 -51 47 -51
c28 0 54.333 15.5 79 46.5s51.667 85.167 81 162.5l28 76h39l-53 -150c-26.667 -74 -62.334 -127.667 -107.001 -161s-93 -50 -145 -50c-95.333 0 -143 41.333 -143 124c0 40.667 12.333 95 37 163l229 754h-389l-389 -1368c-72 -2 -133.333 -11.667 -184 -29l396 1397h-417
l-379 -1368c-72 -2 -133.333 -11.667 -184 -29l386 1397h-188l13 41h187c20 67.333 45.833 130.333 77.5 189zM1002.5 1258.5c25 57 54.498 105.5 88.498 145.5c-52 52.667 -118.667 79 -200 79c-64.667 0 -122 -16.333 -172 -49
c-47.333 -32 -86.166 -77.167 -116.499 -135.5s-59.166 -139.5 -86.499 -243.5l-1 -2h417c22 80 45.5 148.5 70.5 205.5z" />
    <glyph glyph-name="f_idieresis.liga" unicode="f&#xef;" horiz-adv-x="1165" 
d="M792 99c0 -34.667 14.667 -52.001 44 -52.001c30 0 57.5 16.167 82.5 48.5s50.5 85.833 76.5 160.5l27 76h39l-51 -150c-49.333 -140.667 -132 -211 -248 -211c-78.667 0 -118 41.333 -118 124c0 40.667 10 95 30 163l229 754h-399l-379 -1368
c-72 -2 -133.333 -11.667 -184 -29l386 1397h-188l13 41h186c24 94 48.833 172.167 74.5 234.5s60.834 115.833 105.501 160.5c74 74 163.333 111 268 111c78.667 0 141.667 -24 189 -72c16 -19.333 24 -42 24 -68c0 -22 -6.33301 -43.5 -19 -64.5s-29.5 -38 -50.5 -51
s-43.5 -19.5 -67.5 -19.5c-30.667 0 -55.5 9.83301 -74.5 29.5s-28.5 44.834 -28.5 75.501c0 26 9.5 51.333 28.5 76s42.5 41.667 70.5 51c-21.333 8 -43.666 12 -66.999 12c-27.333 0 -53.5 -7 -78.5 -21s-46.833 -32.333 -65.5 -55
c-22 -26.667 -39.833 -60.667 -53.5 -102s-27.334 -90.833 -41.001 -148.5s-25.834 -106.5 -36.501 -146.5l-1 -2h400c78 2 140.333 11.333 187 28l-295 -907c-10 -30 -15 -55 -15 -75zM1403.5 1492c19.667 -20 29.499 -44.334 29.499 -73.001
c0 -22 -6.33301 -43.5 -19 -64.5s-29.5 -38 -50.5 -51s-43.5 -19.5 -67.5 -19.5c-30 0 -54.5 10 -73.5 30s-28.5 45 -28.5 75c0 20.667 6.33301 41.334 19 62.001s29.5 37.667 50.5 51s43.5 20 67.5 20c28.667 0 52.834 -10 72.501 -30z" />
    <glyph glyph-name="f_igrave.liga" unicode="f&#xec;" horiz-adv-x="1165" 
d="M1061 332l-50.9971 -149.999c-49.333 -140.667 -132 -211 -248 -211c-78.667 0 -118 41.667 -118 125c0 44 10 98 30 162l229 754h-399l-379 -1368c-72 -2 -133.333 -11.667 -184 -29l386 1397h-188l13 41h187c29.333 104.667 58.666 188.667 87.999 252
s67.666 113.5 114.999 150.5s107.666 55.5 180.999 55.5c43.333 0 81.333 -8.33301 114 -25c-42.667 51.333 -72.667 91.333 -90 120c-14 22.667 -21 44.334 -21 65.001c0 27.333 11 46.666 33 57.999c10 4 20.667 6 32 6c35.333 0 65 -21.333 89 -64
c16.667 -28.667 34.667 -68.334 54 -119.001l58 -147.5c19.333 -47.667 44.333 -102.834 75 -165.501l-27 -12c-32.667 46 -66 90.667 -100 134c-32 38.667 -61 65.834 -87 81.501s-58.333 23.5 -97 23.5c-58.667 0 -102 -26 -130 -78s-51.5 -114 -70.5 -186l-39.5 -147
l-1 -2h400c78 2 140.333 11.333 187 28l-295 -907c-10 -32 -15 -57.667 -15 -77c0 -33.333 14.667 -50 44 -50c30 0 57.5 16.167 82.5 48.5s50.5 85.833 76.5 160.5l27 76h39z" />
    <glyph glyph-name="f_f_b.liga" unicode="ffb" horiz-adv-x="2298" 
d="M1797 970.5c66 73.667 136 110.502 210 110.502c66 0 118 -24.333 156 -73s57 -120.334 57 -215.001c0 -110.667 -24.5 -230.5 -73.5 -359.5s-119.167 -238.333 -210.5 -328s-196.666 -134.5 -315.999 -134.5c-40.667 0 -76.667 12.167 -108 36.5
s-52.666 58.166 -63.999 101.499l-174 -142l-31 15c17.333 34.667 30.333 74 39 118l338 1266c5.33301 22.667 8 41.667 8 57c0 30 -10.167 52.333 -30.5 67s-54.833 22.334 -103.5 23.001c-77.333 -0.666992 -144.5 -26 -201.5 -76s-102.833 -134.333 -137.5 -253l-36 -131
h239l-13 -41h-238l-380 -1368c-72 -2 -133.333 -11.667 -184 -29l386 1397h-425l-379 -1368c-72 -2 -133.333 -11.667 -184 -29l386 1397h-188l13 41h187c20 67.333 45.833 130.333 77.5 189s66.167 104.667 103.5 138c100.667 93.333 223 140 367 140
c50 0 98 -9.33301 144 -28s84.333 -42.334 115 -71.001c93.333 82 211.666 123 354.999 123c72.667 0.666992 137.667 8 195 22s112.666 34.667 165.999 62l-264 -1013c66.667 163.333 133 281.833 199 355.5zM946 1075c40 137.333 97.666 244.333 172.999 321
c-59.333 58 -135.333 87 -228 87c-73.333 0 -133.666 -18.167 -180.999 -54.5s-85 -84.333 -113 -144s-55 -136.167 -81 -229.5l-1 -2h425zM1532.5 44.502c23.667 -17.667 52.166 -26.498 85.499 -26.498c72.667 0 141.834 45.333 207.501 136s118.5 201 158.5 331
s60 247.667 60 353c0 58.667 -8.5 103 -25.5 133s-40.5 45 -70.5 45c-38.667 0 -83 -30.333 -133 -91s-100.5 -142.334 -151.5 -245.001s-96.833 -215 -137.5 -337l-55 -211c17.333 -40.667 37.833 -69.834 61.5 -87.501z" />
    <glyph glyph-name="f_f_h.liga" unicode="ffh" horiz-adv-x="2347" 
d="M2194 182c-49.333 -140.667 -131.998 -210.998 -247.998 -210.998c-96 0 -144 42.333 -144 127c0 39.333 11 92.666 33 159.999l195 586c14 45.333 21 79.333 21 102c0 46.667 -22 70 -66 70c-52.667 0 -110 -35.167 -172 -105.5s-123.667 -168.666 -185 -294.999
s-117.666 -271.5 -168.999 -435.5l-50 -180h-178l385 1366c6.66699 23.333 10 42.666 10 57.999c0 59.333 -47 89 -141 89c-78 0 -146 -25 -204 -75s-104 -134.667 -138 -254l-36 -131h239l-13 -41h-238l-380 -1368c-72 -2 -133.333 -11.667 -184 -29l386 1397h-413
l-379 -1368c-72 -2 -133.333 -11.667 -184 -29l386 1397h-188l13 41h187c20 67.333 45.833 130 77.5 188s66.167 104.333 103.5 139c98.667 93.333 221 140 367 140c102 0 183.333 -33.333 244 -100c93.333 82.667 212.666 124 357.999 124c147.333 2 273 30 377 84
l-299 -1066c53.333 125.333 105.666 226 156.999 302s103.666 131.167 156.999 165.5s110.333 51.5 171 51.5c110 0 165 -51.333 165 -154c0 -44.667 -10 -96.334 -30 -155.001l-198 -598c-10.667 -32 -16 -58 -16 -78c0 -32.667 16.333 -49 49 -49
c27.333 0 53.666 15.5 79 46.5c25.333 31 51.333 85.167 78 162.5l27 76h39zM934.002 1075c37.333 134.667 93.332 240.669 167.999 318.002c-53.333 60 -123.666 90 -210.999 90c-73.333 0 -133.5 -17.833 -180.5 -53.5s-84.5 -83.334 -112.5 -143.001
s-55.333 -136.834 -82 -231.501l-1 -2h413z" />
    <glyph glyph-name="f_f_j.liga" unicode="ffj" horiz-adv-x="1761" 
d="M417 1240c32 58.667 66.334 105.334 103.001 140.001c96.667 93.333 219 140 367 140c100 0 180 -32 240 -96c10 11.333 20.667 22 32 32c53.333 49.333 116.833 85.5 190.5 108.5s149.5 34.5 227.5 34.5c81.333 0 145.666 -17.667 192.999 -53
c18 -8.66699 32 -21.667 42 -39s15 -36.666 15 -57.999c0 -26.667 -7.16699 -51.834 -21.5 -75.501s-33.5 -42.834 -57.5 -57.501s-49 -22 -75 -22c-30 0 -54.667 9.83301 -74 29.5s-29 44.167 -29 73.5c0 10 1 19.333 3 28c4.66699 28 17.167 53.5 37.5 76.5
s43.833 38.833 70.5 47.5c-34.667 13.333 -74.667 20 -120 20c-83.333 0 -152.833 -21.167 -208.5 -63.5s-101 -100 -136 -173s-68.5 -165.5 -100.5 -277.5l-1 -2h442c78 2 140 11.333 186 28l-238 -845c-94 -337.333 -227 -537.666 -399 -600.999
c-39.333 -13.333 -79.666 -20 -120.999 -20c-30.667 0 -54.334 7.16699 -71.001 21.5s-25 33.833 -25 58.5c0 19.333 5.5 38.833 16.5 58.5s25.833 35.667 44.5 48s38.667 18.5 60 18.5s37.833 -6 49.5 -18s17.5 -27.333 17.5 -46c0 -36.667 -19 -73.334 -57 -110.001
c52 6 93.5 25.5 124.5 58.5s57.167 87.167 78.5 162.5l322 1145h-441l-285 -1012h-176l284 1012h-423l-379 -1368c-72 -2 -133.333 -11.667 -184 -29l386 1397h-188l13 41h187c20 66 46 128.333 78 187zM1100 1394c-52.667 59.333 -122.333 89 -209 89
c-73.333 0 -133.5 -17.667 -180.5 -53s-84.5 -83 -112.5 -143s-55.333 -137.333 -82 -232l-1 -2h423c40.667 144 94.667 257.667 162 341z" />
    <glyph glyph-name="f_f_k.liga" unicode="ffk" horiz-adv-x="2304" 
d="M1784 683.5c42.667 43.667 82.667 106.667 120 189s73 136.166 107 161.499c41.333 31.333 82.333 47 123 47c42 0 72.667 -10 92 -30s29 -46.333 29 -79c0 -18.667 -4.16699 -39.167 -12.5 -61.5s-21.333 -41.5 -39 -57.5s-40.167 -24 -67.5 -24s-47.5 8 -60.5 24
s-19.5 35.667 -19.5 59c0 19.333 6.33301 40.833 19 64.5s28.334 44.167 47.001 61.5h-4c-15.333 0 -28.333 -2.33301 -39 -7s-23 -11.667 -37 -21c-28.667 -23.333 -60.334 -72.166 -95.001 -146.499s-69.167 -133.5 -103.5 -177.5s-86.5 -73.667 -156.5 -89
c87.333 -4 158.833 -22.333 214.5 -55s83.5 -83.334 83.5 -152.001c0 -16.667 -2 -34.667 -6 -54l-41 -205c-3.33301 -18 -5 -31.333 -5 -40c0 -29.333 15.333 -44 46 -44c27.333 0 52.833 15.833 76.5 47.5s48.5 85.5 74.5 161.5l25 76h39l-50 -150
c-45.333 -140.667 -126.333 -211 -243 -211c-39.333 0 -71.333 11.167 -96 33.5s-37 55.5 -37 99.5c0 16.667 2.66699 37.334 8 62.001l37 176c6 28 9 53 9 75c0 35.333 -8.16699 64.5 -24.5 87.5s-42.666 41 -78.999 54s-84.833 21.833 -145.5 26.5l-164 -585h-178
l385 1366c6.66699 23.333 10 42.666 10 57.999c0 59.333 -47 89 -141 89c-78 0 -146 -25 -204 -75s-104 -134.667 -138 -254l-36 -131h239l-13 -41h-238l-380 -1368c-72 -2 -133.333 -11.667 -184 -29l386 1397h-413l-379 -1368c-72 -2 -133.333 -11.667 -184 -29l386 1397
h-188l13 41h187c20 67.333 45.833 130 77.5 188s66.167 104.333 103.5 139c98.667 93.333 221 140 367 140c102 0 183.333 -33.333 244 -100c93.333 82.667 212.666 124 357.999 124c147.333 2 273 30 377 84l-286 -1020c93.333 6.66699 161.333 31.834 204 75.501z
M1102 1393c-53.333 60 -123.667 90.002 -211 90.002c-73.333 0 -133.5 -17.833 -180.5 -53.5s-84.5 -83.334 -112.5 -143.001s-55.333 -136.834 -82 -231.501l-1 -2h413l6 22c37.333 134.667 93.333 240.667 168 318z" />
    <glyph glyph-name="T_h.liga" unicode="Th" horiz-adv-x="2353" 
d="M2200 182c-49.333 -140.667 -131.999 -211 -247.999 -211c-95.333 0 -143 42.667 -143 128c0 42 10.667 95 32 159l195 586c14 40.667 21 74.667 21 102c0 46.667 -22 70 -66 70c-52.667 0 -110 -35.167 -172 -105.5s-123.667 -168.666 -185 -294.999
s-117.666 -271.5 -168.999 -435.5l-50 -180h-178l388 1382c-69.333 -28.667 -161.666 -43 -276.999 -43c-86 0 -190.667 9.66699 -314 29l-301 -1130c-12 -42.667 -18 -77.334 -18 -104.001c0 -23.333 5.66699 -41.5 17 -54.5s29.166 -22.333 53.499 -28
s58.166 -9.16699 101.499 -10.5l-8 -41c-72 4 -174 6 -306 6c-133.333 0 -233 -2 -299 -6l9 41c58 2 102.833 9 134.5 21s56.5 31.333 74.5 58s35 66 51 118l308 1159c-106 16 -193.667 24 -263 24c-118.667 0 -195.334 -11.667 -230.001 -35
c10.667 -14 19.5 -32.167 26.5 -54.5s10.5 -43.5 10.5 -63.5c0 -31.333 -8.66699 -59 -26 -83s-42.666 -36 -75.999 -36c-29.333 0 -51.666 9.16699 -66.999 27.5s-23 43.166 -23 74.499c0 71.333 36 124.666 108 159.999c64 31.333 155.667 47 275 47
c63.333 0 123.666 -3.33301 180.999 -10s147.666 -19.667 270.999 -39s231.333 -29 324 -29c60.667 0 112 3.66699 154 11s82.667 20 122 38l48 170c79.333 3.33301 141.333 13 186 29l-301 -1071c54 126.667 106.833 228.334 158.5 305.001s104 132.334 157 167.001
s110.167 52 171.5 52c110 0 165 -51 165 -153c0 -42 -10 -94 -30 -156l-198 -598c-11.333 -30 -17 -55.667 -17 -77c0 -33.333 16.667 -50 50 -50c27.333 0 53.666 15.5 79 46.5c25.333 31 51.333 85.167 78 162.5l27 76h39z" />
    <glyph glyph-name="f_b.liga" unicode="fb" horiz-adv-x="1696" 
d="M1195 970.5c66 73.667 135.999 110.501 209.999 110.501c66 0 118 -24.333 156 -73s57 -120.334 57 -215.001c0 -110.667 -24.5 -230.5 -73.5 -359.5s-119.167 -238.333 -210.5 -328s-196.666 -134.5 -315.999 -134.5c-40.667 0 -76.667 12.167 -108 36.5
s-52.666 58.166 -63.999 101.499l-174 -142l-31 15c17.333 34.667 30.333 74 39 118l338 1266c5.33301 22.667 8 41.667 8 57c0 30 -10.167 52.333 -30.5 67s-54.833 22.334 -103.5 23.001c-77.333 -0.666992 -144.5 -26 -201.5 -76s-102.833 -134.333 -137.5 -253l-36 -131
h239l-13 -41h-238l-380 -1368c-72 -2 -133.333 -11.667 -184 -29l386 1397h-188l13 41h186l6 22c91.333 312.667 276.333 469 555 469c72.667 0.666992 137.667 8 195 22s112.666 34.667 165.999 62l-264 -1013c66.667 163.333 133 281.833 199 355.5zM930.499 44.501
c23.667 -17.667 52.166 -26.498 85.499 -26.498c72.667 0 141.834 45.333 207.501 136s118.5 201 158.5 331s60 247.667 60 353c0 58.667 -8.5 103 -25.5 133s-40.5 45 -70.5 45c-38.667 0 -83 -30.333 -133 -91s-100.5 -142.334 -151.5 -245.001s-96.833 -215 -137.5 -337
l-55 -211c17.333 -40.667 37.833 -69.834 61.5 -87.501z" />
    <glyph glyph-name="f_f_l" unicode="ffl" horiz-adv-x="1800" 
d="M1696 332l-50.999 -149.999c-49.333 -140.667 -131.333 -211 -246 -211c-94 0 -141 44.333 -141 133c0 39.333 9.33301 90.666 28 153.999l334 1108c7.33301 24 11 44.333 11 61c0 28.667 -10.5 50.167 -31.5 64.5s-55.833 21.5 -104.5 21.5h-25
c-47.333 0 -100.333 -17.667 -159 -53c-32 -18 -59.333 -44.833 -82 -80.5s-42.5 -78.334 -59.5 -128.001s-36.167 -115.167 -57.5 -196.5l-1 -2h241l-13 -41h-239l-379 -1368c-72 -2 -133.333 -11.667 -184 -29l386 1397h-419l-379 -1368c-72 -2 -133.333 -11.667 -184 -29
l386 1397h-188l13 41h187c20 67.333 45.833 130.333 77.5 189s66.167 104.667 103.5 138c104.667 93.333 227 140 367 140c100.667 0 181 -32.667 241 -98c47.333 39.333 100.666 69.5 159.999 90.5s118.666 31.5 177.999 31.5h39c72.667 0.666992 137.834 8 195.501 22
s114.167 34.667 169.5 62l-428 -1454c-8.66699 -31.333 -13 -55.666 -13 -72.999c0 -36 16 -54 48 -54c27.333 0 53 15.833 77 47.5s49.333 85.5 76 161.5l27 76h39zM1006.5 1259c25.667 54.667 56.4971 100.332 92.4971 136.999c-52.667 58 -122 87 -208 87
c-64.667 0 -122 -16.333 -172 -49c-47.333 -32 -86.166 -77.167 -116.499 -135.5s-59.166 -139.5 -86.499 -243.5l-1 -2h419c22.667 82.667 46.834 151.334 72.501 206.001z" />
    <glyph glyph-name="f_h.liga" unicode="fh" horiz-adv-x="1757" 
d="M1604 182c-49.333 -140.667 -131.998 -210.998 -247.998 -210.998c-96 0 -144 42.333 -144 127c0 39.333 11 92.666 33 159.999l195 586c14 45.333 21 79.333 21 102c0 46.667 -22 70 -66 70c-52.667 0 -110 -35.167 -172 -105.5s-123.667 -168.666 -185 -294.999
s-117.666 -271.5 -168.999 -435.5l-50 -180h-178l385 1366c6.66699 23.333 10 42.666 10 57.999c0 59.333 -47 89 -141 89c-78 0 -146 -25 -204 -75s-104 -134.667 -138 -254l-36 -131h239l-13 -41h-238l-380 -1368c-72 -2 -133.333 -11.667 -184 -29l386 1397h-188l13 41
h186l6 22c86.667 312.667 271.667 469 555 469c147.333 2 273 30 377 84l-299 -1066c53.333 125.333 105.666 226 156.999 302s103.666 131.167 156.999 165.5s110.333 51.5 171 51.5c110 0 165 -51.333 165 -154c0 -44.667 -10 -96.334 -30 -155.001l-198 -598
c-10.667 -32 -16 -58 -16 -78c0 -32.667 16.333 -49 49 -49c27.333 0 53.666 15.5 78.999 46.5s51.333 85.167 78 162.5l27 76h39z" />
    <glyph glyph-name="f_j.liga" unicode="fj" horiz-adv-x="1169" 
d="M1220 1507.5c10 -17 15.001 -36.4971 15.001 -58.4971c0 -26.667 -7.16699 -51.834 -21.5 -75.501s-33.5 -42.834 -57.5 -57.501s-49 -22 -75 -22c-30 0 -54.667 9.83301 -74 29.5s-29 44.167 -29 73.5c0 10 1 19.333 3 28c4.66699 28 17 53.5 37 76.5
s43.667 38.833 71 47.5c-36 13.333 -76 20 -120 20c-83.333 0 -152.833 -21.167 -208.5 -63.5s-101 -100 -136 -173s-68.5 -165.5 -100.5 -277.5l-1 -2h442c78 2 140 11.333 186 28l-238 -845c-94 -337.333 -227 -537.666 -399 -600.999
c-39.333 -13.333 -79.666 -20 -120.999 -20c-30.667 0 -54.334 7.16699 -71.001 21.5s-25 33.833 -25 58.5c0 19.333 5.5 38.833 16.5 58.5s25.833 35.667 44.5 48s38.667 18.5 60 18.5c20.667 0 37 -6 49 -18s18 -27.333 18 -46c0 -36.667 -19 -73.334 -57 -110.001
c52 6 93.5 25.5 124.5 58.5s57.167 87.167 78.5 162.5l322 1145h-441l-285 -1012h-176l284 1012h-198l13 41h196c50 179.333 123.667 313.666 221 402.999c53.333 49.333 116.833 85.5 190.5 108.5s149.5 34.5 227.5 34.5c81.333 0 145.666 -17.667 192.999 -53
c18 -8.66699 32 -21.5 42 -38.5z" />
    <glyph glyph-name="f_k.liga" unicode="fk" horiz-adv-x="1714" 
d="M1194 683.5c42.667 43.667 82.667 106.667 120 189s73 136.166 107 161.499c41.333 31.333 82.333 47 123 47c42 0 72.667 -10 92 -30s29 -46.333 29 -79c0 -18.667 -4.16699 -39.167 -12.5 -61.5s-21.333 -41.5 -39 -57.5s-40.167 -24 -67.5 -24s-47.5 8 -60.5 24
s-19.5 35.667 -19.5 59c0 19.333 6.33301 40.833 19 64.5s28.334 44.167 47.001 61.5h-4c-15.333 0 -28.333 -2.33301 -39 -7s-23 -11.667 -37 -21c-28.667 -23.333 -60.334 -72.166 -95.001 -146.499s-69.167 -133.5 -103.5 -177.5s-86.5 -73.667 -156.5 -89
c87.333 -4 158.833 -22.333 214.5 -55s83.5 -83.334 83.5 -152.001c0 -17.333 -2 -35.333 -6 -54l-41 -205c-3.33301 -18 -5 -31.333 -5 -40c0 -29.333 15.333 -44 46 -44c27.333 0 52.833 15.833 76.5 47.5s48.5 85.5 74.5 161.5l25 76h39l-50 -150
c-45.333 -140.667 -126.333 -211 -243 -211c-39.333 0 -71.333 11.167 -96 33.5s-37 55.5 -37 99.5c0 16.667 2.66699 37.334 8 62.001l37 176c6 28 9 53 9 75c0 35.333 -8.16699 64.5 -24.5 87.5s-42.5 41 -78.5 54s-84.667 21.833 -146 26.5l-164 -585h-178l385 1366
c6.66699 23.333 10 42.666 10 57.999c0 59.333 -47 89 -141 89c-78 0 -146 -25 -204 -75s-104 -134.667 -138 -254l-36 -131h239l-13 -41h-238l-380 -1368c-72 -2 -133.333 -11.667 -184 -29l386 1397h-188l13 41h186l6 22c86.667 312.667 271.667 469 555 469
c147.333 2 273 30 377 84l-286 -1020c93.333 6.66699 161.333 31.834 204 75.501z" />
    <glyph glyph-name=".notdef" horiz-adv-x="1151" 
d="M1028 0h-905v1581h905v-1581zM954 1520h-757v-1459h757v1459z" />
    <glyph glyph-name="CR" unicode="&#xd;" horiz-adv-x="0" 
 />
    <glyph glyph-name="space" unicode=" " horiz-adv-x="518" 
 />
    <glyph glyph-name="exclam" unicode="!" horiz-adv-x="539" 
d="M264.5 728.5c20.333 106.333 45.333 247.834 75 424.501s53.834 299.667 72.501 369c6.66699 25.333 18.167 45 34.5 59s35.5 21 57.5 21c31.333 0 54.833 -7.66699 70.5 -23s23.5 -35.333 23.5 -60c0 -13.333 -2.66699 -28 -8 -44
c-16 -55.333 -51.833 -158.333 -107.5 -309l-144 -400.5c-40.333 -116.333 -76.833 -237.833 -109.5 -364.5l-36 7c27.333 107.333 51.166 214.166 71.499 320.499zM35 152.501c14.667 24.333 33.833 43.835 57.5 58.502s48.167 22 73.5 22
c30.667 0 55.667 -10.167 75 -30.5s29 -45.833 29 -76.5c0 -26.667 -7.16699 -51.834 -21.5 -75.501s-33.5 -42.834 -57.5 -57.501s-49 -22 -75 -22c-30 0 -54.667 10 -74 30s-29 45 -29 75c0 26.667 7.33301 52.167 22 76.5z" />
    <glyph glyph-name="quotedbl" unicode="&#x22;" horiz-adv-x="606" 
d="M528 1223c4 48 7.33203 84.833 9.99902 110.5s7 50.834 13 75.501c6.66699 28.667 17.834 50.167 33.501 64.5s33.167 21.5 52.5 21.5c42 0 63 -22.667 63 -68c0 -24.667 -5.16699 -49.334 -15.5 -74.001s-31.833 -66.5 -64.5 -125.5s-60 -114.5 -82 -166.5h-28
c8 60 14 114 18 162zM304.999 1223c4 48 7.33203 84.833 9.99902 110.5s7 50.834 13 75.501c6.66699 28.667 17.834 50.167 33.501 64.5s33.167 21.5 52.5 21.5c42 0 63 -22.667 63 -68c0 -24.667 -5.16699 -49.334 -15.5 -74.001s-31.833 -66.5 -64.5 -125.5
s-60 -114.5 -82 -166.5h-28c8 60 14 114 18 162z" />
    <glyph glyph-name="numbersign" unicode="#" horiz-adv-x="1309" 
d="M827 547h293l-20 -41h-292l-138 -299h-49l138 299h-334l-138 -299h-49l138 299h-300l18 41h301l159 342h-300l16 41h303l140 303h49l-140 -303h334l140 303h49l-140 -303h291l-16 -41h-294zM603 889l-159 -342h334l159 342h-334z" />
    <glyph glyph-name="dollar" unicode="$" horiz-adv-x="1128" 
d="M989.5 1412c21 -13.333 44.832 -30.6689 71.499 -52.002c26.667 -20.667 51 -50.834 73 -90.501s33 -81.167 33 -124.5c0 -44 -11.167 -82 -33.5 -114s-52.166 -48 -89.499 -48c-34 0 -59.833 13 -77.5 39s-26.5 57.333 -26.5 94c0 40 7.16699 76.667 21.5 110
s33.833 69 58.5 107c-30.667 31.333 -70 56.333 -118 75l-178 -641c50 -46.667 91.333 -89 124 -127s59.667 -79.5 81 -124.5s32 -92.5 32 -142.5c0 -82 -21.833 -151.833 -65.5 -209.5s-100.167 -102 -169.5 -133s-143.333 -49.833 -222 -56.5l-68 -244h-45l67 241h-16
c-54 0 -103 6 -147 18l-72 -259h-45l76 272c-29.333 10.667 -54.333 22.834 -75 36.501s-44 30.834 -70 51.501c-30.667 23.333 -56.167 54 -76.5 92s-30.5 79 -30.5 123s11.167 82 33.5 114s52.166 48 89.499 48c34.667 0 60.667 -12.833 78 -38.5s26 -57.167 26 -94.5
c0 -40 -7 -76.333 -21 -109s-33.333 -68.667 -58 -108c30 -30.667 68.333 -55 115 -73l188 675c-56 56 -99.5 112 -130.5 168s-46.5 120 -46.5 192c0 76 17.833 142.5 53.5 199.5s82.834 102 141.501 135s122.667 53.5 192 61.5l68 245h45l-67 -241h18
c52.667 0 101 -5.66699 145 -17l72 258h45l-75 -271c29.333 -11.333 54.5 -23.666 75.5 -36.999zM728.999 1440l-31.001 -1l-141 -509c26.667 -30 70.334 -73.333 131.001 -130l173 622c-42 12 -86 18 -132 18zM497.998 1351.5c-37.333 -42.333 -56 -99.499 -56 -171.499
c0 -68.667 27 -138.334 81 -209.001l128 462c-64.667 -12 -115.667 -39.167 -153 -81.5zM448.998 11.998h19.999l151 543c-14 14.667 -58 57.667 -132 129l-182 -654c44.667 -12 92.334 -18 143.001 -18zM687.997 92.998c41.333 42 62 100.334 62 175.001
c0 85.333 -32 167.666 -96 246.999l-139 -499c74 9.33301 131.667 35 173 77z" />
    <glyph glyph-name="percent" unicode="%" horiz-adv-x="1569" 
d="M-19 -86l1706 1774l31 -27l-1706 -1774zM285.5 1311c37.667 72 89 131.33 154 177.997s136.167 70 213.5 70c72 0 128 -18.667 168 -56s60 -89.666 60 -156.999c0 -72.667 -18.667 -145.167 -56 -217.5s-88.333 -131.666 -153 -177.999s-135.667 -69.5 -213 -69.5
c-72.667 0 -129.167 18.333 -169.5 55s-60.5 89.334 -60.5 158.001c0 72.667 18.833 145 56.5 217zM494.5 1440.5c-41 -54.333 -72.5 -118.666 -94.5 -192.999s-33 -138.5 -33 -192.5c0 -91.333 35.333 -137 106 -137c54 0 101.5 27.167 142.5 81.5
s72.5 118.666 94.5 192.999s33 138.833 33 193.5c0 90.667 -35.333 136 -106 136c-54 0 -101.5 -27.167 -142.5 -81.5zM826 400.997c37.333 72 88.5 131.332 153.5 177.999s136.5 70 214.5 70c71.333 0 127 -18.667 167 -56s60 -89.666 60 -156.999
c0 -72.667 -18.5 -145 -55.5 -217s-87.833 -131.333 -152.5 -178s-136 -70 -214 -70c-72 0 -128.167 18.5 -168.5 55.5s-60.5 89.5 -60.5 157.5c0 72.667 18.667 145 56 217zM1034.5 530.496c-41 -54.333 -72.5 -118.669 -94.5 -193.002s-33 -138.5 -33 -192.5
c0 -91.333 35.667 -137 107 -137c54 0 101.5 27.167 142.5 81.5s72.5 118.833 94.5 193.5s33 139.334 33 194.001c0 44.667 -9.16699 78.334 -27.5 101.001s-44.5 34 -78.5 34c-54.667 0 -102.5 -27.167 -143.5 -81.5z" />
    <glyph glyph-name="ampersand" unicode="&#x26;" horiz-adv-x="1673" 
d="M862 303c-63.333 0 -116.001 15.665 -158.001 46.998s-63 82.666 -63 153.999c0 79.333 28.333 145 85 197s141.667 99 255 141l155.5 55.5l207.5 76c66 25 121.667 48.5 167 70.5c67.333 32.667 119.333 66.834 156 102.501s55 77.5 55 125.5
c0 32.667 -8.83301 62.5 -26.5 89.5s-42 48.167 -73 63.5s-65.167 23 -102.5 23c-36 0 -58 -6 -66 -18c14 -8 24.667 -19 32 -33s11 -29 11 -45c0 -20.667 -6.33301 -40 -19 -58s-29.334 -32.333 -50.001 -43s-42.667 -16 -66 -16c-27.333 0 -49.5 7.66699 -66.5 23
s-25.5 36.333 -25.5 63c0 28 9.5 53.167 28.5 75.5s43.5 40.166 73.5 53.499c45.333 19.333 95.333 29 150 29c78.667 0 141 -19.333 187 -58s69 -97.334 69 -176.001c0 -69.333 -19.833 -130.666 -59.5 -183.999s-103.167 -102 -190.5 -146
c-61.333 -30 -170.333 -73.667 -327 -131c99.333 -83.333 149 -185.666 149 -306.999c0 -90.667 -27.167 -174.667 -81.5 -252s-133 -139 -236 -185s-224.5 -69 -364.5 -69c-120 0 -224.333 17.333 -313 52s-157 84.334 -205 149.001s-72 141.667 -72 231
c0 80 19 155 57 225s90.333 130 157 180s142 86.667 226 110c-46 24.667 -81.333 57.5 -106 98.5s-37 84.5 -37 130.5c0 59.333 20.167 111 60.5 155s91.833 77.667 154.5 101s126 35 190 35c50.667 0 95 -7.5 133 -22.5s67.333 -35.833 88 -62.5s31 -57.667 31 -93
c0 -33.333 -8.5 -61.5 -25.5 -84.5s-38.833 -40.333 -65.5 -52s-54.334 -17.5 -83.001 -17.5l4 37c38 0 68.667 10 92 30s35 47.333 35 82c0 45.333 -18.667 81.666 -56 108.999s-84.666 41 -141.999 41c-55.333 0 -105 -13.167 -149 -39.5s-78.333 -62.666 -103 -108.999
s-37 -98.5 -37 -156.5c0 -63.333 15 -120 45 -170c48.667 8 91.667 12 129 12c49.333 0 74 -14.333 74 -43c0 -14.667 -6.33301 -25.5 -19 -32.5s-27.667 -10.5 -45 -10.5c-34 0 -81 15 -141 45c-62 -18 -116.667 -47 -164 -87s-84.166 -87.333 -110.499 -142
s-39.5 -112.667 -39.5 -174c0 -80 22 -148.167 66 -204.5s104.667 -98.833 182 -127.5s166 -43 266 -43c106 0 201.833 15.667 287.5 47s153.167 76 202.5 134s74 124.667 74 200c0 50 -11.5 99 -34.5 147s-57.5 88.667 -103.5 122
c-140 -51.333 -226.667 -83.666 -260 -96.999c-61.333 -24 -112.5 -51.5 -153.5 -82.5s-61.5 -71.167 -61.5 -120.5c0 -42 16.833 -75.333 50.5 -100s74.834 -37 123.501 -37c54 0 98 13.333 132 40s59.667 53.667 77 81l27 -19c-54.667 -90 -136 -135 -244 -135z" />
    <glyph glyph-name="quotesingle" unicode="'" horiz-adv-x="383" 
d="M305 1223c4 48 7.33203 84.833 9.99902 110.5s7 50.834 13 75.501c6.66699 28.667 17.834 50.167 33.501 64.5s33.167 21.5 52.5 21.5c42 0 63 -22.667 63 -68c0 -24.667 -5.16699 -49.334 -15.5 -74.001s-31.833 -66.5 -64.5 -125.5s-60 -114.5 -82 -166.5h-28
c8 60 14 114 18 162z" />
    <glyph glyph-name="parenleft" unicode="(" horiz-adv-x="739" 
d="M236 -124c-50 80.667 -88.835 168.667 -116.502 264s-41.5 201 -41.5 317c0 148 38.333 295.833 115 443.5s181.834 285.667 315.501 414s285.834 240.5 456.501 336.5l20 -27c-240 -162 -424.833 -339.5 -554.5 -532.5s-194.5 -412.167 -194.5 -657.5
c0 -309.333 75 -569.333 225 -780l-37 -27c-75.333 85.333 -138 168.333 -188 249z" />
    <glyph glyph-name="parenright" unicode=")" horiz-adv-x="739" 
d="M522 1402c50 -80.667 88.835 -168.667 116.502 -264s41.5 -201 41.5 -317c0 -148 -38.333 -295.833 -115 -443.5s-181.834 -285.667 -315.501 -414s-285.834 -240.5 -456.501 -336.5l-20 27c240 162 424.833 339.5 554.5 532.5s194.5 412.167 194.5 657.5
c0 309.333 -75 569.333 -225 780l37 27c75.333 -85.333 138 -168.333 188 -249z" />
    <glyph glyph-name="asterisk" unicode="*" horiz-adv-x="1014" 
d="M1048 1257c0 -36 -28.998 -69.3369 -86.998 -100.004c-24 -11.333 -49.833 -21.166 -77.5 -29.499s-67.834 -19 -120.501 -32l-128 -32.5c29.333 -9.33301 68 -20.833 116 -34.5s84 -24.667 108 -33s44.333 -17.833 61 -28.5c32.667 -20.667 49 -45 49 -73
c0 -18.667 -6.33301 -35.334 -19 -50.001c-15.333 -21.333 -36.333 -32 -63 -32c-22 0 -44.667 8 -68 24c-17.333 10.667 -33.833 24.5 -49.5 41.5s-37.667 43.333 -66 79l-71.5 87.5c1.33301 -37.333 3.16602 -79.666 5.49902 -126.999s3.5 -83.333 3.5 -108
c0 -28 -1.33301 -51.333 -4 -70c-10 -38 -24.5 -65.833 -43.5 -83.5s-39.5 -26.5 -61.5 -26.5c-15.333 0 -27.833 5.33301 -37.5 16s-14.5 27.334 -14.5 50.001c0 15.333 1.66699 30 5 44c4.66699 26.667 13.5 55.5 26.5 86.5s30.667 68.667 53 113l57.5 116.5h-1
l-113.5 -94c-40.333 -34 -73.333 -60.833 -99 -80.5s-49.167 -35.167 -70.5 -46.5c-31.333 -15.333 -58 -23 -80 -23c-28.667 0 -47 11.667 -55 35c-2.66699 8 -4 14.333 -4 19c0 34 29.333 67.333 88 100c24 11.333 49.833 21.166 77.5 29.499s67.667 19 120 32
s94.5 23.833 126.5 32.5c-28.667 9.33301 -66.834 20.833 -114.501 34.5s-83.667 24.667 -108 33s-44.5 17.833 -60.5 28.5c-33.333 20.667 -50 45.334 -50 74.001c0 18 6.33301 34.333 19 49c15.333 21.333 36.666 32 63.999 32c22 0 44.333 -8 67 -24
c17.333 -11.333 33.833 -25.5 49.5 -42.5s38.334 -44.333 68.001 -82s55.167 -68.834 76.5 -93.501c-1.33301 24.667 -4.16602 62.834 -8.49902 114.501s-6.5 93.167 -6.5 124.5c0 30.667 1.66699 55.667 5 75c8.66699 38 22.5 66 41.5 84s38.833 27 59.5 27
c16 0 29 -5.33301 39 -16s15 -27.667 15 -51c0 -15.333 -1.66699 -30 -5 -44c-4 -24 -11.5 -49.667 -22.5 -77s-28.167 -65.666 -51.5 -114.999s-41.333 -88.666 -54 -117.999l112 93l95.5 77.5c24.333 19 46.833 34.167 67.5 45.5c31.333 15.333 58 23 80 23
c28.667 0 47 -11.667 55 -35c2.66699 -8 4 -14.333 4 -19z" />
    <glyph glyph-name="plus" unicode="+" horiz-adv-x="1198" 
d="M743 1241h74l-137 -483h475l-18 -62h-475l-138 -481h-73l137 481h-477l18 62h477z" />
    <glyph glyph-name="comma" unicode="," horiz-adv-x="516" 
d="M107 -117c38 46.667 59.001 93.3311 63.001 139.998c-39.333 -34.667 -75 -52 -107 -52c-24 0 -42.833 6.5 -56.5 19.5s-20.5 30.5 -20.5 52.5c0 28.667 9.16699 57.834 27.5 87.501s42.166 54.167 71.499 73.5s59 29 89 29s52.5 -11.667 67.5 -35
s22.5 -51.666 22.5 -84.999c0 -47.333 -12 -95 -36 -143s-58.667 -93.167 -104 -135.5s-99 -78.5 -161 -108.5l-10 28c64.667 39.333 116 82.333 154 129z" />
    <glyph glyph-name="hyphen" unicode="-" horiz-adv-x="1032" 
d="M848 461h-739l30 119h740z" />
    <glyph glyph-name="period" unicode="." horiz-adv-x="500" 
d="M19 152.5c14.667 24.333 33.833 43.835 57.5 58.502s48.167 22 73.5 22c30.667 0 55.667 -10.167 75 -30.5s29 -45.833 29 -76.5c0 -26.667 -7.16699 -51.834 -21.5 -75.501s-33.5 -42.834 -57.5 -57.501s-49 -22 -75 -22c-30 0 -54.667 10 -74 30s-29 45 -29 75
c0 26.667 7.33301 52.167 22 76.5z" />
    <glyph glyph-name="slash" unicode="/" horiz-adv-x="958" 
d="M1108 1479l-1122 -1508h-68l1122 1508h68z" />
    <glyph glyph-name="zero" unicode="0" horiz-adv-x="1157" 
d="M968.5 988c55 -63.333 82.498 -152.333 82.498 -267c0 -122 -29.667 -241.167 -89 -357.5s-139.166 -210.833 -239.499 -283.5s-208.166 -109 -323.499 -109c-68.667 0 -128.334 14 -179.001 42s-89.5 69.333 -116.5 124s-40.5 121 -40.5 199c0 121.333 31 240 93 356
s144.333 210.167 247 282.5s211.334 108.5 326.001 108.5c104.667 0 184.5 -31.667 239.5 -95zM478.498 943.5c-67.667 -69 -122.333 -159.832 -164 -272.499s-62.5 -230.667 -62.5 -354c0 -206 62 -309 186 -309c76.667 0 147.5 36.167 212.5 108.5
s116.5 166.166 154.5 281.499s57 233.333 57 354c0 105.333 -15 180.833 -45 226.5s-72.333 68.5 -127 68.5c-73.333 0 -143.833 -34.5 -211.5 -103.5z" />
    <glyph glyph-name="one" unicode="1" horiz-adv-x="700" 
d="M147 0l263.001 887.001c-80.667 -45.333 -183.334 -87 -308.001 -125l7 43c79.333 24 148.833 50.833 208.5 80.5s109.5 58.667 149.5 87s85 63.166 135 104.499h41l-317 -1077h-179z" />
    <glyph glyph-name="two" unicode="2" horiz-adv-x="1030" 
d="M423.5 589c-39.667 -16 -77.8311 -23.998 -114.498 -23.998c-42 0 -78 10.333 -108 31s-45 57 -45 109c0 60 21.333 119.167 64 177.5s100 106 172 143s149 55.5 231 55.5c84 0 151 -17.667 201 -53s75 -85 75 -149c0 -95.333 -48.667 -189.333 -146 -282
s-205.833 -180.5 -325.5 -263.5s-191.834 -134.833 -216.501 -155.5c38 0 89.667 -5.83301 155 -17.5l163 -28.5c43.333 -7.33301 82 -11 116 -11c94 0 141 32.667 141 98c0 50 -30 89 -90 117l27 26c75.333 -34.667 113 -88.334 113 -161.001c0 -38 -9 -73 -27 -105
s-46.167 -58 -84.5 -78s-86.5 -30 -144.5 -30c-44 0 -93.833 6.83301 -149.5 20.5s-100.667 24 -135 31s-74.166 10.5 -119.499 10.5c-40.667 0 -76.834 -3.83301 -108.501 -11.5s-68.5 -20.5 -110.5 -38.5l10 43c24 18.667 108.167 78.834 252.5 180.501
s262.666 206.667 354.999 315s138.5 214.166 138.5 317.499c0 56 -13.5 100 -40.5 132s-66.167 48 -117.5 48c-49.333 0 -101.5 -16.333 -156.5 -49s-101 -74.5 -138 -125.5s-55.5 -102.5 -55.5 -154.5c0 -34 9.33301 -59 28 -75s49 -24 91 -24c35.333 0 67 6.66699 95 20
s59 34.666 93 63.999l25 -28c-36 -34 -73.833 -59 -113.5 -75z" />
    <glyph glyph-name="three" unicode="3" horiz-adv-x="993" 
d="M328 633c-42.667 0 -79 10.1709 -109 30.5039s-45 56.5 -45 108.5c0 50 20.333 99.5 61 148.5s95.334 89 164.001 120s142.667 46.5 222 46.5c84 0 151 -17.667 201 -53s75 -85 75 -149c0 -58.667 -21.667 -113.334 -65 -164.001s-97.5 -93.834 -162.5 -129.501
s-130.5 -62.167 -196.5 -79.5c62 -1.33301 117.833 -11 167.5 -29s88.834 -44.333 117.501 -79s43 -76.334 43 -125.001c0 -117.333 -51.667 -220.333 -155 -309s-230.333 -156.834 -381 -204.501s-293.667 -72.5 -429 -74.5l10 37
c117.333 7.33301 234.833 33.833 352.5 79.5s215.667 109.834 294 192.501s117.5 180.334 117.5 293.001c0 54.667 -15.333 98.667 -46 132s-73.334 51.333 -128.001 54c-32 -12.667 -56 -21.667 -72 -27s-31.667 -8 -47 -8c-24 0 -36 7 -36 21
c0 1.33301 0.666992 4.66602 2 9.99902c5.33301 25.333 37.666 38 96.999 38c17.333 0 30.666 -0.333008 39.999 -1c54.667 20.667 104.834 48.667 150.501 84s82.167 75.5 109.5 120.5s41 92.167 41 141.5c0 57.333 -15 102.333 -45 135s-71 49 -123 49
c-46.667 0 -96 -13.167 -148 -39.5s-95.333 -60.333 -130 -102s-52 -83.834 -52 -126.501c0 -33.333 9.33301 -58 28 -74s49 -24 91 -24c46 0 88.333 10.333 127 31l23 -31c-53.333 -28.667 -108 -43 -164 -43z" />
    <glyph glyph-name="four" unicode="4" horiz-adv-x="1055" 
d="M583 70l-96 -359h-178l96 359h-509l12 43l893 970h53l-240 -897h275l-33 -116h-273zM603 813l-574 -627h407z" />
    <glyph glyph-name="five" unicode="5" horiz-adv-x="940" 
d="M618 862c-16.667 0 -33.499 3.16895 -50.499 9.50195s-43.5 18.5 -79.5 36.5s-64.333 27 -85 27c-5.33301 0 -9.33301 -0.333008 -12 -1l-229 -469c44 23.333 88.667 40.833 134 52.5s96.333 17.5 153 17.5c104.667 0 183 -21.333 235 -64s78 -99.334 78 -170.001
c0 -125.333 -50 -232.833 -150 -322.5s-222.167 -157.834 -366.5 -204.501s-281.5 -72.334 -411.5 -77.001l10 37c110.667 0.666992 221.834 23.334 333.501 68.001s204.5 109.5 278.5 194.5s111 185.167 111 300.5c0 54.667 -17.5 97.667 -52.5 129s-89.167 47 -162.5 47
c-72 0 -147.667 -18.333 -227 -55l-21 10l308 633c36 2 72 -2.83301 108 -14.5s66 -20.667 90 -27s55.667 -9.5 95 -9.5c77.333 0 133.666 30.667 168.999 92l25 -15c-68.667 -150 -162.334 -225 -281.001 -225z" />
    <glyph glyph-name="six" unicode="6" horiz-adv-x="1079" 
d="M696.5 1223c-127.667 -112 -232.332 -250.831 -313.999 -416.498s-122.5 -340.834 -122.5 -525.501c0 -100 12.5 -169.833 37.5 -209.5s61.833 -59.5 110.5 -59.5c72 0 136 33.333 192 100s99.333 148.667 130 246s46 188.333 46 273c0 138 -44.333 207 -133 207
c-44.667 0 -88.334 -19.5 -131.001 -58.5s-79.667 -102.833 -111 -191.5l-32 12c33.333 106 81.166 182 143.499 228s128.5 69 198.5 69c51.333 0 96.333 -12 135 -36s68.834 -59 90.501 -105s32.5 -101.333 32.5 -166c0 -106 -27.333 -206.667 -82 -302
s-127.667 -172 -219 -230s-189 -87 -293 -87c-102.667 0 -178.5 30.667 -227.5 92s-73.5 153 -73.5 275c0 193.333 54.833 372.666 164.5 537.999s243 300.833 400 406.5s301.833 171.167 434.5 196.5l12 -41c-131.333 -31.333 -260.833 -103 -388.5 -215z" />
    <glyph glyph-name="seven" unicode="7" horiz-adv-x="997" 
d="M869 766.5c-122 -141 -222.837 -273.835 -302.504 -398.502s-138.834 -259.667 -177.501 -405c-7.33301 -25.333 -14.166 -55.666 -20.499 -90.999s-11.166 -59 -14.499 -71c-8.66699 -29.333 -24.167 -54 -46.5 -74s-49.166 -30 -80.499 -30c-42.667 0 -64 23 -64 69
c0 12 1.66699 27.333 5 46c21.333 124.667 86.5 261.167 195.5 409.5s231.167 298.333 366.5 450s219.666 247.834 252.999 288.501c-86.667 -58.667 -187 -88 -301 -88c-38 0 -71.833 2.83301 -101.5 8.5s-70.167 15.667 -121.5 30s-95.666 21.5 -132.999 21.5
c-53.333 0 -96 -11.667 -128 -35s-48 -57.333 -48 -102c0 -57.333 23 -105.166 69 -143.499s117.667 -69.166 215 -92.499l-12 -31c-214.667 41.333 -322 137.666 -322 288.999c0 41.333 10.5 81 31.5 119s53.167 69 96.5 93s97 36 161 36c42 0 80.833 -4.33301 116.5 -13
s90 -25.834 163 -51.501s138.5 -38.5 196.5 -38.5c40.667 0 76.334 6.83301 107.001 20.5s58.334 37.167 83.001 70.5h53c-37.333 -50 -117 -145.5 -239 -286.5z" />
    <glyph glyph-name="eight" unicode="8" horiz-adv-x="1114" 
d="M694 811c54.667 -52.667 97.668 -96.833 129.001 -132.5s58.333 -77.5 81 -125.5s34 -100.667 34 -158c0 -84.667 -24.667 -159 -74 -223s-116.333 -113.5 -201 -148.5s-178 -52.5 -280 -52.5c-110.667 0 -198.834 21.833 -264.501 65.5s-98.5 110.167 -98.5 199.5
c0 111.333 48 211.5 144 300.5s211.667 162.833 347 221.5c-40 38.667 -73.167 74.167 -99.5 106.5s-47.833 68.333 -64.5 108s-25 82.834 -25 129.501c0 73.333 23.333 138.666 70 195.999s107.667 101.833 183 133.5s154 47.5 236 47.5c86.667 0 156.5 -18.333 209.5 -55
s79.5 -90.667 79.5 -162c0 -158 -135.333 -308.333 -406 -451zM802.001 950.001c40 46 71.999 96.499 95.999 151.499s36 110.5 36 166.5c0 116 -53.333 174 -160 174c-50.667 0 -97.667 -12.5 -141 -37.5s-77.666 -60 -102.999 -105s-38 -95.833 -38 -152.5
c0 -40 7.83301 -77.833 23.5 -113.5s36 -68.667 61 -99s56.5 -64.166 94.5 -101.499c47.333 32 91 71 131 117zM726 497c-20 44 -44.502 82.668 -73.502 116.001s-68.167 74 -117.5 122c-65.333 -36 -123.166 -81.167 -173.499 -135.5s-89.666 -114.5 -117.999 -180.5
s-42.5 -133.333 -42.5 -202c0 -66 15.5 -117.333 46.5 -154s82.167 -55 153.5 -55c62 0 120.167 13.667 174.5 41s98 67.166 131 119.499s49.5 113.5 49.5 183.5c0 52.667 -10 101 -30 145z" />
    <glyph glyph-name="nine" unicode="9" horiz-adv-x="1051" 
d="M516 224.5c-62 -45.667 -128.333 -68.499 -199 -68.499c-51.333 0 -96.333 11.833 -135 35.5s-68.834 58.5 -90.501 104.5s-32.5 101.667 -32.5 167c0 105.333 27.333 205.666 82 300.999s127.667 172 219 230s189 87 293 87c102.667 0 178.5 -30.5 227.5 -91.5
s73.5 -152.5 73.5 -274.5c0 -187.333 -53.667 -360.666 -161 -519.999s-238 -289.833 -392 -391.5s-296 -164.5 -426 -188.5l-12 41c128 30 254.333 98.833 379 206.5s226.834 241.667 306.501 402s119.5 329.5 119.5 507.5c0 100 -12.333 169.667 -37 209
s-61.334 59 -110.001 59c-72.667 0 -137 -33.333 -193 -100s-99.333 -148.5 -130 -245.5s-46 -187.833 -46 -272.5c0 -138 44.333 -207 133 -207c44.667 0 88.334 19.5 131.001 58.5s79.667 102.833 111 191.5l32 -12c-33.333 -106.667 -81 -182.834 -143 -228.501z" />
    <glyph glyph-name="colon" unicode=":" horiz-adv-x="569" 
d="M54 152.5c14.667 24.333 33.833 43.835 57.5 58.502s48.167 22 73.5 22c30.667 0 55.667 -10.167 75 -30.5s29 -45.833 29 -76.5c0 -26.667 -7.16699 -51.834 -21.5 -75.501s-33.5 -42.834 -57.5 -57.501s-49 -22 -75 -22c-30 0 -54.667 10 -74 30s-29 45 -29 75
c0 26.667 7.33301 52.167 22 76.5zM258.999 1000.5c14.667 24.333 33.833 43.835 57.5 58.502s48.167 22 73.5 22c30.667 0 55.667 -10.167 75 -30.5s29 -45.833 29 -76.5c0 -26.667 -7.16699 -51.834 -21.5 -75.501s-33.5 -42.834 -57.5 -57.501s-49 -22 -75 -22
c-30 0 -54.667 10 -74 30s-29 45 -29 75c0 26.667 7.33301 52.167 22 76.5z" />
    <glyph glyph-name="semicolon" unicode=";" horiz-adv-x="588" 
d="M261 1000.5c14.667 24.333 33.833 43.835 57.5 58.502s48.167 22 73.5 22c30.667 0 55.667 -10.167 75 -30.5s29 -45.833 29 -76.5c0 -26.667 -7.16699 -51.834 -21.5 -75.501s-33.5 -42.834 -57.5 -57.501s-49 -22 -75 -22c-30 0 -54.667 10 -74 30s-29 45 -29 75
c0 26.667 7.33301 52.167 22 76.5zM147.999 -116.998c38 46.667 59.001 93.3311 63.001 139.998c-39.333 -34.667 -75 -52 -107 -52c-24 0 -42.833 6.5 -56.5 19.5s-20.5 30.5 -20.5 52.5c0 28.667 9.16699 57.834 27.5 87.501s42.166 54.167 71.499 73.5s59 29 89 29
s52.5 -11.667 67.5 -35s22.5 -51.666 22.5 -84.999c0 -47.333 -12 -95 -36 -143s-58.667 -93.167 -104 -135.5s-99 -78.5 -161 -108.5l-10 28c64.667 39.333 116 82.333 154 129z" />
    <glyph glyph-name="less" unicode="&#x3c;" horiz-adv-x="1233" 
d="M258 719l678 -357l-33 -65l-799 430l1131 465l20 -59z" />
    <glyph glyph-name="equal" unicode="=" horiz-adv-x="1358" 
d="M1270 901l-19 -61h-1026l19 61h1026zM1188 614l-19 -61h-1026l19 61h1026z" />
    <glyph glyph-name="greater" unicode="&#x3e;" horiz-adv-x="1233" 
d="M1049 770l-758 406l33 59l878 -473l-1075 -445l-21 60z" />
    <glyph glyph-name="question" unicode="?" horiz-adv-x="897" 
d="M504 1540.5c-43.333 -17.667 -69.998 -42.502 -79.998 -74.502c12.667 -3.33301 24.334 -12.833 35.001 -28.5s16 -33.5 16 -53.5c0 -29.333 -10.333 -53.333 -31 -72s-46.334 -28 -77.001 -28c-27.333 0 -47.833 7.66699 -61.5 23s-20.5 36.333 -20.5 63
c0 44 18.5 83.667 55.5 119s85.333 63 145 83s121.167 30 184.5 30c91.333 0 164.666 -21 219.999 -63s83 -101.667 83 -179c0 -43.333 -10.5 -86.666 -31.5 -129.999s-56.167 -90.5 -105.5 -141.5s-116.333 -109.5 -201 -175.5l-156 -116
c-66.667 -49.333 -112.334 -90.666 -137.001 -123.999s-37 -70.666 -37 -111.999s11.833 -75.166 35.5 -101.499s60.5 -39.5 110.5 -39.5c40 0 79.167 8.16699 117.5 24.5s64.5 38.166 78.5 65.499c-12.667 1.33301 -24.834 9.33301 -36.501 24s-17.167 30.667 -16.5 48
c0 21.333 8.66699 40.666 26 57.999s39.333 26 66 26c20.667 0 37.5 -5.83301 50.5 -17.5s19.5 -29.834 19.5 -54.501c0 -40.667 -17.667 -77 -53 -109s-79.833 -56.667 -133.5 -74s-106.167 -26 -157.5 -26c-72 0 -129.333 17.167 -172 51.5s-64 83.5 -64 147.5
c0 70.667 24.667 132.834 74 186.501s107.333 105.167 174 154.5l133 99c68 52 120.5 95.5 157.5 130.5s64.333 69.667 82 104s26.5 72.833 26.5 115.5c0 58.667 -15.5 105.5 -46.5 140.5s-77.5 52.5 -139.5 52.5c-45.333 0 -89.666 -8.83301 -132.999 -26.5z
M240.002 152.498c14.667 24.333 33.833 43.835 57.5 58.502s48.167 22 73.5 22c30.667 0 55.667 -10.167 75 -30.5s29 -45.833 29 -76.5c0 -26.667 -7.16699 -51.834 -21.5 -75.501s-33.5 -42.834 -57.5 -57.501s-49 -22 -75 -22c-30 0 -54.667 10 -74 30s-29 45 -29 75
c0 26.667 7.33301 52.167 22 76.5z" />
    <glyph glyph-name="at" unicode="@" horiz-adv-x="1737" 
d="M958.5 -297.5c-75.667 -21.667 -157.503 -32.499 -245.503 -32.499c-130.667 0 -244.834 22.167 -342.501 66.5s-174 113 -229 206s-82.5 209.833 -82.5 350.5c0 182 44.5 356 133.5 522s209.333 299.667 361 401s316.834 152 495.501 152
c123.333 0 232.833 -19.833 328.5 -59.5s171.334 -101.5 227.001 -185.5s83.5 -190 83.5 -318c0 -144.667 -31.667 -274.334 -95 -389.001s-141.5 -203.834 -234.5 -267.501s-181.167 -95.5 -264.5 -95.5c-98.667 0 -148 44.333 -148 133c0 32 6.33301 70 19 114
c-41.333 -84.667 -85.666 -147 -132.999 -187s-104 -60 -170 -60c-73.333 0 -126.833 22.5 -160.5 67.5s-50.5 105.167 -50.5 180.5c0 101.333 26.667 205 80 311s121.5 193.667 204.5 263s165.5 104 247.5 104c41.333 0 73.333 -10.5 96 -31.5s35.667 -54.833 39 -101.5
l29 104c78 0 139.333 9.66699 184 29l-217 -752c-8.66699 -28 -13 -51.333 -13 -70c0 -19.333 4.83301 -33 14.5 -41s24.834 -12 45.501 -12c52 0 117 29.167 195 87.5s146 140.833 204 247.5s87 229.334 87 368.001c0 121.333 -26.5 221 -79.5 299s-124.167 135 -213.5 171
s-190.333 54 -303 54c-164.667 0 -320.167 -47.5 -466.5 -142.5s-263.666 -222 -351.999 -381s-132.5 -329.167 -132.5 -510.5c0 -136 26 -248 78 -336s124 -152.333 216 -193s199 -61 321 -61c158 0 298.667 37 422 111l14 -27
c-52.667 -37.333 -116.834 -66.833 -192.501 -88.5zM990.997 932.001c-63.333 0 -123.166 -31.1689 -179.499 -93.502s-101.5 -141.666 -135.5 -237.999s-51 -192.166 -51 -287.499c0 -132 35.333 -198 106 -198c51.333 0 101.166 35.333 149.499 106s99.5 179 153.5 325
l68 242c-1.33301 96 -38.333 144 -111 144z" />
    <glyph glyph-name="A" unicode="A" horiz-adv-x="1288" 
d="M1066.5 74c19.667 -20.667 41.833 -31.666 66.5 -32.999l-9 -41c-54.667 4 -129 6 -223 6c-110 0 -192 -2 -246 -6l9 41c46.667 2 82.667 7.83301 108 17.5s43.5 26.334 54.5 50.001s15.5 58.5 13.5 104.5l-19 336h-503l-154 -217c-64 -90.667 -96 -158.667 -96 -204
c0 -56 50.333 -85 151 -87l-10 -41c-76 4 -154 6 -234 6c-59.333 0 -110.333 -2 -153 -6l10 41c62.667 13.333 131 72.666 205 177.999l883 1241h30l82 -1288c3.33301 -44.667 14.833 -77.334 34.5 -98.001zM784.999 1209l-438 -619h472z" />
    <glyph glyph-name="B" unicode="B" horiz-adv-x="1294" 
d="M555 1444c30.667 0 77.668 0.666992 141.001 2s112.666 2 147.999 2c126.667 0 222.5 -23.333 287.5 -70s97.5 -110.667 97.5 -192c0 -66.667 -19.667 -127.834 -59 -183.501s-90.666 -103.167 -153.999 -142.5s-132.333 -70.666 -207 -93.999
c224 -36.667 336 -148 336 -334c0 -92.667 -29.333 -171.667 -88 -237s-134.667 -114.166 -228 -146.499s-191.333 -48.5 -294 -48.5c-32.667 0 -87 1 -163 3s-139.333 3 -190 3c-108.667 0 -192 -2 -250 -6l9 41c49.333 2 86.166 7.33301 110.499 16s43.833 24.667 58.5 48
s28.667 60.666 42 111.999l270 1016c11.333 45.333 17 78 17 98c0 27.333 -10 47 -30 59s-56 18.333 -108 19l10 41c56 -4 137.333 -6 244 -6zM623.001 770c79.333 0 149.668 18.5 211.001 55.5s108.666 86.167 141.999 147.5s50 127.333 50 198
c0 81.333 -17.5 141.333 -52.5 180s-91.167 58 -168.5 58c-41.333 0 -73.5 -4 -96.5 -12s-41.167 -22 -54.5 -42s-25.333 -50.333 -36 -91l-130 -494h135zM323.003 117c0 -25.333 9 -43.333 27 -54s50 -16 96 -16c174 0 299.833 35 377.5 105s116.5 173.667 116.5 311
c0 181.333 -97.667 272 -293 272h-168l-137 -518c-12.667 -48.667 -19 -82 -19 -100z" />
    <glyph glyph-name="C" unicode="C" horiz-adv-x="1372" 
d="M1327 979h-44.999c8 53.333 12 100 12 140c0 64 -10.667 118.333 -32 163c-25.333 50.667 -62.166 90 -110.499 118s-101.166 42 -158.499 42c-113.333 0 -222.833 -53.333 -328.5 -160s-191.334 -240.834 -257.001 -402.501s-98.5 -318.167 -98.5 -469.5
c0 -132 25.833 -232 77.5 -300s123.5 -102 215.5 -102c60 0 123.5 14 190.5 42s125.167 67.333 174.5 118c34.667 35.333 65.167 76.666 91.5 123.999s57.166 114 92.499 200h45c-62 -226.667 -102.333 -390.667 -121 -492h-45c4 29.333 6 52.666 6 69.999
c0 34.667 -8 52 -24 52c-10.667 0 -25 -6 -43 -18c-48.667 -31.333 -89.5 -55.666 -122.5 -72.999s-71.167 -31.666 -114.5 -42.999s-93.333 -17 -150 -17c-152 0 -269.667 41 -353 123s-125 201.667 -125 359s39.333 315.833 118 475.5s186.5 291.334 323.5 395.001
s287.5 155.5 451.5 155.5c55.333 0 101.666 -6 138.999 -18s67.5 -26.833 90.5 -44.5s48.5 -41.167 76.5 -70.5c12 -12 22.333 -18 31 -18c24 0 51 40.667 81 122h43c-45.333 -118 -89 -275 -131 -471z" />
    <glyph glyph-name="D" unicode="D" horiz-adv-x="1485" 
d="M505 1443l49.9971 0.999023c188 4 291 6 309 6c192 0 336.333 -38.333 433 -115s145 -189.334 145 -338.001c0 -170.667 -42.167 -332.667 -126.5 -486s-200.666 -276.833 -348.999 -370.5s-313.5 -140.5 -495.5 -140.5c-18.667 0 -63.167 1 -133.5 3s-121.5 3 -153.5 3
c-110 0 -191.667 -2 -245 -6l6 41c46.667 2 81.834 7.33301 105.501 16s42.834 24.834 57.501 48.501s28.667 60.834 42 111.501l268 1016c12.667 49.333 19 83 19 101c0 26.667 -10 45.5 -30 56.5s-56 17.167 -108 18.5l6 41c73.333 -4.66699 140 -7 200 -7z
M320.997 111.999c0 -26 9.33496 -44.999 28.002 -56.999s51 -18 97 -18c169.333 0 314.166 46.167 434.499 138.5s211.166 215.333 272.499 369s92 321.834 92 504.501c0 123.333 -34.667 214.833 -104 274.5s-180.666 89.5 -333.999 89.5
c-42.667 0 -76 -4.83301 -100 -14.5s-43.333 -26.834 -58 -51.501s-28.334 -61.334 -41.001 -110.001l-268 -1024c-12.667 -47.333 -19 -81 -19 -101z" />
    <glyph glyph-name="E" unicode="E" horiz-adv-x="1249" 
d="M907 1444c191.333 0 327.339 2.00293 408.006 6.00293c-36 -98.667 -62 -179.334 -78 -242.001c-15.333 -53.333 -25 -95.666 -29 -126.999h-47c12 73.333 18 128.333 18 165c0 39.333 -6.33301 70.166 -19 92.499s-33.834 38.666 -63.501 48.999
s-70.834 15.5 -123.501 15.5h-150c-48.667 0 -85.167 -4 -109.5 -12s-43.833 -23.5 -58.5 -46.5s-29 -60.167 -43 -111.5l-129 -483h135c68 0 119 20.333 153 61s59.333 82.334 76 125.001s28 70.667 34 84h47c-28 -86 -48.167 -153 -60.5 -201s-20.166 -78 -23.499 -90
c-18 -64 -40 -161 -66 -291h-47c1.33301 9.33301 4.33301 29 9 59s7 56.667 7 80c0 42 -10.333 74.5 -31 97.5s-57.334 34.5 -110.001 34.5h-134l-132 -492c-12 -42.667 -18 -75.667 -18 -99c0 -20 4.66699 -35 14 -45s23.666 -16.833 42.999 -20.5s46.666 -5.5 81.999 -5.5
h149c85.333 0 153.166 11.333 203.499 34s92.166 59 125.499 109s67.666 123.333 102.999 220h48c-13.333 -33.333 -28.666 -82.666 -45.999 -147.999c-20 -73.333 -38.333 -160.666 -55 -261.999c-92.667 4 -249 6 -469 6c-262 0 -459.333 -2 -592 -6l11 41
c49.333 2 86 7.33301 110 16s43.333 24.667 58 48s29 60.666 43 111.999l272 1016c12 43.333 18 76.666 18 99.999c0 20 -4.5 35.167 -13.5 45.5s-23 17.666 -42 21.999s-46.167 7.16602 -81.5 8.49902l10 41c134 -4 332 -6 594 -6z" />
    <glyph glyph-name="F" unicode="F" horiz-adv-x="1159" 
d="M907 1444c191.333 0 327.333 2.00195 408 6.00195c-35.333 -99.333 -63.333 -186.666 -84 -261.999c-14.667 -50.667 -27.667 -106.667 -39 -168h-47c15.333 90.667 23 158.667 23 204c0 44.667 -7.16699 79.834 -21.5 105.501s-38.5 44.334 -72.5 56.001
s-81.333 17.5 -142 17.5h-109c-48.667 0 -85.167 -4 -109.5 -12s-43.833 -23.5 -58.5 -46.5s-29 -60.167 -43 -111.5l-135 -504h150c69.333 0 121 20.833 155 62.5s59.167 83.667 75.5 126l31.5 81.5h47c-27.333 -83.333 -47.333 -149.166 -60 -197.499l-24 -92.5
c-28.667 -120.667 -50.667 -217.667 -66 -291h-47c2 12 5.33301 33.167 10 63.5s7 56.5 7 78.5c0 40.667 -10.333 72.167 -31 94.5s-57 33.5 -109 33.5h-150l-126 -471c-10.667 -40.667 -16 -71 -16 -91c0 -22.667 5.66699 -39.834 17 -51.501s29.333 -19.834 54 -24.501
s59.667 -7.66699 105 -9l-11 -41c-70.667 4 -171 6 -301 6c-115.333 0 -202 -2 -260 -6l11 41c49.333 2 86 7.33301 110 16s43.333 24.667 58 48s29 60.666 43 111.999l272 1016c12 43.333 18 76.666 18 99.999c0 20 -4.5 35.167 -13.5 45.5s-23 17.666 -42 21.999
s-46.167 7.16602 -81.5 8.49902l10 41c134 -4 332 -6 594 -6z" />
    <glyph glyph-name="G" unicode="G" horiz-adv-x="1444" 
d="M1331 1133c0 62.667 -9.3291 112.335 -27.9961 149.002c-28.667 50 -71.334 89.167 -128.001 117.5s-119.334 42.5 -188.001 42.5c-141.333 0 -264.5 -59.333 -369.5 -178s-185.333 -262 -241 -430s-83.5 -321.667 -83.5 -461c0 -122.667 29 -213.5 87 -272.5
s147 -88.5 267 -88.5c44.667 0 87.334 6.33301 128.001 19s76 27.667 106 45c27.333 16 47.833 34.333 61.5 55s24.5 45.334 32.5 74.001l47 180c12 45.333 18 80.666 18 105.999c0 24 -5.66699 42.167 -17 54.5s-28.833 21 -52.5 26s-57.834 8.5 -102.501 10.5l11 41
c66 -4.66699 161.333 -7 286 -7c97.333 0 169 2.33301 215 7l-10 -41c-32.667 -2.66699 -57 -8.16699 -73 -16.5s-29.5 -23.833 -40.5 -46.5s-23.5 -60.334 -37.5 -113.001l-109 -406h-41c4 21.333 6 39.333 6 54c0 42 -10.333 63 -31 63
c-8.66699 0 -17.834 -2.16699 -27.501 -6.5s-26.167 -13.833 -49.5 -28.5c-57.333 -36.667 -113.833 -64.334 -169.5 -83.001s-115.5 -28 -179.5 -28c-166.667 0 -294.334 40.667 -383.001 122s-133 197 -133 347c0 158 38.667 317.833 116 479.5
s184.5 295.334 321.5 401.001s290.167 158.5 459.5 158.5c56.667 0 105.334 -5.66699 146.001 -17s75.167 -26.333 103.5 -45s57.166 -42.334 86.499 -71.001c12.667 -12.667 24.667 -19 36 -19c26 0 53 41 81 123h45c-45.333 -118 -89 -275 -131 -471h-45
c6.66699 58.667 10 110 10 154z" />
    <glyph glyph-name="H" unicode="H" horiz-adv-x="1546" 
d="M1415 1444c116.667 0 204.664 1.99414 263.997 5.99414l-10 -41c-50 -2 -87.167 -7.33301 -111.5 -16s-43.666 -24.667 -57.999 -48s-28.166 -60.666 -41.499 -111.999l-270 -1016c-12 -46.667 -18 -80 -18 -100s4.5 -35.167 13.5 -45.5s23.167 -17.666 42.5 -21.999
s47 -7.16602 83 -8.49902l-9 -41c-57.333 4 -144.666 6 -261.999 6c-109.333 0 -196 -2 -260 -6l8 41c49.333 2 86.333 7.33301 111 16s44.167 24.667 58.5 48s28.166 60.666 41.499 111.999l131 492h-657l-131 -492c-11.333 -44 -17 -77 -17 -99
c0 -20 4.5 -35.333 13.5 -46s23.167 -18.167 42.5 -22.5s46.666 -7.16602 81.999 -8.49902l-8 -41c-64 4 -150.667 6 -260 6c-114 0 -201 -2 -261 -6l11 41c48 2 84 7.33301 108 16s43.167 24.834 57.5 48.501s28.166 60.834 41.499 111.501l270 1016
c11.333 43.333 17 76 17 98c0 20.667 -4.66699 36.334 -14 47.001s-23.5 18.167 -42.5 22.5s-46.167 7.16602 -81.5 8.49902l10 41c56 -4 142.667 -6 260 -6c109.333 0 196.666 2 261.999 6l-10 -41c-50 -2 -87.167 -7.33301 -111.5 -16s-43.666 -24.667 -57.999 -48
s-28.166 -60.666 -41.499 -111.999l-128 -483h657l129 483c12 42 18 74.667 18 98c0 20.667 -4.66699 36.334 -14 47.001s-23.666 18.167 -42.999 22.5s-46.666 7.16602 -81.999 8.49902l10 41c62 -4 148 -6 258 -6z" />
    <glyph glyph-name="I" unicode="I" 
d="M323 118c0 -20 4.5 -35.3369 13.5 -46.0039s23.167 -18.167 42.5 -22.5s46.666 -7.16602 81.999 -8.49902l-8 -41c-64 4 -150.667 6 -260 6c-114 0 -201 -2 -261 -6l11 41c48 2 84 7.33301 108 16s43.167 24.834 57.5 48.501s28.166 60.834 41.499 111.501l270 1016
c11.333 43.333 17 76 17 98c0 20.667 -4.66699 36.334 -14 47.001s-23.5 18.167 -42.5 22.5s-46.167 7.16602 -81.5 8.49902l10 41c56 -4 142.667 -6 260 -6c110 0 197.333 2 262 6l-10 -41c-50 -2 -87.167 -7.33301 -111.5 -16s-43.666 -24.667 -57.999 -48
s-28.166 -60.666 -41.499 -111.999l-270 -1016c-11.333 -44 -17 -77 -17 -99z" />
    <glyph glyph-name="J" unicode="J" horiz-adv-x="1303" 
d="M918.5 984.5c56.333 70.333 117.501 133.831 183.501 190.498s144.333 117.667 235 183c-158 -82 -293 -123 -405 -123c-66 0 -132.833 12.833 -200.5 38.5s-121.167 44.834 -160.5 57.501s-87 19 -143 19c-45.333 0 -79.333 -12 -102 -36s-33 -57.333 -31 -100
c0.666992 -40 14 -72.5 40 -97.5s63 -42.167 111 -51.5l-6 -41c-62 10.667 -114.5 35 -157.5 73s-65.5 93 -67.5 165c-2 48.667 6.33301 92 25 130s46.334 67.667 83.001 89s80 32 130 32s94.667 -9.16699 134 -27.5s98.333 -54.833 177 -109.5s154.334 -82 227.001 -82
c44 0 84.833 3.66699 122.5 11s73.334 17 107.001 29s78.167 29.333 133.5 52c51.333 80 93.666 120 126.999 120c9.33301 0 18.666 -3.66699 27.999 -11c8.66699 -7.33301 13 -15.666 13 -24.999c0 -33.333 -50 -68.666 -150 -105.999
c-191.333 -128 -333.333 -332.667 -426 -614h203l-6 -41h-210l-22 -80l-127 -496c-38.667 -152.667 -98.5 -277.167 -179.5 -373.5s-182.167 -144.5 -303.5 -144.5c-64 0 -114.833 10 -152.5 30s-56.5 49 -56.5 87c0 19.333 4.83301 37.833 14.5 55.5
s23.167 32.167 40.5 43.5s36.666 17 57.999 17c24.667 0 45.167 -8.16699 61.5 -24.5s24.5 -36.5 24.5 -60.5c0 -22.667 -7.66699 -43.167 -23 -61.5s-35 -32.833 -59 -43.5c20 -6.66699 44 -10 72 -10c88 0 153.5 43.167 196.5 129.5s78.167 184.666 105.5 294.999
l56 224.5l61 240c15.333 60.667 34.333 118 57 172h-272l7 41h283c39.333 86 87.166 164.167 143.499 234.5z" />
    <glyph glyph-name="K" unicode="K" horiz-adv-x="1382" 
d="M791 519c0 60.667 -6 106.169 -18 136.502s-31 56.5 -57 78.5c-48 -12.667 -87.333 -19 -118 -19c-42 0 -63 13.667 -63 41s20.333 41 61 41c28 0 69.667 -7 125 -21c98.667 12 171.667 51.667 219 119s93 165 137 293s86.333 209.333 127 244
c40.667 31.333 81.667 47 123 47c42 0 72.667 -10.167 92 -30.5s29 -46.833 29 -79.5c0 -18 -4.16699 -38.167 -12.5 -60.5s-21.333 -41.5 -39 -57.5s-40.167 -24 -67.5 -24c-26.667 0 -46.667 8 -60 24s-20 35.333 -20 58c0 19.333 6.33301 40.833 19 64.5
s28.334 44.5 47.001 62.5h-6c-27.333 -1.33301 -52 -11 -74 -29c-35.333 -32 -74.666 -109.5 -117.999 -232.5s-89 -220.333 -137 -292s-122.667 -113.5 -224 -125.5c49.333 -11.333 88.666 -25.5 117.999 -42.5s52.666 -45.833 69.999 -86.5s26 -98.334 26 -173.001l-1 -35
l-8 -232l-1 -24c0 -26.667 4.33301 -46.667 13 -60s25 -20 49 -20c34.667 0 63.667 12.667 87 38s45 66 65 122l34 104h41l-53 -158c-25.333 -74.667 -58.5 -129.834 -99.5 -165.501s-91.167 -53.5 -150.5 -53.5c-115.333 0 -173 67.667 -173 203c0 15.333 0.333008 27 1 35
l14 231c2 28.667 3 55 3 79zM323 118.002c0 -20 4.50098 -35.3369 13.501 -46.0039s23.167 -18.167 42.5 -22.5s46.666 -7.16602 81.999 -8.49902l-8 -41c-64 4 -150.667 6 -260 6c-114 0 -201 -2 -261 -6l11 41c48 2 84 7.33301 108 16s43.167 24.834 57.5 48.501
s28.166 60.834 41.499 111.501l270 1016c11.333 43.333 17 76 17 98c0 20.667 -4.66699 36.334 -14 47.001s-23.5 18.167 -42.5 22.5s-46.167 7.16602 -81.5 8.49902l10 41c56 -4 142.667 -6 260 -6c109.333 0 196.666 2 261.999 6l-10 -41
c-50 -2 -87.167 -7.33301 -111.5 -16s-43.666 -24.667 -57.999 -48s-28.166 -60.666 -41.499 -111.999l-270 -1016c-11.333 -44 -17 -77 -17 -99z" />
    <glyph glyph-name="L" unicode="L" horiz-adv-x="1200" 
d="M1044 262c-20 -73.333 -38.3301 -160.664 -54.9971 -261.997c-92.667 4 -249 6 -469 6c-262 0 -459.333 -2 -592 -6l11 41c49.333 2 86 7.33301 110 16s43.333 24.667 58 48s29 60.666 43 111.999l272 1016c12 43.333 18 76.666 18 99.999c0 20 -4.5 35.167 -13.5 45.5
s-23 17.666 -42 21.999s-46.167 7.16602 -81.5 8.49902l10 41c58 -4 145.333 -6 262 -6c110 0 197 2 261 6l-11 -41c-50 -2 -87.167 -7.33301 -111.5 -16s-43.833 -24.667 -58.5 -48s-29 -60.666 -43 -111.999l-272 -1016c-12 -42.667 -18 -75.667 -18 -99
c0 -20 4.66699 -35 14 -45s23.666 -16.833 42.999 -20.5s46.666 -5.5 81.999 -5.5h149c85.333 0 153.333 12 204 36s93.167 62.5 127.5 115.5s70.166 130.167 107.499 231.5h47c-8.66699 -22.667 -26 -78.667 -52 -168z" />
    <glyph glyph-name="M" unicode="M" horiz-adv-x="1778" 
d="M1911 1450l-10.001 -41.002c-50 -2 -87.167 -7.33301 -111.5 -16s-43.666 -24.667 -57.999 -48s-28.166 -60.666 -41.499 -111.999l-271 -1016c-11.333 -43.333 -17 -76 -17 -98c0 -20.667 4.66699 -36.334 14 -47.001s23.5 -18.167 42.5 -22.5
s46.167 -7.16602 81.5 -8.49902l-8 -41c-64 4 -148.667 6 -254 6c-120 0 -208.667 -2 -266 -6l8 41c50 2 87.167 7.33301 111.5 16s43.666 24.667 57.999 48s28.166 60.666 41.499 111.999l297 1104l-850 -1331h-45l-139 1347l-291 -1099c-12 -46.667 -18 -81 -18 -103
c0 -33.333 11.5 -56.833 34.5 -70.5s63.167 -21.5 120.5 -23.5l-10 -41c-46.667 4 -115.667 6 -207 6c-81.333 0 -145.666 -2 -192.999 -6l11 41c48 2 84.833 8.83301 110.5 20.5s46 30.834 61 57.501s29.5 66.334 43.5 119.001l266 995c11.333 43.333 17 76 17 98
c0 20.667 -4.66699 36.334 -14 47.001s-23.5 18.167 -42.5 22.5s-46.167 7.16602 -81.5 8.49902l10 41c43.333 -4 104.333 -6 183 -6c72.667 0 132.667 2 180 6l112 -1214l770 1208h99c104.667 0 190 2 256 6z" />
    <glyph glyph-name="N" unicode="N" horiz-adv-x="1577" 
d="M1271 1001c56 190.667 112.993 327.999 170.993 411.999c60 87.333 133.667 131 221 131c44 0 75.5 -9.66699 94.5 -29s28.5 -44.333 28.5 -75c0 -24 -4.66699 -47.333 -14 -70s-23.166 -41.334 -41.499 -56.001s-40.166 -22 -65.499 -22c-27.333 0 -47.166 8 -59.499 24
s-18.5 34.667 -18.5 56c0 22 6.33301 44.5 19 67.5s28.334 43.5 47.001 61.5h-6c-66.667 -2 -122.667 -36.667 -168 -104c-60.667 -90.667 -123.667 -249.667 -189 -477s-139.666 -537.333 -222.999 -930h-45l-467 1319c-67.333 -344 -130.666 -634 -189.999 -870
s-116 -390 -170 -462c-31.333 -40 -63.5 -71.5 -96.5 -94.5s-74.167 -34.5 -123.5 -34.5c-81.333 0 -122 35.667 -122 107c0 23.333 4.66699 46.166 14 68.499s23 40.666 41 54.999s39.667 21.5 65 21.5c28 0 48 -8 60 -24s18 -34.667 18 -56
c0 -22 -6.16699 -44.5 -18.5 -67.5s-27.833 -43.5 -46.5 -61.5h6c70.667 2.66699 127.334 38.334 170.001 107.001c52 82 105.833 230.167 161.5 444.5s116.5 492.833 182.5 835.5c2.66699 16 4 31.333 4 46c0 22.667 -4.83301 39.834 -14.5 51.501
s-25.5 19.834 -47.5 24.501s-54 7.66699 -96 9l10 41c44 -4 105 -6 183 -6c64 0 119.333 2 166 6l387 -1132c59.333 264.667 117 492.334 173 683.001z" />
    <glyph glyph-name="O" unicode="O" horiz-adv-x="1493" 
d="M220 932c72.667 158 174.17 288.666 304.503 391.999s277.166 155 440.499 155c100.667 0 187.167 -19.333 259.5 -58s127.666 -95 165.999 -169s57.5 -163 57.5 -267c0 -154 -36.667 -309.833 -110 -467.5s-175.333 -288.167 -306 -391.5s-277.334 -155 -440.001 -155
c-100.667 0 -187 19.333 -259 58s-127 94.834 -165 168.501s-57 162.167 -57 265.5c0 154.667 36.333 311 109 469zM648.503 1294.5c-95.667 -98.333 -173 -225.5 -232 -381.5s-88.5 -315 -88.5 -477c0 -88 11.833 -164.167 35.5 -228.5s56.834 -113.666 99.501 -147.999
s91.667 -51.5 147 -51.5c103.333 0 202.833 49.167 298.5 147.5s173 225.5 232 381.5s88.5 315 88.5 477c0 88 -12 164.167 -36 228.5s-57.333 113.666 -100 147.999s-91.667 51.5 -147 51.5c-102.667 0 -201.834 -49.167 -297.501 -147.5z" />
    <glyph glyph-name="P" unicode="P" horiz-adv-x="1206" 
d="M563 1444c32.667 0 82.1689 0.666992 148.502 2s116.5 2 150.5 2c134 0 235.5 -27.5 304.5 -82.5s103.5 -130.5 103.5 -226.5c0 -106.667 -32.5 -202.167 -97.5 -286.5s-156.167 -150.5 -273.5 -198.5s-251 -72 -401 -72h-61l-97 -365c-13.333 -52 -20 -86.333 -20 -103
c0 -25.333 10.167 -43.5 30.5 -54.5s57.166 -17.167 110.499 -18.5l-8 -41c-64 4 -148.667 6 -254 6c-120 0 -209 -2 -267 -6l9 41c49.333 2 86.166 7.33301 110.499 16s43.833 24.667 58.5 48s28.667 60.666 42 111.999l270 1016c12 43.333 18 76 18 98
c0 28 -10.167 47.833 -30.5 59.5s-56.5 17.834 -108.5 18.501l10 41c56 -4 140 -6 252 -6zM934.002 772.5c86 99.667 129 232.5 129 398.5c0 81.333 -20.667 141.333 -62 180s-107.333 58 -198 58c-41.333 0 -73.5 -5 -96.5 -15s-41.667 -27.333 -56 -52
s-27.833 -61 -40.5 -109l-162 -610h70c191.333 0 330 49.833 416 149.5z" />
    <glyph glyph-name="Q" unicode="Q" horiz-adv-x="1599" 
d="M1398.5 71c19 -20.667 28.502 -49.0029 28.502 -85.0029c0 -60 -26.5 -118.833 -79.5 -176.5s-120.333 -104.5 -202 -140.5s-162.5 -54 -242.5 -54c-66.667 0 -128.834 13 -186.501 39s-109.334 58.167 -155.001 96.5s-95.167 85.833 -148.5 142.5
c-114 -40.667 -211.333 -61 -292 -61c-67.333 0 -119.666 13.5 -156.999 40.5s-56 64.167 -56 111.5c0 35.333 10.833 66.833 32.5 94.5s51.5 49.167 89.5 64.5s80.667 23 128 23c48 0 93.333 -8 136 -24s81.5 -36 116.5 -60s78.167 -56.333 129.5 -97
c135.333 68 263.166 159.333 383.499 274s217.666 240.667 291.999 378s111.5 272.333 111.5 405c0 80 -13.5 150 -40.5 210s-66.833 106.667 -119.5 140s-116 50 -190 50c-100.667 0 -190.667 -29.333 -270 -88s-140.833 -134.667 -184.5 -228s-65.5 -189.333 -65.5 -288
c0 -98 21.167 -171.333 63.5 -220s98.833 -73 169.5 -73c60 0 114.667 16.333 164 49s88 74.167 116 124.5s42 100.166 42 149.499c0 38 -5 65.333 -15 82c-14 -28 -35.167 -50.333 -63.5 -67s-57.5 -25 -87.5 -25s-53.5 8.83301 -70.5 26.5s-25.5 40.834 -25.5 69.501
c0 36 13.333 65.833 40 89.5s60.334 35.5 101.001 35.5c48.667 0 87.834 -18.333 117.501 -55s44.5 -85 44.5 -145c0 -67.333 -18.833 -130.166 -56.5 -188.499s-90.167 -105 -157.5 -140s-143 -52.5 -227 -52.5c-76.667 0 -142.334 15 -197.001 45s-96.167 72 -124.5 126
s-42.5 116.333 -42.5 187c0 116.667 36.5 222.667 109.5 318s168.333 170 286 224s240.5 81 368.5 81c108 0 201.833 -17 281.5 -51s140.667 -82.833 183 -146.5s63.5 -139.167 63.5 -226.5c0 -138 -47.5 -277.667 -142.5 -419s-216.833 -270.666 -365.5 -387.999
s-302 -213.666 -460 -288.999c53.333 -42 103 -77.333 149 -106s98.5 -52.334 157.5 -71.001s123.833 -28 194.5 -28c68 0 126.5 10.5 175.5 31.5s88.833 57.167 119.5 108.5c-19.333 -8.66699 -40.333 -13 -63 -13c-31.333 0 -56 9.33301 -74 28s-27 42.334 -27 71.001
c0 20.667 5.33301 40.5 16 59.5s25.167 34.167 43.5 45.5s38.833 17 61.5 17c30 0 54.5 -10.333 73.5 -31zM389.002 -81.0029c-44 46.667 -80.168 83.167 -108.501 109.5s-58.166 48.333 -89.499 66s-63 26.5 -95 26.5c-24.667 0 -48.5 -5.33301 -71.5 -16
s-41.667 -26.167 -56 -46.5s-21.5 -43.833 -21.5 -70.5c0 -80.667 65.333 -121 196 -121c68.667 0 150.667 17.333 246 52z" />
    <glyph glyph-name="R" unicode="R" horiz-adv-x="1360" 
d="M1260 248l-8.99609 -27.001c-24 -86 -54.833 -149.167 -92.5 -189.5s-87.834 -60.5 -150.501 -60.5c-40.667 0 -75 8.16699 -103 24.5s-48.833 38.166 -62.5 65.499s-20.5 57 -20.5 89l1 18l17 229c2 22.667 3 44 3 64c0 58 -10.333 102.833 -31 134.5
s-58 54.834 -112 69.501s-132.333 22.334 -235 23.001l-125 -471c-12.667 -47.333 -19 -80.666 -19 -99.999c0 -27.333 10.167 -46.666 30.5 -57.999s56.833 -17.333 109.5 -18l-8 -41c-64 4 -148.667 6 -254 6c-120 0 -209 -2 -267 -6l9 41
c49.333 2 86.166 7.33301 110.499 16s43.833 24.667 58.5 48s28.667 60.666 42 111.999l270 1016c12 43.333 18 75.333 18 96c0 28.667 -10.333 49 -31 61s-56.667 18.333 -108 19l10 41c56 -4 140 -6 252 -6c32.667 0 82.167 0.666992 148.5 2s116.5 2 150.5 2
c134 0 235.5 -25.833 304.5 -77.5s103.5 -122.167 103.5 -211.5c0 -74 -21.833 -142.167 -65.5 -204.5s-105.834 -115 -186.501 -158s-175 -73.5 -283 -91.5c22.667 -2.66699 46.667 -6.33398 72 -11.001c53.333 -10 96.166 -23.167 128.499 -39.5s56.833 -39.5 73.5 -69.5
s25 -69.333 25 -118c0 -8.66699 -0.666992 -23 -2 -43l-16 -209c-1.33301 -18.667 -2 -32.667 -2 -42c0 -84 21.333 -126 64 -126c24 0 45.167 13.833 63.5 41.5s38.5 71.167 60.5 130.5l10 29h48zM539.004 728.999c184 0 317.333 40.167 400 120.5s124 187.5 124 321.5
c0 81.333 -20.667 141.333 -62 180s-107.333 58 -198 58c-41.333 0 -73.5 -5 -96.5 -15s-41.667 -27.333 -56 -52s-27.833 -61 -40.5 -109l-134 -504h63z" />
    <glyph glyph-name="S" unicode="S" horiz-adv-x="1135" 
d="M1059 1047l-41 -0.00488281c8 38 12 76.667 12 116c0 52 -10.167 98.833 -30.5 140.5s-52.333 74.834 -96 99.501s-98.5 37 -164.5 37c-86 0 -155.167 -22 -207.5 -66s-78.5 -108.667 -78.5 -194c0 -100.667 57.167 -204.167 171.5 -310.5s200.666 -192 258.999 -257
s87.5 -144.833 87.5 -239.5c0 -89.333 -25.667 -164.166 -77 -224.499s-116.5 -105 -195.5 -134s-160.833 -43.5 -245.5 -43.5c-72 0 -129.833 8.83301 -173.5 26.5s-82.834 40.5 -117.501 68.5c-26 20 -50.667 30 -74 30c-16 0 -29.667 -8 -41 -24
s-25.666 -44.667 -42.999 -86h-41c46 108.667 92.333 272.334 139 491.001h41c-7.33301 -40.667 -12.333 -72.167 -15 -94.5s-3.66699 -46.166 -3 -71.499c8.66699 -199.333 120 -299 334 -299c92.667 0 166 21.167 220 63.5s81 106.5 81 192.5
c0 112 -52.167 217.5 -156.5 316.5s-183.166 179.667 -236.499 242s-80 146.5 -80 252.5c0 84 21.333 156.167 64 216.5s98.5 106 167.5 137s141.833 46.5 218.5 46.5c56 0 104.5 -6.83301 145.5 -20.5s81.5 -35.5 121.5 -65.5c31.333 -24.667 53.666 -37 66.999 -37
c11.333 0 22 8.33301 32 25s22 44.334 36 83.001h41c-49.333 -120 -89.666 -259 -120.999 -417z" />
    <glyph glyph-name="T" unicode="T" horiz-adv-x="1350" 
d="M588 1421c-118.667 0 -195.332 -11.665 -229.999 -34.998c10.667 -14 19.5 -32.167 26.5 -54.5s10.5 -43.5 10.5 -63.5c0 -31.333 -8.66699 -59 -26 -83s-42.666 -36 -75.999 -36c-29.333 0 -51.666 9.16699 -66.999 27.5s-23 43.166 -23 74.499
c0 71.333 36 124.666 108 159.999c64 31.333 155.667 47 275 47c54 0 106 -2.33301 156 -7s129.167 -14.167 237.5 -28.5s201.833 -21.5 280.5 -21.5c60.667 0 111.5 3.33301 152.5 10s77.833 18.334 110.5 35.001c-33.333 34 -50 72.333 -50 115c0 30.667 8.5 57 25.5 79
s41.833 33 74.5 33c30 0 52.833 -9.33301 68.5 -28s23.5 -42 23.5 -70c0 -30 -8.83301 -57.667 -26.5 -83s-40.834 -47 -69.501 -65c-72.667 -44.667 -180.667 -67 -324 -67c-60.667 0 -130.667 4.66699 -210 14l-302 -1136c-12 -42.667 -18 -77.334 -18 -104.001
c0 -23.333 5.66699 -41.5 17 -54.5s29.166 -22.333 53.499 -28s58.166 -9.16699 101.499 -10.5l-8 -41c-72 4 -174 6 -306 6c-133.333 0 -233 -2 -299 -6l9 41c58 2 102.833 9 134.5 21s56.5 31.333 74.5 58s35 66 51 118l309 1160c-110.667 15.333 -198.667 23 -264 23z
" />
    <glyph glyph-name="U" unicode="U" horiz-adv-x="1397" 
d="M1306 1303c0 37.333 -11.667 63.668 -35 79.001s-62 24.333 -116 27l10 41c46.667 -4 115.667 -6 207 -6c82 0 146.333 2 193 6l-11 -41c-48 -2 -85.167 -9 -111.5 -21s-47.333 -31.333 -63 -58s-29.834 -66 -42.501 -118l-159 -616c-50 -190 -117 -334.667 -201 -434
c-50 -58.667 -111.667 -105.167 -185 -139.5s-151.666 -51.5 -234.999 -51.5c-146 0 -251 37 -315 111c-48 53.333 -72 122.666 -72 207.999c0 70.667 17 170.667 51 300l170 643c11.333 43.333 17 76 17 98c0 20.667 -4.5 36.334 -13.5 47.001s-23.167 18.167 -42.5 22.5
s-46.666 7.16602 -81.999 8.49902l13 41c54.667 -4 142.667 -6 264 -6c104.667 0 190 2 256 6l-12 -41c-50 -2 -87.333 -7.33301 -112 -16s-44 -24.667 -58 -48s-27.667 -60.666 -41 -111.999l-181 -678c-30 -118 -45 -210.333 -45 -277c0 -75.333 18.5 -133.333 55.5 -174
s99.167 -61 186.5 -61c143.333 0 256.166 46.5 338.499 139.5s145.5 223.167 189.5 390.5l168 639c9.33301 37.333 14 67.666 14 90.999z" />
    <glyph glyph-name="V" unicode="V" horiz-adv-x="1294" 
d="M1364 1444c60.667 0 112.669 1.99805 156.002 5.99805l-11 -41c-72.667 -15.333 -141.334 -74.666 -206.001 -177.999l-807 -1241h-31l-162 1288c-5.33301 44.667 -18.333 77.334 -39 98.001s-43 31.667 -67 33l10 41c53.333 -4 127 -6 221 -6c104 0 186 2 246 6l-10 -41
c-42.667 -2 -75.334 -5.83301 -98.001 -11.5s-40 -16.667 -52 -33s-18 -41.166 -18 -74.499c0 -8.66699 1.33301 -26.334 4 -53.001l116 -989l568 870c58.667 90 88 157.667 88 203c0 30 -12.5 51.833 -37.5 65.5s-63.167 21.167 -114.5 22.5l10 41c76 -4 154 -6 234 -6z
" />
    <glyph glyph-name="W" unicode="W" horiz-adv-x="1847" 
d="M1880 1444c61.333 0 113.33 1.99707 155.997 5.99707l-11 -41c-80.667 -16.667 -145.334 -76 -194.001 -178l-612 -1241h-33l-147 933l-556 -933h-32l-162 1288c-12 84.667 -49.667 128.334 -113 131.001l8 41c56 -4 123.667 -6 203 -6c98.667 0 172.334 2 221.001 6
l-8 -41c-42 -2.66699 -72.167 -12.167 -90.5 -28.5s-27.5 -46.5 -27.5 -90.5c0 -15.333 1 -33 3 -53l115 -977l429 726l-46 292c-13.333 84.667 -44 128.334 -92 131.001l8 41c48.667 -4 109.334 -6 182.001 -6c118 0 205.333 2 262 6l-8 -41
c-41.333 -2 -73.166 -6 -95.499 -12s-38.833 -16.333 -49.5 -31s-16 -36 -16 -64c0 -18 2 -39.667 6 -65l146 -931l400 812c45.333 90.667 68 157.334 68 200.001c0 33.333 -12.667 56.5 -38 69.5s-65.333 20.167 -120 21.5l11 41c74.667 -4 152.334 -6 233.001 -6z" />
    <glyph glyph-name="X" unicode="X" horiz-adv-x="1432" 
d="M1020.5 1172.5c72.333 104.333 140.502 182.503 204.502 234.503c62 48 124.667 72 188 72c42 0 72.833 -9.83301 92.5 -29.5s29.5 -45.167 29.5 -76.5c0 -20 -4.33301 -41.333 -13 -64s-22.167 -42 -40.5 -58s-41.166 -24 -68.499 -24c-26 0 -45.5 7.5 -58.5 22.5
s-19.5 33.5 -19.5 55.5c0 20.667 6.16699 43.167 18.5 67.5s28.166 45.5 47.499 63.5h-6c-47.333 0 -91 -14.333 -131 -43c-61.333 -44.667 -130 -120 -206 -226s-149 -234.667 -219 -386l54 -464c8 -72 24.333 -128.833 49 -170.5s62.334 -62.5 113.001 -62.5
c40 0 72.333 12.5 97 37.5s47 65.833 67 122.5l34 104h41l-53 -158c-25.333 -74.667 -58.5 -129.834 -99.5 -165.501s-91.167 -53.5 -150.5 -53.5c-89.333 0 -153.5 30 -192.5 90s-64.167 136.667 -75.5 230l-37 322c-36 -74.667 -79.333 -149.334 -130 -224.001
s-103.5 -142.334 -158.5 -203.001s-106.833 -108.334 -155.5 -143.001c-63.333 -48 -126.333 -72 -189 -72c-42 0 -72.833 9.83301 -92.5 29.5s-29.5 45.167 -29.5 76.5c0 20 4.33301 41.333 13 64s22.167 42 40.5 58s41.166 24 68.499 24
c26.667 0 46.334 -7.5 59.001 -22.5s19 -33.5 19 -55.5c0 -20 -6 -42.333 -18 -67s-27.667 -46 -47 -64h8c46 2 89 16.333 129 43c70.667 46.667 148.667 123.334 234 230.001s165.666 237.667 240.999 393l-53 453c-8.66699 72 -25.334 128.833 -50.001 170.5
s-62 62.5 -112 62.5c-40 0 -72.333 -12.5 -97 -37.5s-47 -65.833 -67 -122.5l-35 -104h-41l53 158c26 74.667 59.5 129.834 100.5 165.501s90.833 53.5 149.5 53.5c89.333 0 153.5 -29.833 192.5 -89.5s64.5 -136.5 76.5 -230.5l37 -316
c53.333 115.333 116.166 225.166 188.499 329.499z" />
    <glyph glyph-name="Y" unicode="Y" horiz-adv-x="1372" 
d="M312 1402c16 25.333 36.3281 44.499 60.9951 57.499s56 19.5 94 19.5c72 0 130.167 -29.333 174.5 -88s78.833 -140.5 103.5 -245.5s46 -241.167 64 -408.5c98.667 248 226.334 451 383.001 609c88.667 88.667 169.334 133 242.001 133c40 0 69 -10.5 87 -31.5
s27 -47.167 27 -78.5c0 -20 -4.33301 -41 -13 -63s-22.167 -40.667 -40.5 -56s-40.833 -23 -67.5 -23c-51.333 0 -77 27 -77 81c0 22 6 44.333 18 67s27.667 43 47 61h-6c-36.667 -2 -74.334 -17 -113.001 -45c-72 -52 -149.167 -135.833 -231.5 -251.5
s-161.166 -264.834 -236.499 -447.501l-119 -475c-11.333 -44 -17 -77 -17 -99c0 -20 4.5 -35.333 13.5 -46s23 -18.167 42 -22.5s46.167 -7.16602 81.5 -8.49902l-10 -41c-61.333 4 -146 6 -254 6c-120 0 -209.333 -2 -268 -6l10 41c49.333 2 86.333 7.33301 111 16
s44.334 24.834 59.001 48.501s28.334 60.834 41.001 111.501l120 478c-48.667 447.333 -128.334 671 -239.001 671c-23.333 0 -42.666 -7.33301 -57.999 -22s-28.666 -39.334 -39.999 -74.001l-57 -168h-45l67 198c14.667 42.667 30 76.667 46 102z" />
    <glyph glyph-name="Z" unicode="Z" horiz-adv-x="1335" 
d="M915 1200c-58 0 -116.165 12.833 -174.498 38.5s-104.666 44.834 -138.999 57.501s-75.833 19 -124.5 19c-45.333 0 -79.833 -11.833 -103.5 -35.5s-35.5 -56.834 -35.5 -99.501c0 -80 49 -130 147 -150l-8 -41c-61.333 11.333 -112.833 35.833 -154.5 73.5
s-62.5 92.5 -62.5 164.5c0 48.667 10 92 30 130s48.833 67.833 86.5 89.5s81.5 32.5 131.5 32.5c44.667 0 84.167 -9.16699 118.5 -27.5s85.166 -54.833 152.499 -109.5s133.333 -82 198 -82c52.667 0 100 7 142 21s95.667 37.667 161 71c24.667 35.333 50.5 64 77.5 86
s51.167 33 72.5 33c10.667 0 20.667 -3.66699 30 -11c8 -6.66699 12 -15.667 12 -27c0 -18.667 -12.667 -39.5 -38 -62.5s-63.666 -44.167 -114.999 -63.5l-567 -557h311l-16 -41h-336l-580 -570c125.333 74 243.333 111 354 111c58 0 116.333 -12.833 175 -38.5
s105.167 -44.834 139.5 -57.501s75.833 -19 124.5 -19c45.333 0 79.833 11.833 103.5 35.5s35.5 56.834 35.5 99.501c0 80 -49.333 130 -148 150l9 41c61.333 -11.333 112.833 -35.833 154.5 -73.5s62.5 -92.5 62.5 -164.5c0 -48.667 -10 -92 -30 -130
s-48.833 -67.833 -86.5 -89.5s-81.5 -32.5 -131.5 -32.5c-45.333 0 -85 9.33301 -119 28s-84.833 55.167 -152.5 109.5s-133.5 81.5 -197.5 81.5c-52.667 0 -100.167 -7.16699 -142.5 -21.5s-95.833 -37.833 -160.5 -70.5c-24.667 -35.333 -50.834 -64 -78.501 -86
s-51.834 -33 -72.501 -33c-10.667 0 -20.334 3.66699 -29.001 11c-8 6.66699 -12 15.667 -12 27c0 18.667 12.667 39.5 38 62.5s63.666 44.167 114.999 63.5l576 566h-332l14 41h359l571 561c-125.333 -74 -243.666 -111 -354.999 -111z" />
    <glyph glyph-name="bracketleft" unicode="[" horiz-adv-x="614" 
d="M784 1581l-8 -39h-166l-469 -1874h166l-8 -39h-349l486 1952h348z" />
    <glyph glyph-name="backslash" unicode="\" horiz-adv-x="1008" 
d="M733 -29l-463 1508h64l467 -1508h-68z" />
    <glyph glyph-name="bracketright" unicode="]" horiz-adv-x="614" 
d="M-170 -371l8 39h166l469 1874h-166l8 39h349l-486 -1952h-348z" />
    <glyph glyph-name="asciicircum" unicode="^" horiz-adv-x="1096" 
d="M742.5 771c-65.667 44.667 -115.833 89.332 -150.5 133.999c-52 -45.333 -115 -90.166 -189 -134.499s-147.667 -81.5 -221 -111.5l-8 29c98 42 190.333 98.333 277 169s157 145.334 211 224.001h36c12 -78.667 42.5 -153.334 91.5 -224.001s111.5 -127 187.5 -169
l-25 -29c-74 30 -143.833 67.333 -209.5 112z" />
    <glyph glyph-name="underscore" unicode="_" horiz-adv-x="1524" 
d="M1126 -327h-1229l21 82h1231z" />
    <glyph glyph-name="grave" unicode="`" horiz-adv-x="457" 
d="M333 1352.5l-107.5 131.502c-43.667 52 -74.5 92.667 -92.5 122c-14 22.667 -21 44.334 -21 65.001c0 27.333 11 46.666 33 57.999c10 4 20.667 6 32 6c35.333 0 65 -21.333 89 -64c16.667 -28.667 34.667 -68.334 54 -119.001l58 -147.5
c19.333 -47.667 44.333 -102.834 75 -165.501l-27 -12c-34 48 -65 89.833 -93 125.5z" />
    <glyph glyph-name="a" unicode="a" horiz-adv-x="1071" 
d="M971 334l-50.998 -150.003c-28 -76 -63 -130.5 -105 -163.5s-85.667 -49.5 -131 -49.5c-25.333 0 -47.833 4.83301 -67.5 14.5s-34.834 22.834 -45.501 39.501c-11.333 20 -17 44 -17 72c0 20 2.33301 40.833 7 62.5s9.66699 42.334 15 62.001s8.66602 32.5 9.99902 38.5
l37 149c-65.333 -153.333 -131.833 -264.666 -199.5 -333.999s-138.5 -104 -212.5 -104c-62.667 0 -110.5 22.5 -143.5 67.5s-49.5 105.167 -49.5 180.5c0 110.667 29.5 234.334 88.5 371.001s135.333 252.667 229 348s189.5 143 287.5 143c36 0 65.833 -13.333 89.5 -40
s37.5 -64.334 41.5 -113.001l32 125c76 2 139 11.333 189 28l-256 -905c-10 -36 -15 -61.333 -15 -76c0 -34 15.333 -51 46 -51c60 0 112.333 69.667 157 209l25 76h39zM729.002 863.997c0 54.667 -9.83301 97.999 -29.5 129.999s-47.5 48 -83.5 48
c-58 0 -119.833 -45.167 -185.5 -135.5s-120.667 -202.166 -165 -335.499s-66.5 -258.666 -66.5 -375.999c0 -56.667 6 -97.167 18 -121.5s29.667 -36.5 53 -36.5c38 0 83.5 29.167 136.5 87.5s105 136.166 156 233.499s93.167 201.333 126.5 312l38 149
c1.33301 21.333 2 36.333 2 45z" />
    <glyph glyph-name="b" unicode="b" horiz-adv-x="1032" 
d="M541.5 981c63 66.667 129.499 100 199.499 100c66 0 118 -24.333 156 -73s57 -120.334 57 -215.001c0 -110.667 -24.5 -230.5 -73.5 -359.5s-119.167 -238.333 -210.5 -328s-196.666 -134.5 -315.999 -134.5c-40.667 0 -76.5 12 -107.5 36s-52.5 57.667 -64.5 101
l-174 -141l-31 15c16.667 32 29.667 71.333 39 118l359 1266c5.33301 22.667 8 41 8 55c0 28 -10.333 48.333 -31 61s-56 19 -106 19l10 43c72.667 0.666992 137.667 8 195 22s112.333 34.667 165 62l-265 -967c64 146.667 127.5 253.334 190.5 320.001zM267.499 44.5
c23.667 -17.667 51.833 -26.498 84.5 -26.498c72.667 0 141.834 45.333 207.501 136s118.5 201 158.5 331s60 247.667 60 353c0 58.667 -8.5 103 -25.5 133s-40.5 45 -70.5 45c-36.667 0 -78.834 -27.833 -126.501 -83.5s-96 -131.334 -145 -227.001
s-93.5 -201.167 -133.5 -316.5l-71 -257c17.333 -40.667 37.833 -69.834 61.5 -87.501z" />
    <glyph glyph-name="c" unicode="c" horiz-adv-x="885" 
d="M613 111.5c-42.667 -41.667 -90.501 -75.5 -143.501 -101.5s-107.167 -39 -162.5 -39c-84 0 -150 25.667 -198 77s-72 126 -72 224c0 110.667 26 229.667 78 357s125 234.5 219 321.5s201 130.5 321 130.5c40.667 0 77.834 -7 111.501 -21s60.5 -34.167 80.5 -60.5
s30 -57.166 30 -92.499c0 -26.667 -6 -52.667 -18 -78s-29.167 -46 -51.5 -62s-47.833 -24 -76.5 -24c-27.333 0 -48.166 7.66699 -62.499 23s-21.5 34.333 -21.5 57c0 38.667 15.167 72.167 45.5 100.5s66.5 46.166 108.5 53.499c-29.333 42 -75.666 63 -138.999 63
c-68.667 0 -136.834 -36.833 -204.501 -110.5s-123 -171.167 -166 -292.5s-64.5 -249 -64.5 -383c0 -66.667 12.667 -116.167 38 -148.5s60.666 -48.5 105.999 -48.5c110.667 0 213 68.333 307 205l41 -16c-28 -48 -63.333 -92.833 -106 -134.5z" />
    <glyph glyph-name="d" unicode="d" horiz-adv-x="1110" 
d="M1006 332l-47.9971 -150.001c-23.333 -76 -56.5 -130.167 -99.5 -162.5s-88.833 -48.5 -137.5 -48.5c-42 0 -74 11 -96 33s-33 53.667 -33 95c0 36.667 8.66699 89.667 26 159l27 103c-64.667 -137.333 -130 -236.666 -196 -297.999s-136.333 -92 -211 -92
c-66.667 0 -118.834 22.667 -156.501 68s-56.5 113 -56.5 203c0 112.667 29.667 235.167 89 367.5s139.666 244 240.999 335s211.666 136.5 330.999 136.5c26.667 0 51.667 -8.66699 75 -26s40 -41.333 50 -72l102 383c6 21.333 9 39.666 9 54.999
c0 27.333 -10.667 47.5 -32 60.5s-57.333 19.5 -108 19.5l13 43c72.667 0.666992 137.667 8 195 22s113 34.667 167 62l-401 -1454c-8 -27.333 -12 -50.666 -12 -69.999c0 -38 16.333 -57 49 -57c27.333 0 52.5 15.833 75.5 47.5s47.5 85.5 73.5 161.5l25 76h39z
M754.503 1008.5c-19.667 17 -41.832 25.499 -66.499 25.499c-82.667 0 -161 -44.167 -235 -132.5s-133.5 -197 -178.5 -326s-67.5 -249.167 -67.5 -360.5c0 -118.667 30 -178 90 -178c39.333 0 85.5 27.833 138.5 83.5s105.333 130.334 157 224.001
s94.5 194.167 128.5 301.5l76 284c-8.66699 35.333 -22.834 61.5 -42.501 78.5z" />
    <glyph glyph-name="e" unicode="e" horiz-adv-x="879" 
d="M601 111.5c-42.667 -41.667 -90.501 -75.5 -143.501 -101.5s-107.167 -39 -162.5 -39c-84.667 0 -150.834 24.833 -198.501 74.5s-71.5 121.167 -71.5 214.5c0 103.333 30.333 220.166 91 350.499s142.834 241.333 246.501 333s216.167 137.5 337.5 137.5
c44 0 80.333 -11.667 109 -35s43 -56.666 43 -99.999c0 -110.667 -61.667 -207 -185 -289s-265.666 -150.333 -426.999 -205c-15.333 -68 -23 -134 -23 -198c0 -131.333 47 -197 141 -197c116.667 0 222 68.333 316 205l33 -16c-28 -48 -63.333 -92.833 -106 -134.5z
M507.999 965.5c-54 -51 -104.501 -118.999 -151.501 -203.999s-82.833 -175.167 -107.5 -270.5c134.667 47.333 227.667 91.333 279 132c50.667 39.333 90 87.166 118 143.499s42 117.5 42 183.5c0 36.667 -2.66699 61.167 -8 73.5s-13.666 18.5 -24.999 18.5
c-44 0 -93 -25.5 -147 -76.5z" />
    <glyph glyph-name="f" unicode="f" horiz-adv-x="657" 
d="M427 1327.5c32.667 70.333 71.335 127.504 116.002 171.504c31.333 32 69.666 57.167 114.999 75.5s92.333 27.5 141 27.5c60.667 0 108.167 -13.667 142.5 -41s51.5 -62.333 51.5 -105c0 -23.333 -6 -45.833 -18 -67.5s-28.5 -39.334 -49.5 -53.001
s-44.167 -20.5 -69.5 -20.5c-26 0 -46.333 6 -61 18s-21.667 29 -21 51c0 32.667 10.667 61.167 32 85.5s49.666 41.833 84.999 52.5c0 12.667 -9.16699 24 -27.5 34s-40.5 15 -66.5 15c-40 0 -79.667 -17.667 -119 -53c-28 -26.667 -52 -68.834 -72 -126.501
s-38.833 -120.834 -56.5 -189.501l-37.5 -147l-1 -2h243l-13 -41h-241l-367 -1368c-72 -2 -133.333 -11.667 -184 -29l374 1397h-186l13 41h183l1 2c29.333 111.333 60.333 202.166 93 272.499z" />
    <glyph glyph-name="g" unicode="g" horiz-adv-x="920" 
d="M616.5 113.5c33 -14.333 58.6689 -32.1641 77.002 -53.4971s27.5 -48 27.5 -80c0 -53.333 -23.167 -109.5 -69.5 -168.5s-115.5 -108.833 -207.5 -149.5s-202.333 -61 -331 -61c-102.667 0 -180 13.5 -232 40.5s-78 63.167 -78 108.5c0 106.667 116.333 205.667 349 297
c-52 22 -78 57.667 -78 107c0 29.333 8.16699 57.166 24.5 83.499s47.333 55.5 93 87.5s111.5 69 197.5 111c-86 2 -153.833 21.667 -203.5 59s-74.5 92 -74.5 164c0 57.333 16 118.833 48 184.5s82.667 121.667 152 168s156.666 69.5 261.999 69.5
c38.667 0 73.667 -3.33301 105 -10c43.333 69.333 87.666 120.666 132.999 153.999c44.667 30 89 45 133 45c58.667 0 88 -24 88 -72c0 -19.333 -5.33301 -38.166 -16 -56.499s-24.667 -33.333 -42 -45s-36 -17.5 -56 -17.5c-17.333 0 -31.333 5.33301 -42 16
s-16 25.334 -16 44.001c0 27.333 9 51.666 27 72.999c-2.66699 2.66699 -6.66699 4 -12 4c-11.333 0 -28 -6.66699 -50 -20c-36 -23.333 -73.333 -68 -112 -134c102 -31.333 153 -101.333 153 -210c0 -62.667 -17 -124.167 -51 -184.5s-82 -111.333 -144 -153
s-132.333 -66.834 -211 -75.501l-103.5 -56c-47 -25.333 -82 -47.333 -105 -66s-34.5 -36.334 -34.5 -53.001c0 -25.333 41 -48.333 123 -69l149 -39c52 -14 94.5 -28.167 127.5 -42.5zM578.002 544.502c40.667 47.667 68.5 104.333 83.5 170s22.5 131.167 22.5 196.5
c0 88.667 -40.333 133 -121 133c-69.333 0 -124.333 -28.833 -165 -86.5s-69 -121.167 -85 -190.5s-24 -123 -24 -161c0 -47.333 10.5 -81.333 31.5 -102s51.5 -31 91.5 -31c70 0 125.333 23.833 166 71.5zM-24.998 -214.999c0 -48 17.999 -85.001 53.999 -111.001
s83 -39 141 -39c62.667 0 126.167 12 190.5 36s117.333 56.333 159 97s62.5 85.334 62.5 134.001c0 15.333 -6.66699 26.333 -20 33s-31.666 13 -54.999 19s-39.333 10.333 -48 13l-275 70c-139.333 -74.667 -209 -158.667 -209 -252z" />
    <glyph glyph-name="h" unicode="h" horiz-adv-x="1098" 
d="M944 182c-48 -140.667 -130.665 -211.001 -247.998 -211.001c-96 0 -144 42 -144 126c0 41.333 11.333 95 34 161l194 586c14.667 41.333 22 75.333 22 102c0 46.667 -22.333 70 -67 70c-50 0 -104 -31.5 -162 -94.5s-116.167 -151.833 -174.5 -266.5
s-112.833 -247.334 -163.5 -398.001l-75 -257h-178l405 1366c6.66699 23.333 10 42 10 56c0 27.333 -11 47.333 -33 60s-58 19 -108 19l12 43c142 2 265 30 369 84l-297 -1015c50.667 112.667 100.5 203.334 149.5 272.001s99 118.5 150 149.5s105.5 46.5 163.5 46.5
c110 0 165 -51.667 165 -155c0 -41.333 -10 -92.666 -30 -153.999l-199 -598c-10 -33.333 -15 -59.333 -15 -78c0 -32.667 16 -49 48 -49c27.333 0 53.666 15.5 78.999 46.5s51.666 85.167 78.999 162.5l26 76h39z" />
    <glyph glyph-name="i" unicode="i" horiz-adv-x="618" 
d="M406 1475.5c14.667 24.333 33.833 43.835 57.5 58.502s48.167 22 73.5 22c30.667 0 55.667 -10.167 75 -30.5s29 -45.833 29 -76.5c0 -26.667 -7.16699 -51.834 -21.5 -75.501s-33.5 -42.834 -57.5 -57.501s-49 -22 -75 -22c-30 0 -54.667 10 -74 30s-29 45 -29 75
c0 26.667 7.33301 52.167 22 76.5zM338.999 954.002c0 34.667 -14.666 52 -43.999 52c-31.333 0 -59.333 -16.5 -84 -49.5s-50.667 -86.167 -78 -159.5l-29 -76h-38l53 149c28 78 64.667 132.667 110 164s93.333 47 144 47c90.667 0 136 -42.667 136 -128
c0 -40 -11.333 -92.667 -34 -158l-219 -621c-10.667 -29.333 -16 -54.333 -16 -75c0 -34.667 16.333 -52 49 -52c28 0 54.333 15.5 79 46.5s51.667 85.167 81 162.5l28 76h39l-53 -150c-26.667 -74 -62.334 -127.667 -107.001 -161s-93 -50 -145 -50
c-95.333 0 -143 41.667 -143 125c0 42 12 96 36 162l220 621c10 30 15 55 15 75z" />
    <glyph glyph-name="j" unicode="j" horiz-adv-x="565" 
d="M400 1475.5c14.667 24.333 33.667 43.833 57 58.5s47.666 22 72.999 22c31.333 0 56.666 -10.167 75.999 -30.5s29 -45.833 29 -76.5c0 -5.33301 -0.666992 -13.333 -2 -24c-7.33301 -36 -25.666 -66.833 -54.999 -92.5s-61.666 -38.5 -96.999 -38.5
c-30 0 -54.667 10 -74 30s-29 45 -29 75c0 26.667 7.33301 52.167 22 76.5zM-86 -365c-39.333 -13.333 -79.665 -20 -120.998 -20c-30.667 0 -54.334 7.16699 -71.001 21.5s-25 33.833 -25 58.5c0 19.333 5.5 38.833 16.5 58.5s25.833 35.667 44.5 48s38.667 18.5 60 18.5
c20.667 0 37 -6 49 -18s18 -27.333 18 -46c0 -36.667 -19 -73.334 -57 -110.001c52 6 93.5 25.5 124.5 58.5s57.167 87.167 78.5 162.5l284 1012c10 34 15 60.667 15 80c0 31.333 -15 47 -45 47c-28 0 -54.333 -16 -79 -48s-50.334 -85.667 -77.001 -161l-27 -76h-39l50 149
c46.667 140.667 130.667 211 252 211c90.667 0 136 -41.667 136 -125c0 -36 -10 -89.667 -30 -161l-158 -559c-94 -337.333 -227 -537.666 -399 -600.999z" />
    <glyph glyph-name="k" unicode="k" horiz-adv-x="1055" 
d="M536 685c41.333 43.333 80.668 106.002 118.001 188.002s73.333 135.667 108 161c41.333 31.333 82.333 47 123 47c44 0 75.667 -11.167 95 -33.5s28 -51.166 26 -86.499c-3.33301 -32 -14.833 -62 -34.5 -90s-47.834 -42 -84.501 -42c-27.333 0 -47.5 8 -60.5 24
s-19.5 35.667 -19.5 59c0 19.333 6.16699 40.833 18.5 64.5s27.833 44.167 46.5 61.5h-4c-24 0 -49 -9.33301 -75 -28c-28.667 -23.333 -60.334 -72.166 -95.001 -146.499s-69.167 -133.5 -103.5 -177.5s-86.5 -73.667 -156.5 -89c86.667 -4 157.834 -22.333 213.501 -55
s83.5 -83.334 83.5 -152.001c0 -17.333 -2 -35.333 -6 -54l-41 -205c-3.33301 -18 -5 -31.333 -5 -40c0 -29.333 15.333 -44 46 -44c27.333 0 53 15.833 77 47.5s49 85.5 75 161.5l24 76h39l-49 -150c-45.333 -140.667 -126.666 -211 -243.999 -211
c-38.667 0 -70.334 11.167 -95.001 33.5s-37 55.5 -37 99.5c0 20 2.33301 40.667 7 62l37 176c6 28 9 53.333 9 76c0 34.667 -7.83301 63.167 -23.5 85.5s-41 40.166 -76 53.499s-82.167 22.666 -141.5 27.999l-171 -585h-178l405 1366c6.66699 23.333 10 42 10 56
c0 27.333 -11 47.333 -33 60s-58 19 -108 19l12 43c142 2 265 30 369 84l-299 -1019c90.667 7.33301 156.667 32.666 198 75.999z" />
    <glyph glyph-name="l" unicode="l" horiz-adv-x="567" 
d="M196 102c0 -36.667 15.999 -54.998 47.999 -54.998c27.333 0 53 15.833 77 47.5s49.333 85.5 76 161.5l27 76h39l-51 -150c-49.333 -140.667 -131.333 -211 -246 -211c-94 0 -141 44.333 -141 133c0 39.333 9.33301 90.666 28 153.999l334 1108
c6.66699 24.667 10 43.667 10 57c0 27.333 -10.667 47.166 -32 59.499s-57 18.5 -107 18.5l14 43c72.667 0.666992 137.834 8 195.501 22s114.167 34.667 169.5 62l-428 -1454c-8.66699 -30 -13 -54 -13 -72z" />
    <glyph glyph-name="m" unicode="m" horiz-adv-x="1657" 
d="M1503 182c-48 -140.667 -130.666 -210.999 -247.999 -210.999c-60.667 0 -103 18.667 -127 56c-11.333 18 -17 41.333 -17 70c0 37.333 11.333 91 34 161l194 586c14 44.667 21 80.667 21 108c0 42.667 -15 64 -45 64c-52.667 0 -110.167 -41.333 -172.5 -124
s-125.5 -197.334 -189.5 -344.001s-125.667 -315.667 -185 -507l2 10l-14 -51h-185l256 844c14 43.333 21 78.333 21 105c0 44.667 -19 67 -57 67c-50 0 -105.833 -39 -167.5 -117s-122.667 -184.5 -183 -319.5s-113.5 -284.167 -159.5 -447.5l-33 -132h-178l245 879
c10 34 15 59 15 75c0 34.667 -14.333 52 -43 52c-30.667 0 -58.5 -16.167 -83.5 -48.5s-50.5 -85.833 -76.5 -160.5l-27 -76h-39l52 149c48 140.667 130.333 211 247 211c79.333 0 119 -41 119 -123c0 -40.667 -10 -95 -30 -163l-65 -258c54.667 134 107 240.667 157 320
s100.5 136.5 151.5 171.5s106.167 52.5 165.5 52.5c89.333 0 134 -48 134 -144c0 -43.333 -9 -98.333 -27 -165l-73 -271c57.333 142.667 111.166 255.834 161.499 339.501s101.666 144.667 153.999 183s110.5 57.5 174.5 57.5c50.667 0 87.334 -13.833 110.001 -41.5
s34 -64.834 34 -111.501c0 -46 -9.66699 -98 -29 -156l-199 -598c-10 -32 -15 -58 -15 -78c0 -32.667 16 -49 48 -49c28 0 54.667 15.5 80 46.5s51.333 85.167 78 162.5l27 76h38z" />
    <glyph glyph-name="n" unicode="n" horiz-adv-x="1188" 
d="M1034 182c-48 -140.667 -130.668 -211.003 -248.001 -211.003c-61.333 0 -104.333 20 -129 60c-10.667 17.333 -16 39.666 -16 66.999c0 38.667 11.667 92 35 160l194 586c14 40.667 21 74.334 21 101.001c0 47.333 -22 71 -66 71c-52.667 0 -112 -38.167 -178 -114.5
s-130.833 -181.166 -194.5 -314.499s-119.167 -281.333 -166.5 -444l-36 -143h-178l245 879c10 32.667 15 58.334 15 77.001c0 33.333 -15 50 -45 50c-20.667 0 -39.167 -6.5 -55.5 -19.5s-32.666 -34.5 -48.999 -64.5s-34.166 -71.667 -53.499 -125l-27 -76h-39l52 149
c48 140.667 129 211 243 211c80.667 0 121 -40.333 121 -121c0 -36.667 -9.33301 -91.667 -28 -165l-71 -280c58.667 138.667 115.167 249.334 169.5 332.001s109.166 142.334 164.499 179.001s115 55 179 55c110 0 165 -51.333 165 -154
c0 -40.667 -10 -92.334 -30 -155.001l-199 -598c-10.667 -32 -16 -57.667 -16 -77c0 -33.333 16.333 -50 49 -50c28 0 54.667 15.5 80 46.5s51.333 85.167 78 162.5l27 76h38z" />
    <glyph glyph-name="o" unicode="o" horiz-adv-x="999" 
d="M114.5 639.5c47.667 123.667 116.501 228.168 206.501 313.501s194.667 128 314 128c87.333 0 155.833 -27 205.5 -81s74.5 -134 74.5 -240c0 -107.333 -23.833 -222.833 -71.5 -346.5s-116.334 -228.334 -206.001 -314.001s-194.167 -128.5 -313.5 -128.5
c-87.333 0 -156 27.167 -206 81.5s-75 134.5 -75 240.5c0 107.333 23.833 222.833 71.5 346.5zM424.501 907.001c-62.333 -88.667 -112.167 -199.667 -149.5 -333s-56 -261.333 -56 -384c0 -118.667 39 -178 117 -178c70 0 136 44.333 198 133s111.667 199.5 149 332.5
s56 261.167 56 384.5c0 61.333 -9.5 106.333 -28.5 135s-48.167 43 -87.5 43c-70 0 -136.167 -44.333 -198.5 -133z" />
    <glyph glyph-name="p" unicode="p" horiz-adv-x="1128" 
d="M635 977.5c63.333 69 131.003 103.498 203.003 103.498c66 0 118 -24.333 156 -73s57 -120.334 57 -215.001c0 -110.667 -24.5 -230.5 -73.5 -359.5s-119.167 -238.333 -210.5 -328s-196.666 -134.5 -315.999 -134.5c-37.333 0 -71 10.333 -101 31s-52 49.667 -66 87
l-77 -269c-5.33301 -19.333 -8 -35.666 -8 -48.999c0 -36 15 -61.5 45 -76.5s73 -22.5 129 -22.5l-13 -43c-16 0.666992 -51.833 2.33398 -107.5 5.00098s-111.167 4 -166.5 4c-44 0 -90 -1.33301 -138 -4l-89 -5l12 43c33.333 0 59.833 3.83301 79.5 11.5
s35.667 20.667 48 39s23.166 43.833 32.499 76.5l383 1365c-40.667 -90.667 -88.834 -171.167 -144.501 -241.5s-122.834 -142.833 -201.501 -217.5l-23 26c64.667 63.333 118.167 119.333 160.5 168s85.166 108.334 128.499 179.001s86.333 156.667 129 258l8 30
c74.667 2 136.667 11.667 186 29l-214 -749c64.667 152 128.667 262.5 192 331.5zM361.003 45.998c24 -18.667 53.334 -27.999 88.001 -27.999c72.667 0 141.667 45.333 207 136s118 201 158 331s60 247.667 60 353c0 58.667 -8.33301 103 -25 133s-40.334 45 -71.001 45
c-38.667 0 -83.5 -31.167 -134.5 -93.5s-102.333 -146 -154 -251s-97.5 -219.5 -137.5 -343.5l-53 -187c17.333 -44.667 38 -76.334 62 -95.001z" />
    <glyph glyph-name="q" unicode="q" horiz-adv-x="1038" 
d="M660 -233c0 -63.333 44.333 -95 133 -95l-13 -43c-16 0.666992 -52 2.33398 -108 5.00098s-111.333 4 -166 4c-44 0 -90 -1.33301 -138 -4l-89 -5l12 43c42 0 76 3.83301 102 11.5s46.667 20.667 62 39s27.666 43.833 36.999 76.5l141 539
c-61.333 -130.667 -123.166 -224.5 -185.499 -281.5s-128.166 -85.5 -197.499 -85.5c-66 0 -118 24.5 -156 73.5s-57 120.833 -57 215.5c0 110 24.5 229.5 73.5 358.5s119.167 238.333 210.5 328s196.666 134.5 315.999 134.5c40.667 0 76.5 -12 107.5 -36
s52.5 -57.333 64.5 -100l174 140l33 -14c-18 -34.667 -32.333 -74.334 -43 -119.001l-305 -1132c-5.33301 -18 -8 -35.667 -8 -53zM724 1008c-23.333 17.333 -51.666 26 -84.999 26c-72.667 0 -141.834 -45.333 -207.501 -136s-118.5 -201 -158.5 -331
s-60 -247.333 -60 -352c0 -59.333 8.5 -103.833 25.5 -133.5s40.5 -44.5 70.5 -44.5c37.333 0 80.666 25.5 129.999 76.5s97.5 119 144.5 204s85.5 176.167 115.5 273.5l86 331c-17.333 40 -37.666 68.667 -60.999 86z" />
    <glyph glyph-name="r" unicode="r" horiz-adv-x="872" 
d="M524.5 855c44.333 79.333 89.333 136.834 135 172.501s95.5 53.5 149.5 53.5c37.333 0 66.833 -10.833 88.5 -32.5s32.5 -49.5 32.5 -83.5c0 -26.667 -6.66699 -51.334 -20 -74.001s-31 -40.667 -53 -54s-45.667 -20 -71 -20c-24 0 -43.5 6.5 -58.5 19.5
s-22.5 31.167 -22.5 54.5c0 61.333 30.667 105 92 131c-5.33301 5.33301 -13 8 -23 8c-48.667 0 -100.667 -36 -156 -108s-111 -172.667 -167 -302s-109.333 -279 -160 -449l-43 -171h-178l245 879c10 34 15 60.667 15 80c0 31.333 -14.333 47 -43 47
c-30.667 0 -58.5 -16.167 -83.5 -48.5s-50.5 -85.833 -76.5 -160.5l-27 -76h-39l52 149c48 140.667 130.333 211 247 211c78.667 0 118 -39.667 118 -119c0 -22 -2.33301 -45 -7 -69s-12 -56.667 -22 -98l-66 -260c50 134 97.167 240.667 141.5 320z" />
    <glyph glyph-name="s" unicode="s" horiz-adv-x="780" 
d="M215 12c62 0 111.999 18.501 149.999 55.501s57 88.833 57 155.5c0 43.333 -8.16699 86 -24.5 128s-43.833 89.667 -82.5 143c-32.667 44.667 -56.834 79 -72.501 103s-29.667 52.667 -42 86s-18.5 69.333 -18.5 108c0 56.667 14.167 107 42.5 151
s66.833 78.167 115.5 102.5s102 36.5 160 36.5c70.667 0 130 -13.167 178 -39.5s72 -72.5 72 -138.5c0 -14.667 -3.33301 -30.167 -10 -46.5s-17.167 -30.333 -31.5 -42s-32.166 -17.5 -53.499 -17.5c-23.333 0 -42.833 8 -58.5 24s-23.5 36.667 -23.5 62
c0 44 19.333 89.667 58 137c-27.333 16 -61.666 24 -102.999 24c-52 0 -94.667 -17.333 -128 -52s-50 -82 -50 -142c0 -36 6 -66.833 18 -92.5s29.333 -54.667 52 -87l53 -76.5c40.667 -63.333 71 -117.333 91 -162s30 -91 30 -139c0 -62 -16 -117.5 -48 -166.5
s-74.833 -87.167 -128.5 -114.5s-112.167 -41 -175.5 -41c-78.667 0 -144.5 16.667 -197.5 50s-79.5 84.333 -79.5 153c0 24 6.5 45.333 19.5 64s33.167 28 60.5 28c30.667 0 53.334 -12.333 68.001 -37s22 -55.334 22 -92.001c0 -24 -4.66699 -59.333 -14 -106
c25.333 -12.667 56.666 -19 93.999 -19z" />
    <glyph glyph-name="t" unicode="t" horiz-adv-x="688" 
d="M241 128c0 -27.333 8.16699 -47.667 24.5 -61s37.833 -20 64.5 -20c34 0 65.833 14.667 95.5 44s58.5 83 86.5 161l29 80h39l-43 -129c-28.667 -84.667 -66 -144.5 -112 -179.5s-102.333 -52.5 -169 -52.5c-61.333 0 -107.166 15 -137.499 45s-45.5 71.667 -45.5 125
c0 32.667 6.33301 71.667 19 117l217 754h-184l10 41h186l89 311c75.333 2 136.666 11.667 183.999 29l-97 -340h271l-6 -41h-276l-238 -838c-4.66699 -16 -7 -31.333 -7 -46z" />
    <glyph glyph-name="u" unicode="u" horiz-adv-x="1161" 
d="M1061 332l-51.002 -149.999c-49.333 -140.667 -132 -211 -248 -211c-22.667 0 -43.5 4.83301 -62.5 14.5s-33.167 23.5 -42.5 41.5c-8 16.667 -12 37.667 -12 63c0 36 9.66699 92 29 168l65 257c-54.667 -132 -107.5 -237.833 -158.5 -317.5
s-102.333 -137.334 -154 -173.001s-107.167 -53.5 -166.5 -53.5c-115.333 0 -173 52.667 -173 158c0 42.667 10 93.334 30 152.001l198 598c10.667 33.333 16 59 16 77c0 33.333 -16 50 -48 50c-28 0 -54.667 -15.5 -80 -46.5s-51.333 -85.167 -78 -162.5l-27 -76h-39
l52 149c48 140.667 130.333 211 247 211c96 0 144 -42.333 144 -127c0 -37.333 -11 -90.333 -33 -159l-195 -586c-13.333 -40 -20 -74 -20 -102c0 -46.667 21.667 -70 65 -70c52 0 109.833 38 173.5 114s126.334 182 188.001 318s115.834 290 162.501 462l31 122
c78 2 140.333 11.333 187 28l-254 -907c-10 -34.667 -15 -61.334 -15 -80.001c0 -31.333 14.667 -47 44 -47c30 0 57.5 16.167 82.5 48.5s50.5 85.833 76.5 160.5l27 76h39z" />
    <glyph glyph-name="v" unicode="v" horiz-adv-x="1092" 
d="M456.5 675.5c-61.667 -135 -98.501 -273.503 -110.501 -415.503c-1.33301 -22.667 -2 -38.667 -2 -48c0 -115.333 30 -173 90 -173c100 0 190 41.667 270 125s143.333 183.166 190 299.499s72.334 220.5 77.001 312.5c-45.333 22.667 -82.666 52.834 -111.999 90.501
s-42 81.167 -38 130.5c2 29.333 12 51 30 65s38 21 60 21c38.667 0 67.667 -18.5 87 -55.5s29 -87.5 29 -151.5c0 -22 -1.66699 -49 -5 -81c-16.667 -141.333 -52.5 -274.666 -107.5 -399.999s-128.5 -227.333 -220.5 -306s-198.333 -118 -319 -118
c-80.667 0 -140 22.167 -178 66.5s-57 99.5 -57 165.5l1 22c8 112.667 54.833 237.834 140.5 375.501s197.167 272.167 334.5 403.5c-24.667 -9.33301 -58.167 -27 -100.5 -53s-75.833 -45.333 -100.5 -58s-47.667 -19 -69 -19c-12 0 -23 2.33301 -33 7
s-24.833 13.334 -44.5 26.001s-36.834 19 -51.501 19c-21.333 0 -39.166 -9.16699 -53.499 -27.5s-29.833 -51.5 -46.5 -99.5l-23 -76h-39l45 149c38 139.333 102.333 209 193 209c26 0 50.833 -8.83301 74.5 -26.5s42.667 -31 57 -40s32.5 -13.5 54.5 -13.5
c68 0 125.333 21.333 172 64l21 39l43 -21c-110.667 -136.667 -196.834 -272.5 -258.501 -407.5z" />
    <glyph glyph-name="w" unicode="w" horiz-adv-x="1403" 
d="M380.5 658c-102.333 -143.333 -153.503 -290.331 -153.503 -440.998c0 -66 9.66699 -113.167 29 -141.5s47.333 -42.5 84 -42.5c69.333 0 140 32.667 212 98c-10 34.667 -15 75 -15 121c0 76.667 16.667 152.334 50 227.001s73.666 136 120.999 184s90 72 128 72
c26.667 0 45.167 -14.167 55.5 -42.5s15.5 -61.833 15.5 -100.5c0 -74.667 -19.833 -149.167 -59.5 -223.5s-98.167 -141.833 -175.5 -202.5c30.667 -90 85.334 -135 164.001 -135c86.667 0 160.5 33.5 221.5 100.5s106.667 149.667 137 248s45.5 193.833 45.5 286.5
c0 53.333 -5 98.333 -15 135c-30 5.33301 -59.833 15.5 -89.5 30.5s-54.667 35.167 -75 60.5s-30.5 55.666 -30.5 90.999c0 33.333 8.66699 58 26 74s37.333 24 60 24c72 0 122.667 -80.333 152 -241c11.333 -52.667 17 -109.667 17 -171
c0 -110.667 -18.167 -219.5 -54.5 -326.5s-92.5 -195.667 -168.5 -266s-170 -105.5 -282 -105.5c-107.333 0 -179.333 42 -216 126c-91.333 -84 -185.666 -126 -282.999 -126c-88 0 -152.333 22.167 -193 66.5s-61 100.166 -61 167.499c0 116 57.5 242 172.5 378
s253.833 265 416.5 387l-66.5 -40.5c-29 -17.667 -54.333 -31.334 -76 -41.001s-40.834 -14.5 -57.501 -14.5c-11.333 0 -22 2.16699 -32 6.5s-24.833 13 -44.5 26s-37.167 19.5 -52.5 19.5c-22 0 -40.5 -9.33301 -55.5 -28s-30.167 -51.667 -45.5 -99l-24 -76h-39l47 149
c24.667 76 52.834 129.833 84.501 161.5s66.834 47.5 105.501 47.5c26 0 51.167 -8.83301 75.5 -26.5s43.833 -31 58.5 -40s33 -13.5 55 -13.5c60.667 0 115.334 21.333 164.001 64l28 39l43 -21c-166.667 -140 -301.167 -281.667 -403.5 -425zM745.997 637.002
c-27.333 -35.333 -50.667 -80.667 -70 -136s-29 -111 -29 -167c0 -48 4.66699 -91.667 14 -131c60.667 50.667 109 111 145 181s54 140 54 210c0 64 -13 96 -39 96c-22.667 0 -47.667 -17.667 -75 -53z" />
    <glyph glyph-name="x" unicode="x" horiz-adv-x="1077" 
d="M774 956c38.667 44.667 73.8359 76.6699 105.503 96.0029s64.834 29 99.501 29c26 0 47.5 -6.83301 64.5 -20.5s25.5 -31.834 25.5 -54.501c0 -26.667 -10.167 -49.834 -30.5 -69.501s-46.166 -29.5 -77.499 -29.5c-46 0 -89.333 16.333 -130 49
c-84.667 -78 -158 -197.333 -220 -358l48 -438c5.33301 -34.667 13.666 -59 24.999 -73s26.333 -21 45 -21c23.333 0 45.666 13.167 66.999 39.5s44.666 75.833 69.999 148.5l27 76h39l-51 -150c-50.667 -139.333 -128.667 -209 -234 -209
c-98.667 0 -155.334 63 -170.001 189l-30 266c-54 -121.333 -126.667 -230.666 -218 -327.999c-42 -44 -79.167 -76.167 -111.5 -96.5s-63.833 -30.5 -94.5 -30.5s-53.834 6.66699 -69.501 20s-23.5 32 -23.5 56c0 26 10.333 48.833 31 68.5s46 29.5 76 29.5
c44 0 87 -16.333 129 -49c56 52 107.833 114.167 155.5 186.5s86.834 144.166 117.501 215.499l-44 395c-8.66699 62.667 -31.667 94 -69 94c-22.667 0 -44.834 -13.333 -66.501 -40s-45.5 -76 -71.5 -148l-26 -76h-39l51 149c27.333 76.667 60.833 130.667 100.5 162
s84.167 47 133.5 47c50 0 88.833 -14.167 116.5 -42.5s45.5 -76.833 53.5 -145.5l23 -211c46 105.333 103.667 196.666 173 273.999z" />
    <glyph glyph-name="y" unicode="y" horiz-adv-x="985" 
d="M768 449c54.667 114.667 92.999 227.659 114.999 338.992c-42 22 -78.5 49 -109.5 81s-46.5 68 -46.5 108c0 32.667 9.66699 58.167 29 76.5s44.333 27.5 75 27.5c71.333 0 107 -55.333 107 -166c0 -87.333 -19.333 -185.666 -58 -294.999
s-88.834 -217.666 -150.501 -324.999s-126.5 -203.666 -194.5 -288.999c-128 -159.333 -262.667 -272.666 -404 -339.999c-71.333 -34 -130.666 -51 -177.999 -51c-29.333 0 -53.833 7.33301 -73.5 22s-29.5 35.334 -29.5 62.001c0 28 11 50.333 33 67s48 25 78 25
c28.667 0 56.334 -7 83.001 -21s55.667 -33.667 87 -59c107.333 56.667 209.666 138.334 306.999 245.001l-151 918c-7.33301 42 -15.833 71.333 -25.5 88s-23.167 25 -40.5 25s-35.333 -13.333 -54 -40s-41 -76 -67 -148l-26 -76h-39l51 149
c48 139.333 126.667 209 236 209c28.667 0 52.667 -5.66699 72 -17s35 -30.666 47 -57.999s21.333 -65 28 -113l105 -770c74.667 102.667 139.334 211.334 194.001 326.001z" />
    <glyph glyph-name="z" unicode="z" horiz-adv-x="911" 
d="M200 162c38 16 75 23.9971 111 23.9971c32.667 0 67 -6.66699 103 -20s66.667 -24.166 92 -32.499s52.666 -12.5 81.999 -12.5c35.333 0 62.833 8.5 82.5 25.5s29.5 42.5 29.5 76.5c0 36 -14.833 67.167 -44.5 93.5s-68.5 44.5 -116.5 54.5l12 30
c64 -14 113.167 -37.667 147.5 -71s51.5 -75.666 51.5 -126.999c0 -38.667 -8.16699 -74.167 -24.5 -106.5s-42.166 -58.5 -77.499 -78.5s-80.666 -30 -135.999 -30c-46.667 0 -92.167 9.66699 -136.5 29s-80.333 34 -108 44s-63.5 15 -107.5 15
c-38 0 -71.333 -5.5 -100 -16.5s-57 -30.833 -85 -59.5h-55l924 973c-62 -39.333 -111.833 -67 -149.5 -83s-74.5 -24 -110.5 -24c-32.667 0 -67 6.83301 -103 20.5s-66.667 24.667 -92 33s-52.666 12.5 -81.999 12.5c-35.333 0 -62.833 -8.66699 -82.5 -26
s-29.5 -43 -29.5 -77c0 -36 14.833 -67.167 44.5 -93.5s68.5 -44.166 116.5 -53.499l-12 -31c-132.667 30.667 -199 97 -199 199c0 38.667 8.16699 74.167 24.5 106.5s42.166 58.5 77.499 78.5s80.666 30 135.999 30c46.667 0 92.167 -9.66699 136.5 -29s80.333 -34 108 -44
s63.5 -15 107.5 -15c38 0 71.333 5.5 100 16.5s57 30.833 85 59.5h55l-924 -973c61.333 38.667 111 66 149 82z" />
    <glyph glyph-name="braceleft" unicode="{" horiz-adv-x="627" 
d="M113.5 -328c-41 38 -61.499 92.6699 -61.499 164.003c0 55.333 14 139.666 42 252.999c45.333 179.333 68 304.666 68 375.999c-0.666992 41.333 -8.83398 71.333 -24.501 90s-39.5 29 -71.5 31h-10l6 37h10c44 3.33301 80.5 19.833 109.5 49.5s56.5 78.667 82.5 147
s55.667 168.833 89 301.5c32 126.667 67.5 224.334 106.5 293.001s86.333 117.167 142 145.5s127.5 42.5 215.5 42.5l-10 -39c-48 -0.666992 -85 -10.334 -111 -29.001s-50.667 -58 -74 -118s-51.666 -158.333 -84.999 -295c-28.667 -115.333 -64.667 -208.5 -108 -279.5
s-90.5 -123.833 -141.5 -158.5s-107.833 -60.667 -170.5 -78c132 -40 198 -134 198 -282c0 -61.333 -12 -139.333 -36 -234c-42 -168.667 -62 -279.334 -60 -332.001c0 -39.333 9.16699 -66 27.5 -80s48.166 -21.667 89.499 -23l-10 -39c-100.667 0 -171.5 19 -212.5 57z
" />
    <glyph glyph-name="bar" unicode="|" horiz-adv-x="651" 
d="M305 -399v2156h82v-2156h-82z" />
    <glyph glyph-name="braceright" unicode="}" horiz-adv-x="627" 
d="M515.5 1545c41 -38 61.499 -92.6699 61.499 -164.003c0 -55.333 -14 -139.666 -42 -252.999c-45.333 -179.333 -68 -304.666 -68 -375.999c0.666992 -41.333 8.83398 -71.333 24.501 -90s39.5 -29 71.5 -31h10l-6 -37h-10c-44 -3.33301 -80.5 -19.833 -109.5 -49.5
s-56.5 -78.667 -82.5 -147s-55.667 -168.833 -89 -301.5c-32 -126.667 -67.5 -224.334 -106.5 -293.001s-86.333 -117.167 -142 -145.5s-127.5 -42.5 -215.5 -42.5l10 39c48 0.666992 85 10.334 111 29.001s50.667 58 74 118s51.666 158.333 84.999 295
c28.667 115.333 64.667 208.5 108 279.5s90.5 123.833 141.5 158.5s107.833 60.667 170.5 78c-132 40 -198 134 -198 282c0 61.333 12 139.333 36 234c42 168.667 62 279.334 60 332.001c0 39.333 -9.16699 66 -27.5 80s-48.166 21.667 -89.499 23l10 39
c100.667 0 171.5 -19 212.5 -57z" />
    <glyph glyph-name="asciitilde" unicode="~" horiz-adv-x="1329" 
d="M1062.5 543.5c-59.667 -39 -127.166 -58.5 -202.499 -58.5c-47.333 0 -89.166 6.83301 -125.499 20.5s-89.666 40.334 -159.999 80.001s-136.833 59.5 -199.5 59.5c-88.667 0 -157.667 -39.667 -207 -119l-29 11c31.333 68 76.833 121.5 136.5 160.5
s126.834 58.5 201.501 58.5c47.333 0 89.166 -6.83301 125.499 -20.5s89.666 -40.334 159.999 -80.001s137.166 -59.5 200.499 -59.5c88 0 156.667 39.667 206 119l29 -10c-30.667 -68.667 -75.834 -122.5 -135.501 -161.5z" />
    <glyph glyph-name="nonbreakingspace" unicode="&#xa0;" horiz-adv-x="518" 
 />
    <glyph glyph-name="exclamdown" unicode="&#xa1;" horiz-adv-x="510" 
d="M238 1000.5c14.667 24.333 33.833 43.835 57.5 58.502s48.167 22 73.5 22c30.667 0 55.667 -10.167 75 -30.5s29 -45.833 29 -76.5c0 -26.667 -7.16699 -51.834 -21.5 -75.501s-33.5 -42.834 -57.5 -57.501s-49 -22 -75 -22c-30 0 -54.667 10 -74 30s-29 45 -29 75
c0 26.667 7.33301 52.167 22 76.5zM230.999 368.502c-16.667 -93 -36.832 -213.998 -60.499 -362.998s-42.834 -252.5 -57.501 -310.5c-6 -26 -17.5 -45.833 -34.5 -59.5s-36.5 -20.5 -58.5 -20.5c-30.667 0 -53.834 7.66699 -69.501 23s-23.5 35.666 -23.5 60.999
c0 14.667 2.33301 29 7 43c14 47.333 45.833 135 95.5 263l128 339.5c35.667 98.333 67.834 201.166 96.501 308.499l37 -6c-23.333 -92.667 -43.333 -185.5 -60 -278.5z" />
    <glyph glyph-name="cent" unicode="&#xa2;" horiz-adv-x="887" 
d="M649 1081c40.667 0 77.8301 -6.99707 111.497 -20.9971s60.5 -34.167 80.5 -60.5s30 -57.166 30 -92.499c0 -26.667 -6 -52.667 -18 -78s-29.167 -46 -51.5 -62s-47.833 -24 -76.5 -24c-27.333 0 -48.166 7.66699 -62.499 23s-21.5 34.333 -21.5 57
c0 38.667 15.167 72.167 45.5 100.5s66.5 46.166 108.5 53.499c-29.333 42 -75.666 63 -138.999 63c-13.333 0 -26.666 -1.33301 -39.999 -4l-263 -979h12c110.667 0 213 68.333 307 205l41 -16c-26 -45.333 -58.833 -87.833 -98.5 -127.5s-84 -72.834 -133 -99.501
s-99.5 -42.334 -151.5 -47.001l-92 -343h-45l92 342c-79.333 3.33301 -141.5 30.666 -186.5 81.999s-67.5 124.333 -67.5 219c0 103.333 22.833 214.666 68.5 333.999s110.5 223.333 194.5 312s180 141.334 288 158.001l100 374h45l-99 -370zM396.496 861.503
c-53 -76.333 -95.5 -167.833 -127.5 -274.5s-48 -217.667 -48 -333c0 -102 29.667 -164.667 89 -188l256 952c-60 -28 -116.5 -80.167 -169.5 -156.5z" />
    <glyph glyph-name="sterling" unicode="&#xa3;" horiz-adv-x="1278" 
d="M621.5 1342c100.333 110 231.836 164.997 394.503 164.997c46.667 0 86 -6.33301 118 -19s55.833 -29.5 71.5 -50.5s23.5 -44.167 23.5 -69.5c0 -22.667 -5.5 -43.834 -16.5 -63.501s-26.167 -35.5 -45.5 -47.5s-41 -18 -65 -18c-21.333 0 -39 6.33301 -53 19
s-21 29.667 -21 51c0 27.333 9.16699 51.833 27.5 73.5s41.833 36.5 70.5 44.5c0 13.333 -11.667 25 -35 35s-49.666 15 -78.999 15c-81.333 0 -147.833 -23.667 -199.5 -71s-91.834 -106.166 -120.501 -176.499s-58.667 -162.833 -90 -277.5l-26 -98h278l-12 -41h-277
l-43 -164h277l-13 -41h-276c-18.667 -58.667 -43 -112.667 -73 -162s-63.667 -95.5 -101 -138.5s-85 -93.5 -143 -151.5c92.667 43.333 178.667 65 258 65c46 0 96.167 -10.167 150.5 -30.5s97.833 -35.666 130.5 -45.999s70.667 -15.5 114 -15.5
c30.667 0 59.5 6.33301 86.5 19s48.667 30.5 65 53.5s24.5 49.5 24.5 79.5c0 38.667 -11.667 69.834 -35 93.501s-56 39.5 -98 47.5l12 35c59.333 -10.667 108.666 -33.667 147.999 -69s59 -82 59 -140c0 -44.667 -13.5 -88.5 -40.5 -131.5s-63.167 -78 -108.5 -105
s-93.333 -40.5 -144 -40.5c-62.667 0 -124 21.333 -184 64s-108 74.834 -144 96.501s-81 32.5 -135 32.5c-56.667 0 -116 -13.667 -178 -41c-34.667 -48 -69.334 -85.333 -104.001 -112s-65.667 -40 -93 -40c-9.33301 0 -16 1.5 -20 4.5s-6 8.5 -6 16.5
c0 13.333 8.16699 29.333 24.5 48s40 37.167 71 55.5s66.833 33.5 107.5 45.5c28 54.667 53.167 110.5 75.5 167.5s45.5 130.167 69.5 219.5l21 80h-199l12 41h198l43 164h-198l12 41h197l12 45c49.333 185.333 124.166 333 224.499 443z" />
    <glyph glyph-name="currency" unicode="&#xa4;" horiz-adv-x="1165" 
d="M199 614c0 94 29.334 176 88.001 246l-90 90l57 58l90 -90c71.333 57.333 152.666 86 243.999 86s172.333 -29.667 243 -89l93 93l57 -58l-92 -92c57.333 -72.667 86 -154 86 -244c0 -92 -28.667 -173 -86 -243l90 -88l-57 -60l-91 90
c-72.667 -57.333 -153.667 -86 -243 -86c-92.667 0 -174 28 -244 84l-88 -88l-59 60l88 88c-57.333 69.333 -86 150.333 -86 243zM324.501 458.5c27.667 -47.667 64.833 -85.5 111.5 -113.5s97.334 -42 152.001 -42s105.167 14 151.5 42s83.166 65.833 110.499 113.5
s41 99.5 41 155.5c0 55.333 -13.667 107 -41 155s-64.333 86.5 -111 115.5s-97 43.5 -151 43.5c-54.667 0 -105.5 -14.333 -152.5 -43s-84.167 -67 -111.5 -115s-41 -100 -41 -156s13.833 -107.833 41.5 -155.5z" />
    <glyph glyph-name="yen" unicode="&#xa5;" horiz-adv-x="1440" 
d="M328 1402c16 25.333 36.3281 44.499 60.9951 57.499s56 19.5 94 19.5c72 0 130.167 -29.333 174.5 -88s78.833 -140.5 103.5 -245.5s46 -241.167 64 -408.5c98.667 248 226.334 451 383.001 609c88.667 88.667 169.334 133 242.001 133c40 0 69 -10.5 87 -31.5
s27 -47.167 27 -78.5c0 -20 -4.33301 -41 -13 -63s-22.167 -40.667 -40.5 -56s-40.833 -23 -67.5 -23c-51.333 0 -77 27 -77 81c0 22 6 44.333 18 67s27.667 43 47 61h-6c-36.667 -2 -74.334 -17 -113.001 -45c-71.333 -52 -148.166 -135.833 -230.499 -251.5
s-161.5 -264.834 -237.5 -447.501l-21 -84h289l-10 -41h-289l-31 -123h285l-10 -41h-285l-47 -186c-11.333 -44 -17 -77 -17 -99c0 -20 4.5 -35.333 13.5 -46s23 -18.167 42 -22.5s46.167 -7.16602 81.5 -8.49902l-10 -41c-60.667 4 -145.334 6 -254.001 6
c-119.333 0 -208.666 -2 -267.999 -6l10 41c49.333 2 86.333 7.33301 111 16s44.334 24.834 59.001 48.501s28.334 60.834 41.001 111.501l47 186h-288l10 41h288l31 123h-284l10 41h284l22 87c-48.667 447.333 -128.334 671 -239.001 671
c-23.333 0 -42.666 -7.33301 -57.999 -22s-28.666 -39.334 -39.999 -74.001l-57 -168h-45l67 198c14.667 42.667 30 76.667 46 102z" />
    <glyph glyph-name="brokenbar" unicode="&#xa6;" horiz-adv-x="659" 
d="M309 786v971h82v-971h-82zM391 668v-1067h-82v1067h82z" />
    <glyph glyph-name="section" unicode="&#xa7;" horiz-adv-x="1040" 
d="M876 1439c22.667 23.333 50.998 39.998 84.998 49.998c-8.66699 27.333 -31.167 46.5 -67.5 57.5s-74.166 16.5 -113.499 16.5c-49.333 0 -96 -8.83301 -140 -26.5s-80.167 -47 -108.5 -88s-42.5 -93.833 -42.5 -158.5c0 -41.333 11.667 -80.666 35 -117.999
s48.333 -68.5 75 -93.5s73.334 -65.833 140.001 -122.5c49.333 -41.333 88.833 -77.5 118.5 -108.5s52.834 -63.5 69.501 -97.5s25 -71 25 -111c0 -87.333 -30.333 -165.666 -91 -234.999s-140 -128 -238 -176c58.667 -67.333 88 -137.333 88 -210
c0 -74 -21 -141.833 -63 -203.5s-97.667 -110.334 -167 -146.001s-143 -53.5 -221 -53.5c-44.667 0 -89 6.5 -133 19.5s-80.667 33.667 -110 62s-44 64.5 -44 108.5c0 23.333 6.16699 45.833 18.5 67.5s29 39.167 50 52.5s44.167 20 69.5 20c26.667 0 48 -7.33301 64 -22
s24 -34.667 24 -60c0 -32.667 -11.333 -61 -34 -85s-51 -40.667 -85 -50c8 -26 30.667 -44.833 68 -56.5s74.666 -17.5 111.999 -17.5c50.667 0 97.834 9 141.501 27s79.5 47.5 107.5 88.5s42 94.5 42 160.5c0 41.333 -11.667 80.333 -35 117s-49 67.834 -77 93.501
s-74 65.5 -138 119.5c-49.333 42 -88.833 78.5 -118.5 109.5s-52.834 63.5 -69.501 97.5s-25 71 -25 111c0 87.333 30.5 165.5 91.5 234.5s140.5 127.5 238.5 175.5c-58.667 67.333 -88 137.333 -88 210c0 74 21 141.833 63 203.5s97.5 110.5 166.5 146.5s142.5 54 220.5 54
c43.333 0 87.333 -6.5 132 -19.5s82 -33.5 112 -61.5s45 -62.667 45 -104c0 -24.667 -6 -48.167 -18 -70.5s-28.5 -40.333 -49.5 -54s-44.833 -20.5 -71.5 -20.5s-48 7.66699 -64 23s-24 36.333 -24 63c0 30.667 11.333 57.667 34 81zM439.998 962.998
c-146 -78 -218.999 -168.334 -218.999 -271.001c0 -34.667 9.5 -68.167 28.5 -100.5s42.833 -62.666 71.5 -90.999s67 -62.833 115 -103.5c80 -66 134.667 -114 164 -144c146 78.667 219 169 219 271c0 35.333 -9.5 69.333 -28.5 102s-42.833 63 -71.5 91s-67 62 -115 102
c-80.667 66.667 -135.334 114.667 -164.001 144z" />
    <glyph glyph-name="dieresis" unicode="&#xa8;" horiz-adv-x="799" 
d="M80 1451c12.667 20.667 29.666 37.665 50.999 50.998s44 20 68 20c28.667 0 52.834 -10 72.501 -30s29.5 -44.333 29.5 -73c0 -22 -6.33301 -43.5 -19 -64.5s-29.5 -38 -50.5 -51s-43.5 -19.5 -67.5 -19.5c-30.667 0 -55.5 9.83301 -74.5 29.5s-28.5 44.834 -28.5 75.501
c0 20.667 6.33301 41.334 19 62.001zM514.999 1451c12.667 20.667 29.499 37.666 50.499 50.999s43.5 20 67.5 20c28.667 0 52.834 -10 72.501 -30s29.5 -44.333 29.5 -73c0 -22 -6.33301 -43.5 -19 -64.5s-29.5 -38 -50.5 -51s-43.5 -19.5 -67.5 -19.5
c-30 0 -54.5 10 -73.5 30s-28.5 45 -28.5 75c0 20.667 6.33301 41.334 19 62.001z" />
    <glyph glyph-name="copyright" unicode="&#xa9;" horiz-adv-x="1892" 
d="M289.5 1195.5c73 125 172 224 297 297s261.167 109.5 408.5 109.5c148 0 284.333 -36.5 409 -109.5s223.5 -172 296.5 -297s109.5 -261.5 109.5 -409.5c0 -147.333 -36.5 -283.5 -109.5 -408.5s-171.833 -224 -296.5 -297s-261 -109.5 -409 -109.5
c-147.333 0 -283.5 36.5 -408.5 109.5s-224 172 -297 297s-109.5 261.167 -109.5 408.5c0 148 36.5 284.5 109.5 409.5zM360.5 411c65.667 -114.667 154.667 -205.667 267 -273s234.833 -101 367.5 -101c133.333 0 256.166 33.667 368.499 101s201.333 158.333 267 273
s98.5 239.667 98.5 375c0 136 -32.833 261.333 -98.5 376s-154.667 205.667 -267 273s-235.166 101 -368.499 101c-132.667 0 -255.167 -33.667 -367.5 -101s-201.333 -158.333 -267 -273s-98.5 -240 -98.5 -376c0 -135.333 32.833 -260.333 98.5 -375zM1309.5 378.5
c-31.667 -43 -73.1689 -78.334 -124.502 -106.001s-111 -41.5 -179 -41.5c-86 0 -163.5 22 -232.5 66s-123.333 107 -163 189s-59.5 178 -59.5 288c0 110.667 20.167 209.167 60.5 295.5s96.666 153.5 168.999 201.5s155.5 72 249.5 72c57.333 0 111.5 -9.16699 162.5 -27.5
s92 -44.5 123 -78.5s46.5 -73 46.5 -117c0 -35.333 -10.167 -63.166 -30.5 -83.499s-46.5 -30.5 -78.5 -30.5c-31.333 0 -57.833 10 -79.5 30s-32.5 46.667 -32.5 80c0 28 7.66699 51 23 69s36.333 30 63 36c-13.333 24.667 -37.666 45.167 -72.999 61.5
s-72.666 24.5 -111.999 24.5c-50 0 -97 -15.833 -141 -47.5s-80.167 -85.334 -108.5 -161.001s-42.5 -175.5 -42.5 -299.5c0 -112.667 13.167 -204.667 39.5 -276s61.333 -123.166 105 -155.499s92.834 -48.5 147.501 -48.5c60 0 116.5 17 169.5 51s96.167 87.333 129.5 160
l39 -14c-15.333 -48.667 -38.833 -94.5 -70.5 -137.5z" />
    <glyph glyph-name="ordfeminine" unicode="&#xaa;" horiz-adv-x="930" 
d="M932 979l-37.002 -100c-19.333 -53.333 -43.666 -90.333 -72.999 -111s-66.333 -31 -111 -31c-30 0 -52.333 6.5 -67 19.5s-22 34.5 -22 64.5c0 28.667 6.33301 65 19 109l25 86c-92 -186 -194.667 -279 -308 -279c-49.333 0 -88.166 15.167 -116.499 45.5
s-42.5 69.833 -42.5 118.5c0 78.667 26.167 163.667 78.5 255s117.833 168 196.5 230s154 93 226 93c19.333 0 36.5 -6 51.5 -18s23.5 -30.667 25.5 -56l16 55c55.333 0 103 6.33301 143 19l-193 -598c-6.66699 -20 -10 -37 -10 -51c0 -22 11 -33 33 -33
c22.667 0 42.167 9.66699 58.5 29s32.833 53.333 49.5 102l19 51h39zM710.998 1430c-47.333 0 -99.6689 -26.668 -157.002 -80.001s-106 -122.166 -146 -206.499s-60 -170.5 -60 -258.5c0 -30.667 4.33301 -54.5 13 -71.5s21.334 -25.5 38.001 -25.5
c29.333 0 64.833 20.167 106.5 60.5s82.334 93.5 122.001 159.5s71.5 135.667 95.5 209l39 135c-2 52 -19 78 -51 78z" />
    <glyph glyph-name="guillemotleft" unicode="&#xab;" horiz-adv-x="1059" 
d="M531 875c-52 -77.333 -107.499 -150.164 -166.499 -218.497s-112.833 -120.5 -161.5 -156.5c38 -31.333 76.833 -78.333 116.5 -141s75 -129.334 106 -200.001s53.167 -133.334 66.5 -188.001h-37c-120.667 235.333 -256 411 -406 527v4
c104.667 73.333 202.667 157.666 294 252.999s181.666 204 270.999 326h37c-28 -60 -68 -128.667 -120 -206zM872.501 877.002c-51.667 -77.333 -107.499 -150.499 -167.499 -219.499s-114.667 -121.5 -164 -157.5c37.333 -31.333 75.833 -78.333 115.5 -141
s75.167 -129.5 106.5 -200.5s53.333 -133.5 66 -187.5h-36c-120.667 235.333 -256 411 -406 527v4c104.667 73.333 202.667 157.666 294 252.999s181.666 204 270.999 326h37c-26 -58.667 -64.833 -126.667 -116.5 -204z" />
    <glyph glyph-name="logicalnot" unicode="&#xac;" horiz-adv-x="1354" 
d="M1237 758l-121 -420h-74l103 358h-952l18 62h1026z" />
    <glyph glyph-name="softhyphen" unicode="&#xad;" horiz-adv-x="1032" 
 />
    <glyph glyph-name="registered" unicode="&#xae;" horiz-adv-x="1432" 
d="M1115.5 1525c87.667 -51.333 157.167 -120.833 208.5 -208.5s77 -183.167 77 -286.5s-25.667 -198.666 -77 -285.999s-120.833 -156.666 -208.5 -207.999s-183.167 -77 -286.5 -77s-198.666 25.667 -285.999 77s-156.666 120.666 -207.999 207.999
s-77 182.666 -77 285.999s25.667 198.833 77 286.5s120.666 157.167 207.999 208.5s182.666 77 285.999 77s198.833 -25.667 286.5 -77zM1073.5 592.5c74.333 45.667 133.167 107.334 176.5 185.001s65 161.834 65 252.501c0 91.333 -21.667 175.666 -65 252.999
s-102.166 138.833 -176.499 184.5s-155.833 68.5 -244.5 68.5s-170 -22.833 -244 -68.5s-132.667 -107.167 -176 -184.5s-65 -161.666 -65 -252.999c0 -90.667 21.667 -174.834 65 -252.501s102.166 -139.334 176.499 -185.001s155.5 -68.5 243.5 -68.5
c88.667 0 170.167 22.833 244.5 68.5zM1079 784.5c2.66699 -13.667 6.50293 -23.667 11.5029 -30s11.5 -9.5 19.5 -9.5c10 0 18.333 5.66699 25 17l20 -14c-8 -16 -19.167 -27.167 -33.5 -33.5s-33.166 -9.5 -56.499 -9.5c-34.667 0 -60.167 6.33301 -76.5 19
s-28.5 34 -36.5 64l-34 152c-6 27.333 -13.833 47 -23.5 59s-26 20.667 -49 26s-59.167 8.33301 -108.5 9v-207c0 -21.333 1.16699 -37 3.5 -47s6.66602 -16.833 12.999 -20.5s16.5 -6.16699 30.5 -7.5v-31c-13.333 0 -28.833 0.333008 -46.5 1s-36.834 1 -57.501 1
c-23.333 0 -44 -0.333008 -62 -1s-33 -1 -45 -1v31c14 1.33301 24.167 3.83301 30.5 7.5s10.833 10.5 13.5 20.5s4 25.667 4 47v449c0 22 -1.33301 38.167 -4 48.5s-7.16699 17.5 -13.5 21.5s-16.5 6.66699 -30.5 8v30c16.667 -1.33301 49.667 -2 99 -2
c45.333 0 82.5 0.333008 111.5 1s50.5 1 64.5 1c77.333 0 136.166 -14 176.499 -42s60.5 -67.667 60.5 -119c0 -92.667 -66 -150.667 -198 -174c54 -6 92.667 -18.333 116 -37s38.666 -46 45.999 -82l24 -117c1.33301 -5.33301 3.33301 -14.833 6 -28.5zM922.504 1102
c23.667 23.333 35.5 56.666 35.5 99.999c0 52.667 -10.833 91.167 -32.5 115.5s-58.5 36.5 -110.5 36.5c-22 0 -38.5 -1.83301 -49.5 -5.5s-18.5 -10.167 -22.5 -19.5s-6 -23.666 -6 -42.999v-219h49c67.333 0 112.833 11.667 136.5 35z" />
    <glyph glyph-name="macron" unicode="&#xaf;" horiz-adv-x="741" 
d="M236 1407l12 51h639l-13 -51h-638z" />
    <glyph glyph-name="degree" unicode="&#xb0;" horiz-adv-x="686" 
d="M659 1649c38 -20 68.333 -48.667 91 -86s34 -80.333 34 -129c0 -50 -11.333 -93.667 -34 -131s-53 -66.166 -91 -86.499s-79.333 -30.5 -124 -30.5s-85.834 10.167 -123.501 30.5s-67.834 49.166 -90.501 86.499s-34 81 -34 131c0 48.667 11.333 91.667 34 129
s52.834 66 90.501 86s78.834 30 123.501 30s86 -10 124 -30zM629.5 1244.5c30.333 15.667 55.166 39.5 74.499 71.5s29 70.667 29 116c0 44 -9.83301 82.167 -29.5 114.5s-44.667 56.833 -75 73.5s-61.5 25 -93.5 25s-63.167 -8.33301 -93.5 -25
s-55.166 -41.167 -74.499 -73.5s-29 -70.5 -29 -114.5c0 -45.333 9.66699 -84 29 -116s44 -55.833 74 -71.5s61.333 -23.5 94 -23.5s64.167 7.83301 94.5 23.5z" />
    <glyph glyph-name="plusminus" unicode="&#xb1;" horiz-adv-x="1300" 
d="M1026 62l-19 -62h-1026l19 62h1026zM786 1241h74l-137 -483h475l-18 -62h-475l-138 -481h-73l137 481h-477l18 62h477z" />
    <glyph glyph-name="twosuperior" unicode="&#xb2;" 
d="M420.5 1500c55 29.333 115.502 44.0029 181.502 44.0029c50 0 89.5 -9.5 118.5 -28.5s43.5 -48.5 43.5 -88.5c0 -59.333 -27.167 -115.5 -81.5 -168.5s-118.333 -104.833 -192 -155.5s-119.834 -83.667 -138.501 -99c15.333 0 34.833 -1.83301 58.5 -5.5
s57.334 -9.83398 101.001 -18.501s76.5 -13 98.5 -13c28.667 0 52 6.33301 70 19s27 30 27 52c0 16 -3 29 -9 39l35 15c14 -22 21 -44 21 -66c0 -26 -7.33301 -49.5 -22 -70.5s-35.834 -37.667 -63.501 -50s-60.834 -18.5 -99.501 -18.5
c-28.667 0 -59.167 3.83301 -91.5 11.5s-61.5 14 -87.5 19s-55.667 7.5 -89 7.5c-25.333 0 -47 -2.33301 -65 -7s-41.333 -12.334 -70 -23.001l8 37l155 98c90 56.667 164.833 116 224.5 178s89.5 121.333 89.5 178c0 59.333 -37 89 -111 89
c-83.333 0 -156.333 -35.667 -219 -107l-28 23c35.333 43.333 80.5 79.666 135.5 108.999z" />
    <glyph glyph-name="threesuperior" unicode="&#xb3;" horiz-adv-x="668" 
d="M431 1497.5c56.667 31 117.003 46.5029 181.003 46.5029c49.333 0 89 -9.33301 119 -28s45 -46 45 -82c0 -36.667 -15 -71 -45 -103s-67 -59.333 -111 -82s-86.667 -39 -128 -49c64 -2 117.167 -15.167 159.5 -39.5s63.5 -61.5 63.5 -111.5
c0 -64 -32.833 -120.667 -98.5 -170s-147 -88.333 -244 -117s-191.833 -46.334 -284.5 -53.001v36c82.667 6.66699 162.667 23.667 240 51s140.666 64.166 189.999 110.499s74 99.166 74 158.499c0 68.667 -37.667 104 -113 106c-24.667 -13.333 -46.334 -20 -65.001 -20
c-24.667 0 -37 9 -37 27c0 24.667 30 36 90 34c58.667 21.333 105 48.5 139 81.5s51 70.167 51 111.5c0 25.333 -8.33301 44.333 -25 57s-40.334 19 -71.001 19c-81.333 0 -160.333 -38.333 -237 -115l-29 25c34 40 79.333 75.5 136 106.5z" />
    <glyph glyph-name="acute" unicode="&#xb4;" horiz-adv-x="457" 
d="M357.5 1365l105.499 141.5c42.667 58.333 77.334 100.833 104.001 127.5c26.667 30.667 54.667 46 84 46c16.667 0 31.667 -5 45 -15c10.667 -10.667 16 -24 16 -40c0 -27.333 -15.333 -56.333 -46 -87c-24 -25.333 -59.333 -55 -106 -89l-134 -100.5
c-42.667 -33 -91 -73.5 -145 -121.5l-21 18c37.333 44 69.833 84 97.5 120z" />
    <glyph glyph-name="paragraph" unicode="&#xb6;" horiz-adv-x="1311" 
d="M784 -231c-82.667 -102.667 -185.002 -154 -307.002 -154c-62.667 0 -113 9.66699 -151 29s-57.333 47.333 -58 84c0 19.333 5.66699 38.833 17 58.5s26.333 35.667 45 48s38.334 18.5 59.001 18.5c21.333 0 38 -6 50 -18s18 -27.333 18 -46c0 -44 -24 -87.667 -72 -131
c20 -6.66699 44 -10 72 -10c46.667 0 86.5 13.5 119.5 40.5s60.833 63.833 83.5 110.5s44.334 104.667 65.001 174c-226 0 -391 43.667 -495 131s-156 209 -156 365c0 178.667 42.833 343.167 128.5 493.5s202.167 269.5 349.5 357.5s309.333 132 486 132
c39.333 0 92.666 -1 159.999 -3s116.666 -3 147.999 -3c54 0 94.667 1.33301 122 4l-10 -39c-43.333 -2 -77.666 -8.16699 -102.999 -18.5s-44.666 -25 -57.999 -44s-24.333 -44.5 -33 -76.5l-285 -1082c-47.333 -178 -112.333 -318.333 -195 -421zM783.498 345
c-16.333 -106 -24.4961 -180.998 -24.4961 -224.998c0 -14.667 1 -22 3 -22l192 716.5c93.333 349 140.666 525.167 141.999 528.5c-4.66699 0 -19.834 -28.833 -45.501 -86.5s-54.834 -132 -87.501 -223s-63 -185.5 -91 -283.5c-96 0 -188 -2 -276 -6
s-160.667 -8.66699 -218 -14s-86.333 -9 -87 -11c-0.666992 -2.66699 25.666 -6.33398 78.999 -11.001s123.333 -8.83398 210 -12.501s178.667 -5.5 276 -5.5c-32 -124 -56.167 -239 -72.5 -345z" />
    <glyph glyph-name="periodcentered" unicode="&#xb7;" horiz-adv-x="528" 
d="M134 564.5c14.667 24.333 33.833 43.835 57.5 58.502s48.167 22 73.5 22c30.667 0 55.667 -10.167 75 -30.5s29 -45.833 29 -76.5c0 -26.667 -7.16699 -51.834 -21.5 -75.501s-33.5 -42.834 -57.5 -57.501s-49 -22 -75 -22c-30 0 -54.667 10 -74 30s-29 45 -29 75
c0 26.667 7.33301 52.167 22 76.5z" />
    <glyph glyph-name="cedilla" unicode="&#xb8;" horiz-adv-x="467" 
d="M326 -133c27.333 0 48.833 -7.33301 64.5 -22s23.5 -34.667 23.5 -60c0 -37.333 -13 -68.833 -39 -94.5s-58.5 -44.667 -97.5 -57s-77.5 -18.5 -115.5 -18.5c-35.333 0 -67.833 4.5 -97.5 13.5s-51.834 19.5 -66.501 31.5l14 31c20 -8.66699 38.333 -15.334 55 -20.001
s39.334 -7 68.001 -7c18 0 38.5 3.33301 61.5 10s43.167 17.834 60.5 33.501s26 36.167 26 61.5c0 32.667 -19.333 49 -58 49c-22 0 -43 -5 -63 -15l94 197h55l-69 -147c26 9.33301 54 14 84 14z" />
    <glyph glyph-name="onesuperior" unicode="&#xb9;" horiz-adv-x="518" 
d="M319 895l166.001 514.001c-42 -24.667 -81.833 -45.667 -119.5 -63s-83.834 -33.333 -138.501 -48l11 39c60.667 18.667 113.167 39.167 157.5 61.5s80 43.166 107 62.499s62.167 46.333 105.5 81h39l-207 -647h-121z" />
    <glyph glyph-name="ordmasculine" unicode="&#xba;" horiz-adv-x="842" 
d="M271.5 1184c35 82.667 85.333 152.5 151 209.5s142.5 85.5 230.5 85.5c74 0 131.833 -18.167 173.5 -54.5s62.5 -89.833 62.5 -160.5c0 -72 -17.5 -149.167 -52.5 -231.5s-85.333 -151.833 -151 -208.5s-142.5 -85 -230.5 -85c-74 0 -131.833 18 -173.5 54
s-62.5 89 -62.5 159c0 72 17.5 149.333 52.5 232zM507 1358c-42.667 -56 -76.667 -126.668 -102 -212.001s-38 -169 -38 -251c0 -40.667 8 -70.667 24 -90s40.667 -29 74 -29c48 0 93.333 27.833 136 83.5s76.667 126.334 102 212.001s38 169.5 38 251.5
c0 40.667 -8 70.667 -24 90s-40.667 29 -74 29c-48 0 -93.333 -28 -136 -84z" />
    <glyph glyph-name="guillemotright" unicode="&#xbb;" horiz-adv-x="1057" 
d="M633 553l0.00195312 -2c-104.667 -74.667 -202.834 -159.5 -294.501 -254.5s-181.834 -203.5 -270.501 -325.5h-37c28 60 68 128.667 120 206s107.5 150.333 166.5 219s112.833 121 161.5 157c-38 31.333 -76.833 78.166 -116.5 140.499s-75 128.833 -106 199.5
s-53.167 133.334 -66.5 188.001h37c120.667 -236 256 -412 406 -528zM971.002 553v-2c-200 -142 -388.333 -335.333 -565 -580h-37c28 60 68 128.667 120 206s107.5 150.333 166.5 219s112.833 121 161.5 157c-38 31.333 -76.833 78.166 -116.5 140.499
s-75 128.833 -106 199.5s-53.167 133.334 -66.5 188.001h37c120.667 -236 256 -412 406 -528z" />
    <glyph glyph-name="onequarter" unicode="&#xbc;" horiz-adv-x="1241" 
d="M-203 -113l-31 27l1706 1774l31 -27zM319 895l166.001 514.001c-42 -24.667 -81.833 -45.667 -119.5 -63s-83.834 -33.333 -138.501 -48l11 39c60.667 18.667 113.167 39.167 157.5 61.5s80 43.166 107 62.499s62.167 46.333 105.5 81h39l-207 -647h-121z
M921.001 149.001l-23 -83h-116l-70 -240h-107l70 240h-387l10 36l615 547h39l-146 -500h115zM799.001 496.001l-392 -347h292z" />
    <glyph glyph-name="onehalf" unicode="&#xbd;" horiz-adv-x="1241" 
d="M-203 -113l-31 27l1706 1774l31 -27zM319 895l166.001 514.001c-42 -24.667 -81.833 -45.667 -119.5 -63s-83.834 -33.333 -138.501 -48l11 39c60.667 18.667 113.167 39.167 157.5 61.5s80 43.166 107 62.499s62.167 46.333 105.5 81h39l-207 -647h-121z
M741.501 605.001c55 29.333 115.502 44.0029 181.502 44.0029c50 0 89.5 -9.5 118.5 -28.5s43.5 -48.5 43.5 -88.5c0 -59.333 -27.167 -115.5 -81.5 -168.5s-118.333 -104.833 -192 -155.5s-119.834 -83.667 -138.501 -99c15.333 0 34.833 -1.83301 58.5 -5.5
s57.334 -9.83398 101.001 -18.501s76.5 -13 98.5 -13c28.667 0 52 6.33301 70 19s27 30 27 52c0 16 -3 29 -9 39l35 15c14 -22 21 -44 21 -66c0 -26 -7.33301 -49.5 -22 -70.5s-35.834 -37.667 -63.501 -50s-60.834 -18.5 -99.501 -18.5
c-28.667 0 -59.167 3.83301 -91.5 11.5s-61.5 14 -87.5 19s-55.667 7.5 -89 7.5c-25.333 0 -47 -2.33301 -65 -7s-41.333 -12.334 -70 -23.001l8 37l155 98c90 56.667 164.833 116 224.5 178s89.5 121.333 89.5 178c0 59.333 -37 89 -111 89
c-83.333 0 -156.333 -35.667 -219 -107l-28 23c35.333 43.333 80.5 79.666 135.5 108.999z" />
    <glyph glyph-name="threequarters" unicode="&#xbe;" horiz-adv-x="1446" 
d="M2 -113l-31 27l1706 1774l31 -27zM431 1497.5c56.667 31 117.003 46.5029 181.003 46.5029c49.333 0 89 -9.33301 119 -28s45 -46 45 -82c0 -36.667 -15 -71 -45 -103s-67 -59.333 -111 -82s-86.667 -39 -128 -49c64 -2 117.167 -15.167 159.5 -39.5
s63.5 -61.5 63.5 -111.5c0 -64 -32.833 -120.667 -98.5 -170s-147 -88.333 -244 -117s-191.833 -46.334 -284.5 -53.001v36c82.667 6.66699 162.667 23.667 240 51s140.666 64.166 189.999 110.499s74 99.166 74 158.499c0 68.667 -37.667 104 -113 106
c-24.667 -13.333 -46.334 -20 -65.001 -20c-24.667 0 -37 9 -37 27c0 24.667 30 36 90 34c58.667 21.333 105 48.5 139 81.5s51 70.167 51 111.5c0 25.333 -8.33301 44.333 -25 57s-40.334 19 -71.001 19c-81.333 0 -160.333 -38.333 -237 -115l-29 25
c34 40 79.333 75.5 136 106.5zM1126 149.003l-23 -83h-116l-70 -240h-107l70 240h-387l10 36l615 547h39l-146 -500h115zM1004 496.003l-392 -347h292z" />
    <glyph glyph-name="questiondown" unicode="&#xbf;" horiz-adv-x="913" 
d="M431 1000.5c14.667 24.333 33.833 43.835 57.5 58.502s48.167 22 73.5 22c30.667 0 55.667 -10.167 75 -30.5s29 -45.833 29 -76.5c0 -26.667 -7.16699 -51.834 -21.5 -75.501s-33.5 -42.834 -57.5 -57.501s-49 -22 -75 -22c-30 0 -54.667 10 -74 30s-29 45 -29 75
c0 26.667 7.33301 52.167 22 76.5zM407.999 -323.998c51.333 17.333 83.334 41.9951 96.001 73.9951c-12.667 3.33301 -24.334 12.833 -35.001 28.5s-16 33.5 -16 53.5c0 29.333 10.333 53.333 31 72s46.334 28 77.001 28c26.667 0 47 -7.66699 61 -23s21 -36.333 21 -63
c0 -44 -20.5 -83.667 -61.5 -119s-94.667 -62.833 -161 -82.5s-135.5 -29.5 -207.5 -29.5c-90 0 -162.333 17.5 -217 52.5s-82 84.5 -82 148.5c0 41.333 10.667 78.833 32 112.5s54.833 68.834 100.5 105.501s114.167 85.334 205.5 146.001l125.5 88
c59.667 41.333 100.334 76.833 122.001 106.5s32.5 62.5 32.5 98.5c0 24.667 -5.83301 47.667 -17.5 69s-28 38.333 -49 51s-45.167 19 -72.5 19c-43.333 0 -85.833 -8.16699 -127.5 -24.5s-70.834 -38.166 -87.501 -65.499c13.333 -1.33301 25.666 -9.16602 36.999 -23.499
s16.666 -30.166 15.999 -47.499c0 -22 -8.66699 -41.5 -26 -58.5s-39.333 -25.5 -66 -25.5c-46 0 -69 23.667 -69 71c0 40.667 18.667 77 56 109s84.333 56.667 141 74s112.334 26 167.001 26c71.333 0 128.5 -17 171.5 -51s64.5 -82.333 64.5 -145
c0 -48.667 -13.833 -93 -41.5 -133s-59.667 -74 -96 -102s-103.833 -77.333 -202.5 -148c-66 -44 -116.5 -80 -151.5 -108s-61.167 -55.5 -78.5 -82.5s-26 -56.5 -26 -88.5c0 -40 15.667 -73.167 47 -99.5s75 -39.5 131 -39.5c52.667 0 104.667 8.66699 156 26z" />
    <glyph glyph-name="Agrave" unicode="&#xc0;" horiz-adv-x="1288" 
d="M1066.5 74c19.667 -20.667 41.833 -31.666 66.5 -32.999l-9 -41c-54.667 4 -129 6 -223 6c-110 0 -192 -2 -246 -6l9 41c46.667 2 82.667 7.83301 108 17.5s43.5 26.334 54.5 50.001s15.5 58.5 13.5 104.5l-19 336h-503l-154 -217c-64 -90.667 -96 -158.667 -96 -204
c0 -56 50.333 -85 151 -87l-10 -41c-76 4 -154 6 -234 6c-59.333 0 -110.333 -2 -153 -6l10 41c62.667 13.333 131 72.666 205 177.999l883 1241h30l82 -1288c3.33301 -44.667 14.833 -77.334 34.5 -98.001zM784.999 1209l-438 -619h472zM892.999 1653l-117.996 84.501
c-48.667 34.333 -83.667 62.166 -105 83.499c-10.667 10.667 -19.834 23.167 -27.501 37.5s-11.5 28.5 -11.5 42.5c0 15.333 4.66699 29 14 41c11.333 13.333 26.666 20 45.999 20c15.333 0 31.166 -4 47.499 -12s30.166 -18.333 41.499 -31
c19.333 -20.667 42 -50.667 68 -90l75.5 -112.5c24.333 -35.667 54.5 -76.167 90.5 -121.5l-21 -20c-36.667 30 -70 56 -100 78z" />
    <glyph glyph-name="Aacute" unicode="&#xc1;" horiz-adv-x="1288" 
d="M1066.5 74c19.667 -20.667 41.833 -31.666 66.5 -32.999l-9 -41c-54.667 4 -129 6 -223 6c-110 0 -192 -2 -246 -6l9 41c46.667 2 82.667 7.83301 108 17.5s43.5 26.334 54.5 50.001s15.5 58.5 13.5 104.5l-19 336h-503l-154 -217c-64 -90.667 -96 -158.667 -96 -204
c0 -56 50.333 -85 151 -87l-10 -41c-76 4 -154 6 -234 6c-59.333 0 -110.333 -2 -153 -6l10 41c62.667 13.333 131 72.666 205 177.999l883 1241h30l82 -1288c3.33301 -44.667 14.833 -77.334 34.5 -98.001zM784.999 1209l-438 -619h472zM937.999 1695.5l139.998 106.5
c56 43.333 99.333 74 130 92c26 16 52 24 78 24c28.667 0 48 -11.333 58 -34c2.66699 -6 4 -12.667 4 -20c0 -16.667 -7.16699 -33.167 -21.5 -49.5s-31.166 -29.833 -50.499 -40.5c-29.333 -17.333 -71.166 -36 -125.499 -56l-157 -60
c-50.333 -20 -107.833 -45.667 -172.5 -77l-14 23c50 33.333 93.667 63.833 131 91.5z" />
    <glyph glyph-name="Acircumflex" unicode="&#xc2;" horiz-adv-x="1288" 
d="M1066.5 74c19.667 -20.667 41.833 -31.666 66.5 -32.999l-9 -41c-54.667 4 -129 6 -223 6c-110 0 -192 -2 -246 -6l9 41c46.667 2 82.667 7.83301 108 17.5s43.5 26.334 54.5 50.001s15.5 58.5 13.5 104.5l-19 336h-503l-154 -217c-64 -90.667 -96 -158.667 -96 -204
c0 -56 50.333 -85 151 -87l-10 -41c-76 4 -154 6 -234 6c-59.333 0 -110.333 -2 -153 -6l10 41c62.667 13.333 131 72.666 205 177.999l883 1241h30l82 -1288c3.33301 -44.667 14.833 -77.334 34.5 -98.001zM784.999 1209l-438 -619h472zM1146 1629.5
c-45.333 18.333 -84.498 36.667 -117.498 55s-54.833 30.166 -65.5 35.499c-150.667 -63.333 -291.334 -109.666 -422.001 -138.999l-10 29c98 30 189.5 68.667 274.5 116s153.833 97.333 206.5 150h37c38 -66 78.667 -120.333 122 -163s97.666 -77 162.999 -103l-9 -29
c-74 14 -133.667 30.167 -179 48.5z" />
    <glyph glyph-name="Atilde" unicode="&#xc3;" horiz-adv-x="1288" 
d="M1066.5 74c19.667 -20.667 41.833 -31.666 66.5 -32.999l-9 -41c-54.667 4 -129 6 -223 6c-110 0 -192 -2 -246 -6l9 41c46.667 2 82.667 7.83301 108 17.5s43.5 26.334 54.5 50.001s15.5 58.5 13.5 104.5l-19 336h-503l-154 -217c-64 -90.667 -96 -158.667 -96 -204
c0 -56 50.333 -85 151 -87l-10 -41c-76 4 -154 6 -234 6c-59.333 0 -110.333 -2 -153 -6l10 41c62.667 13.333 131 72.666 205 177.999l883 1241h30l82 -1288c3.33301 -44.667 14.833 -77.334 34.5 -98.001zM784.999 1209l-438 -619h472zM706.499 1781.5
c47.667 34.333 97.833 51.5 150.5 51.5c44 0 80.333 -7 109 -21s65.667 -39 111 -75s90 -54 134 -54c52 0 99.667 39.667 143 119l37 -10c-30 -71.333 -68.833 -124.333 -116.5 -159s-97.5 -52 -149.5 -52c-44 0 -80.333 7 -109 21s-65.667 39 -111 75s-90 54 -134 54
c-52.667 0 -100.667 -39.667 -144 -119l-37 10c30 72 68.833 125.167 116.5 159.5z" />
    <glyph glyph-name="Adieresis" unicode="&#xc4;" horiz-adv-x="1288" 
d="M1066.5 74c19.667 -20.667 41.833 -31.666 66.5 -32.999l-9 -41c-54.667 4 -129 6 -223 6c-110 0 -192 -2 -246 -6l9 41c46.667 2 82.667 7.83301 108 17.5s43.5 26.334 54.5 50.001s15.5 58.5 13.5 104.5l-19 336h-503l-154 -217c-64 -90.667 -96 -158.667 -96 -204
c0 -56 50.333 -85 151 -87l-10 -41c-76 4 -154 6 -234 6c-59.333 0 -110.333 -2 -153 -6l10 41c62.667 13.333 131 72.666 205 177.999l883 1241h30l82 -1288c3.33301 -44.667 14.833 -77.334 34.5 -98.001zM784.999 1209l-438 -619h472zM624.999 1748
c12.667 20.667 29.666 37.665 50.999 50.998s44 20 68 20c28.667 0 52.834 -10 72.501 -30s29.5 -44.333 29.5 -73c0 -22 -6.33301 -43.5 -19 -64.5s-29.5 -38 -50.5 -51s-43.5 -19.5 -67.5 -19.5c-30.667 0 -55.5 9.83301 -74.5 29.5s-28.5 44.834 -28.5 75.501
c0 20.667 6.33301 41.334 19 62.001zM1060 1748c12.667 20.667 29.499 37.666 50.499 50.999s43.5 20 67.5 20c28.667 0 52.834 -10 72.501 -30s29.5 -44.333 29.5 -73c0 -22 -6.33301 -43.5 -19 -64.5s-29.5 -38 -50.5 -51s-43.5 -19.5 -67.5 -19.5
c-30 0 -54.5 10 -73.5 30s-28.5 45 -28.5 75c0 20.667 6.33301 41.334 19 62.001z" />
    <glyph glyph-name="Aring" unicode="&#xc5;" horiz-adv-x="1288" 
d="M1066.5 74c19.667 -20.667 41.833 -31.666 66.5 -32.999l-9 -41c-54.667 4 -129 6 -223 6c-110 0 -192 -2 -246 -6l9 41c46.667 2 82.667 7.83301 108 17.5s43.5 26.334 54.5 50.001s15.5 58.5 13.5 104.5l-19 336h-503l-154 -217c-64 -90.667 -96 -158.667 -96 -204
c0 -56 50.333 -85 151 -87l-10 -41c-76 4 -154 6 -234 6c-59.333 0 -110.333 -2 -153 -6l10 41c62.667 13.333 131 72.666 205 177.999l883 1241h30l82 -1288c3.33301 -44.667 14.833 -77.334 34.5 -98.001zM784.999 1209l-438 -619h472zM1085 1874
c26.667 -13.333 47.8301 -32.334 63.4971 -57.001s23.5 -53.334 23.5 -86.001c0 -37.333 -10.667 -72.166 -32 -104.499s-49.666 -58.166 -84.999 -77.499s-72.666 -29 -111.999 -29c-49.333 0 -90 14.667 -122 44s-48 69 -48 119c0 38.667 10 74.167 30 106.5
s47 57.833 81 76.5s71.333 28 112 28c32.667 0 62.334 -6.66699 89.001 -20zM1033 1585c26 14.667 46.833 35 62.5 61s23.5 55 23.5 87c0 24.667 -6.33301 45.834 -19 63.501s-29 31.167 -49 40.5s-41 14 -63 14c-27.333 0 -53.5 -7.83301 -78.5 -23.5
s-45.167 -36.167 -60.5 -61.5s-23 -52 -23 -80c0 -38.667 12.333 -68.834 37 -90.501s54 -32.5 88 -32.5c28.667 0 56 7.33301 82 22z" />
    <glyph glyph-name="AE" unicode="&#xc6;" horiz-adv-x="1837" 
d="M1354.5 1444l134.5 0.00195312c196.667 0 338 2 424 6c-21.333 -59.333 -47.333 -140 -78 -242c-12.667 -45.333 -21.667 -87.666 -27 -126.999h-45c10 57.333 15 105.666 15 144.999c0 64 -14.167 109.5 -42.5 136.5s-74.5 40.5 -138.5 40.5h-190
c-47.333 0 -82.833 -4 -106.5 -12s-42.667 -23.5 -57 -46.5s-28.166 -60.167 -41.499 -111.5l-128 -483h220c38.667 0 70.834 10.167 96.501 30.5s46.334 45.666 62.001 75.999s33.167 71.166 52.5 122.499h45c-17.333 -54 -40.333 -137.333 -69 -250
c-14.667 -50 -32.667 -133.333 -54 -250h-45c0 13.333 1.83301 34.333 5.5 63s5.5 50 5.5 64c0 30 -7.66699 54 -23 72s-43.333 28.333 -84 31h-223l-131 -492c-12 -46.667 -18 -80 -18 -100c0 -19.333 4.5 -34 13.5 -44s22.833 -16.833 41.5 -20.5s45.334 -5.5 80.001 -5.5
h211c66 0 120 11.333 162 34s78.5 59.667 109.5 111s62.5 124 94.5 218h45c-12.667 -33.333 -27 -82.666 -43 -147.999c-23.333 -84.667 -41 -172 -53 -262c-92.667 4 -247 6 -463 6c-259.333 0 -456 -2 -590 -6l8 41c49.333 2 86.333 7.33301 111 16s44.167 24.667 58.5 48
s28.166 60.666 41.499 111.999l131 492h-333l-457 -516c-39.333 -44.667 -59 -77 -59 -97c0 -30 42.333 -48.333 127 -55v-41c-36.667 4 -95.667 6 -177 6c-58 0 -103.667 -2 -137 -6v41c43.333 2 102 45.667 176 131l1017 1150c1.33301 22.667 -2.33398 40 -11.001 52
s-22.834 20.5 -42.501 25.5s-47.834 8.16699 -84.501 9.5l10 41c66 -2 145 -3.33301 237 -4l122 137h53l-122 -138c58 -0.666992 112.5 -1 163.5 -1zM1012 1233l4 14l-441 -497h308z" />
    <glyph glyph-name="Ccedilla" unicode="&#xc7;" horiz-adv-x="1372" 
d="M1327 979h-44.999c8 53.333 12 100 12 140c0 64 -10.667 118.333 -32 163c-25.333 50.667 -62.166 90 -110.499 118s-101.166 42 -158.499 42c-113.333 0 -222.833 -53.333 -328.5 -160s-191.334 -240.834 -257.001 -402.501s-98.5 -318.167 -98.5 -469.5
c0 -132 25.833 -232 77.5 -300s123.5 -102 215.5 -102c60 0 123.5 14 190.5 42s125.167 67.333 174.5 118c34.667 35.333 65.167 76.666 91.5 123.999s57.166 114 92.499 200h45c-62 -226.667 -102.333 -390.667 -121 -492h-45c4 29.333 6 52.666 6 69.999
c0 34.667 -8 52 -24 52c-10.667 0 -25 -6 -43 -18c-48.667 -31.333 -89.5 -55.666 -122.5 -72.999s-71.167 -31.666 -114.5 -42.999s-93.333 -17 -150 -17c-152 0 -269.667 41 -353 123s-125 201.667 -125 359s39.333 315.833 118 475.5s186.5 291.334 323.5 395.001
s287.5 155.5 451.5 155.5c55.333 0 101.666 -6 138.999 -18s67.5 -26.833 90.5 -44.5s48.5 -41.167 76.5 -70.5c12 -12 22.333 -18 31 -18c24 0 51 40.667 81 122h43c-45.333 -118 -89 -275 -131 -471zM649.001 -133c34 0 60.665 -7.33496 79.998 -22.002s29 -34.667 29 -60
c0 -37.333 -16.167 -68.833 -48.5 -94.5s-72.666 -44.667 -120.999 -57s-96.166 -18.5 -143.499 -18.5c-44.667 0 -85 4.33301 -121 13s-64 19.334 -84 32.001l14 31c47.333 -18 102 -27 164 -27c25.333 0 54.333 3.33301 87 10s61.167 17.834 85.5 33.501
s36.5 36.167 36.5 61.5c0 32.667 -26 49 -78 49c-28 0 -56 -5 -84 -15l98 205h56l-74 -155c34 9.33301 68.667 14 104 14z" />
    <glyph glyph-name="Egrave" unicode="&#xc8;" horiz-adv-x="1249" 
d="M907 1444c191.333 0 327.339 2.00293 408.006 6.00293c-36 -98.667 -62 -179.334 -78 -242.001c-15.333 -53.333 -25 -95.666 -29 -126.999h-47c12 73.333 18 128.333 18 165c0 39.333 -6.33301 70.166 -19 92.499s-33.834 38.666 -63.501 48.999
s-70.834 15.5 -123.501 15.5h-150c-48.667 0 -85.167 -4 -109.5 -12s-43.833 -23.5 -58.5 -46.5s-29 -60.167 -43 -111.5l-129 -483h135c68 0 119 20.333 153 61s59.333 82.334 76 125.001s28 70.667 34 84h47c-28 -86 -48.167 -153 -60.5 -201s-20.166 -78 -23.499 -90
c-18 -64 -40 -161 -66 -291h-47c1.33301 9.33301 4.33301 29 9 59s7 56.667 7 80c0 42 -10.333 74.5 -31 97.5s-57.334 34.5 -110.001 34.5h-134l-132 -492c-12 -42.667 -18 -75.667 -18 -99c0 -20 4.66699 -35 14 -45s23.666 -16.833 42.999 -20.5s46.666 -5.5 81.999 -5.5
h149c85.333 0 153.166 11.333 203.499 34s92.166 59 125.499 109s67.666 123.333 102.999 220h48c-13.333 -33.333 -28.666 -82.666 -45.999 -147.999c-20 -73.333 -38.333 -160.666 -55 -261.999c-92.667 4 -249 6 -469 6c-262 0 -459.333 -2 -592 -6l11 41
c49.333 2 86 7.33301 110 16s43.333 24.667 58 48s29 60.666 43 111.999l272 1016c12 43.333 18 76.666 18 99.999c0 20 -4.5 35.167 -13.5 45.5s-23 17.666 -42 21.999s-46.167 7.16602 -81.5 8.49902l10 41c134 -4 332 -6 594 -6zM821.006 1653l-117.996 84.501
c-48.667 34.333 -83.667 62.166 -105 83.499c-10.667 10.667 -19.834 23.167 -27.501 37.5s-11.5 28.5 -11.5 42.5c0 15.333 4.66699 29 14 41c11.333 13.333 26.666 20 45.999 20c15.333 0 31.166 -4 47.499 -12s30.166 -18.333 41.499 -31
c19.333 -20.667 42 -50.667 68 -90l75.5 -112.5c24.333 -35.667 54.5 -76.167 90.5 -121.5l-21 -20c-36.667 30 -70 56 -100 78z" />
    <glyph glyph-name="Eacute" unicode="&#xc9;" horiz-adv-x="1249" 
d="M907 1444c191.333 0 327.339 2.00293 408.006 6.00293c-36 -98.667 -62 -179.334 -78 -242.001c-15.333 -53.333 -25 -95.666 -29 -126.999h-47c12 73.333 18 128.333 18 165c0 39.333 -6.33301 70.166 -19 92.499s-33.834 38.666 -63.501 48.999
s-70.834 15.5 -123.501 15.5h-150c-48.667 0 -85.167 -4 -109.5 -12s-43.833 -23.5 -58.5 -46.5s-29 -60.167 -43 -111.5l-129 -483h135c68 0 119 20.333 153 61s59.333 82.334 76 125.001s28 70.667 34 84h47c-28 -86 -48.167 -153 -60.5 -201s-20.166 -78 -23.499 -90
c-18 -64 -40 -161 -66 -291h-47c1.33301 9.33301 4.33301 29 9 59s7 56.667 7 80c0 42 -10.333 74.5 -31 97.5s-57.334 34.5 -110.001 34.5h-134l-132 -492c-12 -42.667 -18 -75.667 -18 -99c0 -20 4.66699 -35 14 -45s23.666 -16.833 42.999 -20.5s46.666 -5.5 81.999 -5.5
h149c85.333 0 153.166 11.333 203.499 34s92.166 59 125.499 109s67.666 123.333 102.999 220h48c-13.333 -33.333 -28.666 -82.666 -45.999 -147.999c-20 -73.333 -38.333 -160.666 -55 -261.999c-92.667 4 -249 6 -469 6c-262 0 -459.333 -2 -592 -6l11 41
c49.333 2 86 7.33301 110 16s43.333 24.667 58 48s29 60.666 43 111.999l272 1016c12 43.333 18 76.666 18 99.999c0 20 -4.5 35.167 -13.5 45.5s-23 17.666 -42 21.999s-46.167 7.16602 -81.5 8.49902l10 41c134 -4 332 -6 594 -6zM866.006 1695.5l139.998 106.5
c56 43.333 99.333 74 130 92c26 16 52 24 78 24c28.667 0 48 -11.333 58 -34c2.66699 -6 4 -12.667 4 -20c0 -16.667 -7.16699 -33.167 -21.5 -49.5s-31.166 -29.833 -50.499 -40.5c-29.333 -17.333 -71.166 -36 -125.499 -56l-157 -60
c-50.333 -20 -107.833 -45.667 -172.5 -77l-14 23c50 33.333 93.667 63.833 131 91.5z" />
    <glyph glyph-name="Ecircumflex" unicode="&#xca;" horiz-adv-x="1249" 
d="M907 1444c191.333 0 327.339 2.00293 408.006 6.00293c-36 -98.667 -62 -179.334 -78 -242.001c-15.333 -53.333 -25 -95.666 -29 -126.999h-47c12 73.333 18 128.333 18 165c0 39.333 -6.33301 70.166 -19 92.499s-33.834 38.666 -63.501 48.999
s-70.834 15.5 -123.501 15.5h-150c-48.667 0 -85.167 -4 -109.5 -12s-43.833 -23.5 -58.5 -46.5s-29 -60.167 -43 -111.5l-129 -483h135c68 0 119 20.333 153 61s59.333 82.334 76 125.001s28 70.667 34 84h47c-28 -86 -48.167 -153 -60.5 -201s-20.166 -78 -23.499 -90
c-18 -64 -40 -161 -66 -291h-47c1.33301 9.33301 4.33301 29 9 59s7 56.667 7 80c0 42 -10.333 74.5 -31 97.5s-57.334 34.5 -110.001 34.5h-134l-132 -492c-12 -42.667 -18 -75.667 -18 -99c0 -20 4.66699 -35 14 -45s23.666 -16.833 42.999 -20.5s46.666 -5.5 81.999 -5.5
h149c85.333 0 153.166 11.333 203.499 34s92.166 59 125.499 109s67.666 123.333 102.999 220h48c-13.333 -33.333 -28.666 -82.666 -45.999 -147.999c-20 -73.333 -38.333 -160.666 -55 -261.999c-92.667 4 -249 6 -469 6c-262 0 -459.333 -2 -592 -6l11 41
c49.333 2 86 7.33301 110 16s43.333 24.667 58 48s29 60.666 43 111.999l272 1016c12 43.333 18 76.666 18 99.999c0 20 -4.5 35.167 -13.5 45.5s-23 17.666 -42 21.999s-46.167 7.16602 -81.5 8.49902l10 41c134 -4 332 -6 594 -6zM1074.01 1629.5
c-45.333 18.333 -84.498 36.667 -117.498 55s-54.833 30.166 -65.5 35.499c-150.667 -63.333 -291.334 -109.666 -422.001 -138.999l-10 29c98 30 189.5 68.667 274.5 116s153.833 97.333 206.5 150h37c38 -66 78.667 -120.333 122 -163s97.666 -77 162.999 -103l-9 -29
c-74 14 -133.667 30.167 -179 48.5z" />
    <glyph glyph-name="Edieresis" unicode="&#xcb;" horiz-adv-x="1249" 
d="M907 1444c191.333 0 327.339 2.00293 408.006 6.00293c-36 -98.667 -62 -179.334 -78 -242.001c-15.333 -53.333 -25 -95.666 -29 -126.999h-47c12 73.333 18 128.333 18 165c0 39.333 -6.33301 70.166 -19 92.499s-33.834 38.666 -63.501 48.999
s-70.834 15.5 -123.501 15.5h-150c-48.667 0 -85.167 -4 -109.5 -12s-43.833 -23.5 -58.5 -46.5s-29 -60.167 -43 -111.5l-129 -483h135c68 0 119 20.333 153 61s59.333 82.334 76 125.001s28 70.667 34 84h47c-28 -86 -48.167 -153 -60.5 -201s-20.166 -78 -23.499 -90
c-18 -64 -40 -161 -66 -291h-47c1.33301 9.33301 4.33301 29 9 59s7 56.667 7 80c0 42 -10.333 74.5 -31 97.5s-57.334 34.5 -110.001 34.5h-134l-132 -492c-12 -42.667 -18 -75.667 -18 -99c0 -20 4.66699 -35 14 -45s23.666 -16.833 42.999 -20.5s46.666 -5.5 81.999 -5.5
h149c85.333 0 153.166 11.333 203.499 34s92.166 59 125.499 109s67.666 123.333 102.999 220h48c-13.333 -33.333 -28.666 -82.666 -45.999 -147.999c-20 -73.333 -38.333 -160.666 -55 -261.999c-92.667 4 -249 6 -469 6c-262 0 -459.333 -2 -592 -6l11 41
c49.333 2 86 7.33301 110 16s43.333 24.667 58 48s29 60.666 43 111.999l272 1016c12 43.333 18 76.666 18 99.999c0 20 -4.5 35.167 -13.5 45.5s-23 17.666 -42 21.999s-46.167 7.16602 -81.5 8.49902l10 41c134 -4 332 -6 594 -6zM553.006 1748
c12.667 20.667 29.666 37.665 50.999 50.998s44 20 68 20c28.667 0 52.834 -10 72.501 -30s29.5 -44.333 29.5 -73c0 -22 -6.33301 -43.5 -19 -64.5s-29.5 -38 -50.5 -51s-43.5 -19.5 -67.5 -19.5c-30.667 0 -55.5 9.83301 -74.5 29.5s-28.5 44.834 -28.5 75.501
c0 20.667 6.33301 41.334 19 62.001zM988.005 1748c12.667 20.667 29.499 37.666 50.499 50.999s43.5 20 67.5 20c28.667 0 52.834 -10 72.501 -30s29.5 -44.333 29.5 -73c0 -22 -6.33301 -43.5 -19 -64.5s-29.5 -38 -50.5 -51s-43.5 -19.5 -67.5 -19.5
c-30 0 -54.5 10 -73.5 30s-28.5 45 -28.5 75c0 20.667 6.33301 41.334 19 62.001z" />
    <glyph glyph-name="Igrave" unicode="&#xcc;" 
d="M323 118c0 -20 4.5 -35.3369 13.5 -46.0039s23.167 -18.167 42.5 -22.5s46.666 -7.16602 81.999 -8.49902l-8 -41c-64 4 -150.667 6 -260 6c-114 0 -201 -2 -261 -6l11 41c48 2 84 7.33301 108 16s43.167 24.834 57.5 48.501s28.166 60.834 41.499 111.501l270 1016
c11.333 43.333 17 76 17 98c0 20.667 -4.66699 36.334 -14 47.001s-23.5 18.167 -42.5 22.5s-46.167 7.16602 -81.5 8.49902l10 41c56 -4 142.667 -6 260 -6c110 0 197.333 2 262 6l-10 -41c-50 -2 -87.167 -7.33301 -111.5 -16s-43.666 -24.667 -57.999 -48
s-28.166 -60.666 -41.499 -111.999l-270 -1016c-11.333 -44 -17 -77 -17 -99zM571 1653l-117.996 84.501c-48.667 34.333 -83.667 62.166 -105 83.499c-10.667 10.667 -19.834 23.167 -27.501 37.5s-11.5 28.5 -11.5 42.5c0 15.333 4.66699 29 14 41
c11.333 13.333 26.666 20 45.999 20c15.333 0 31.166 -4 47.499 -12s30.166 -18.333 41.499 -31c19.333 -20.667 42 -50.667 68 -90l75.5 -112.5c24.333 -35.667 54.5 -76.167 90.5 -121.5l-21 -20c-36.667 30 -70 56 -100 78z" />
    <glyph glyph-name="Iacute" unicode="&#xcd;" 
d="M323 118c0 -20 4.5 -35.3369 13.5 -46.0039s23.167 -18.167 42.5 -22.5s46.666 -7.16602 81.999 -8.49902l-8 -41c-64 4 -150.667 6 -260 6c-114 0 -201 -2 -261 -6l11 41c48 2 84 7.33301 108 16s43.167 24.834 57.5 48.501s28.166 60.834 41.499 111.501l270 1016
c11.333 43.333 17 76 17 98c0 20.667 -4.66699 36.334 -14 47.001s-23.5 18.167 -42.5 22.5s-46.167 7.16602 -81.5 8.49902l10 41c56 -4 142.667 -6 260 -6c110 0 197.333 2 262 6l-10 -41c-50 -2 -87.167 -7.33301 -111.5 -16s-43.666 -24.667 -57.999 -48
s-28.166 -60.666 -41.499 -111.999l-270 -1016c-11.333 -44 -17 -77 -17 -99zM616 1695.5l139.998 106.5c56 43.333 99.333 74 130 92c26 16 52 24 78 24c28.667 0 48 -11.333 58 -34c2.66699 -6 4 -12.667 4 -20c0 -16.667 -7.16699 -33.167 -21.5 -49.5
s-31.166 -29.833 -50.499 -40.5c-29.333 -17.333 -71.166 -36 -125.499 -56l-157 -60c-50.333 -20 -107.833 -45.667 -172.5 -77l-14 23c50 33.333 93.667 63.833 131 91.5z" />
    <glyph glyph-name="Icircumflex" unicode="&#xce;" 
d="M323 118c0 -20 4.5 -35.3369 13.5 -46.0039s23.167 -18.167 42.5 -22.5s46.666 -7.16602 81.999 -8.49902l-8 -41c-64 4 -150.667 6 -260 6c-114 0 -201 -2 -261 -6l11 41c48 2 84 7.33301 108 16s43.167 24.834 57.5 48.501s28.166 60.834 41.499 111.501l270 1016
c11.333 43.333 17 76 17 98c0 20.667 -4.66699 36.334 -14 47.001s-23.5 18.167 -42.5 22.5s-46.167 7.16602 -81.5 8.49902l10 41c56 -4 142.667 -6 260 -6c110 0 197.333 2 262 6l-10 -41c-50 -2 -87.167 -7.33301 -111.5 -16s-43.666 -24.667 -57.999 -48
s-28.166 -60.666 -41.499 -111.999l-270 -1016c-11.333 -44 -17 -77 -17 -99zM824 1629.5c-45.333 18.333 -84.498 36.667 -117.498 55s-54.833 30.166 -65.5 35.499c-150.667 -63.333 -291.334 -109.666 -422.001 -138.999l-10 29c98 30 189.5 68.667 274.5 116
s153.833 97.333 206.5 150h37c38 -66 78.667 -120.333 122 -163s97.666 -77 162.999 -103l-9 -29c-74 14 -133.667 30.167 -179 48.5z" />
    <glyph glyph-name="Idieresis" unicode="&#xcf;" 
d="M323 118c0 -20 4.5 -35.3369 13.5 -46.0039s23.167 -18.167 42.5 -22.5s46.666 -7.16602 81.999 -8.49902l-8 -41c-64 4 -150.667 6 -260 6c-114 0 -201 -2 -261 -6l11 41c48 2 84 7.33301 108 16s43.167 24.834 57.5 48.501s28.166 60.834 41.499 111.501l270 1016
c11.333 43.333 17 76 17 98c0 20.667 -4.66699 36.334 -14 47.001s-23.5 18.167 -42.5 22.5s-46.167 7.16602 -81.5 8.49902l10 41c56 -4 142.667 -6 260 -6c110 0 197.333 2 262 6l-10 -41c-50 -2 -87.167 -7.33301 -111.5 -16s-43.666 -24.667 -57.999 -48
s-28.166 -60.666 -41.499 -111.999l-270 -1016c-11.333 -44 -17 -77 -17 -99zM303 1748c12.667 20.667 29.666 37.665 50.999 50.998s44 20 68 20c28.667 0 52.834 -10 72.501 -30s29.5 -44.333 29.5 -73c0 -22 -6.33301 -43.5 -19 -64.5s-29.5 -38 -50.5 -51
s-43.5 -19.5 -67.5 -19.5c-30.667 0 -55.5 9.83301 -74.5 29.5s-28.5 44.834 -28.5 75.501c0 20.667 6.33301 41.334 19 62.001zM737.999 1747.99c12.667 20.667 29.499 37.666 50.499 50.999s43.5 20 67.5 20c28.667 0 52.834 -10 72.501 -30s29.5 -44.333 29.5 -73
c0 -22 -6.33301 -43.5 -19 -64.5s-29.5 -38 -50.5 -51s-43.5 -19.5 -67.5 -19.5c-30 0 -54.5 10 -73.5 30s-28.5 45 -28.5 75c0 20.667 6.33301 41.334 19 62.001z" />
    <glyph glyph-name="Eth" unicode="&#xd0;" horiz-adv-x="1485" 
d="M505 1443l49.9971 0.999023c188 4 291 6 309 6c192 0 336.333 -38.333 433 -115s145 -189.334 145 -338.001c0 -170.667 -42.167 -332.667 -126.5 -486s-200.666 -276.833 -348.999 -370.5s-313.5 -140.5 -495.5 -140.5c-18.667 0 -63.167 1 -133.5 3s-121.5 3 -153.5 3
c-110 0 -191.667 -2 -245 -6l6 41c46.667 2 81.834 7.33301 105.501 16s42.834 24.834 57.501 48.501s28.667 60.834 42 111.501l268 1016c12.667 49.333 19 83 19 101c0 26.667 -10 45.5 -30 56.5s-56 17.167 -108 18.5l6 41c73.333 -4.66699 140 -7 200 -7z
M320.997 111.999c0 -26 9.33496 -44.999 28.002 -56.999s51 -18 97 -18c169.333 0 314.166 46.167 434.499 138.5s211.166 215.333 272.499 369s92 321.834 92 504.501c0 123.333 -34.667 214.833 -104 274.5s-180.666 89.5 -333.999 89.5
c-42.667 0 -76 -4.83301 -100 -14.5s-43.333 -26.834 -58 -51.501s-28.334 -61.334 -41.001 -110.001l-268 -1024c-12.667 -47.333 -19 -81 -19 -101zM134.999 707l12 52h721l-12 -52h-721z" />
    <glyph glyph-name="Ntilde" unicode="&#xd1;" horiz-adv-x="1577" 
d="M1271 1001c56 190.667 112.993 327.999 170.993 411.999c60 87.333 133.667 131 221 131c44 0 75.5 -9.66699 94.5 -29s28.5 -44.333 28.5 -75c0 -24 -4.66699 -47.333 -14 -70s-23.166 -41.334 -41.499 -56.001s-40.166 -22 -65.499 -22c-27.333 0 -47.166 8 -59.499 24
s-18.5 34.667 -18.5 56c0 22 6.33301 44.5 19 67.5s28.334 43.5 47.001 61.5h-6c-66.667 -2 -122.667 -36.667 -168 -104c-60.667 -90.667 -123.667 -249.667 -189 -477s-139.666 -537.333 -222.999 -930h-45l-467 1319c-67.333 -344 -130.666 -634 -189.999 -870
s-116 -390 -170 -462c-31.333 -40 -63.5 -71.5 -96.5 -94.5s-74.167 -34.5 -123.5 -34.5c-81.333 0 -122 35.667 -122 107c0 23.333 4.66699 46.166 14 68.499s23 40.666 41 54.999s39.667 21.5 65 21.5c28 0 48 -8 60 -24s18 -34.667 18 -56
c0 -22 -6.16699 -44.5 -18.5 -67.5s-27.833 -43.5 -46.5 -61.5h6c70.667 2.66699 127.334 38.334 170.001 107.001c52 82 105.833 230.167 161.5 444.5s116.5 492.833 182.5 835.5c2.66699 16 4 31.333 4 46c0 22.667 -4.83301 39.834 -14.5 51.501
s-25.5 19.834 -47.5 24.501s-54 7.66699 -96 9l10 41c44 -4 105 -6 183 -6c64 0 119.333 2 166 6l387 -1132c59.333 264.667 117 492.334 173 683.001zM835.493 1781.5c47.667 34.333 97.833 51.5 150.5 51.5c44 0 80.333 -7 109 -21s65.667 -39 111 -75s90 -54 134 -54
c52 0 99.667 39.667 143 119l37 -10c-30 -71.333 -68.833 -124.333 -116.5 -159s-97.5 -52 -149.5 -52c-44 0 -80.333 7 -109 21s-65.667 39 -111 75s-90 54 -134 54c-52.667 0 -100.667 -39.667 -144 -119l-37 10c30 72 68.833 125.167 116.5 159.5z" />
    <glyph glyph-name="Ograve" unicode="&#xd2;" horiz-adv-x="1493" 
d="M220 932c72.667 158 174.17 288.666 304.503 391.999s277.166 155 440.499 155c100.667 0 187.167 -19.333 259.5 -58s127.666 -95 165.999 -169s57.5 -163 57.5 -267c0 -154 -36.667 -309.833 -110 -467.5s-175.333 -288.167 -306 -391.5s-277.334 -155 -440.001 -155
c-100.667 0 -187 19.333 -259 58s-127 94.834 -165 168.501s-57 162.167 -57 265.5c0 154.667 36.333 311 109 469zM648.503 1294.5c-95.667 -98.333 -173 -225.5 -232 -381.5s-88.5 -315 -88.5 -477c0 -88 11.833 -164.167 35.5 -228.5s56.834 -113.666 99.501 -147.999
s91.667 -51.5 147 -51.5c103.333 0 202.833 49.167 298.5 147.5s173 225.5 232 381.5s88.5 315 88.5 477c0 88 -12 164.167 -36 228.5s-57.333 113.666 -100 147.999s-91.667 51.5 -147 51.5c-102.667 0 -201.834 -49.167 -297.501 -147.5zM971.003 1653l-117.996 84.501
c-48.667 34.333 -83.667 62.166 -105 83.499c-10.667 10.667 -19.834 23.167 -27.501 37.5s-11.5 28.5 -11.5 42.5c0 15.333 4.66699 29 14 41c11.333 13.333 26.666 20 45.999 20c15.333 0 31.166 -4 47.499 -12s30.166 -18.333 41.499 -31
c19.333 -20.667 42 -50.667 68 -90l75.5 -112.5c24.333 -35.667 54.5 -76.167 90.5 -121.5l-21 -20c-36.667 30 -70 56 -100 78z" />
    <glyph glyph-name="Oacute" unicode="&#xd3;" horiz-adv-x="1493" 
d="M220 932c72.667 158 174.17 288.666 304.503 391.999s277.166 155 440.499 155c100.667 0 187.167 -19.333 259.5 -58s127.666 -95 165.999 -169s57.5 -163 57.5 -267c0 -154 -36.667 -309.833 -110 -467.5s-175.333 -288.167 -306 -391.5s-277.334 -155 -440.001 -155
c-100.667 0 -187 19.333 -259 58s-127 94.834 -165 168.501s-57 162.167 -57 265.5c0 154.667 36.333 311 109 469zM648.503 1294.5c-95.667 -98.333 -173 -225.5 -232 -381.5s-88.5 -315 -88.5 -477c0 -88 11.833 -164.167 35.5 -228.5s56.834 -113.666 99.501 -147.999
s91.667 -51.5 147 -51.5c103.333 0 202.833 49.167 298.5 147.5s173 225.5 232 381.5s88.5 315 88.5 477c0 88 -12 164.167 -36 228.5s-57.333 113.666 -100 147.999s-91.667 51.5 -147 51.5c-102.667 0 -201.834 -49.167 -297.501 -147.5zM1016 1695.5l139.998 106.5
c56 43.333 99.333 74 130 92c26 16 52 24 78 24c28.667 0 48 -11.333 58 -34c2.66699 -6 4 -12.667 4 -20c0 -16.667 -7.16699 -33.167 -21.5 -49.5s-31.166 -29.833 -50.499 -40.5c-29.333 -17.333 -71.166 -36 -125.499 -56l-157 -60
c-50.333 -20 -107.833 -45.667 -172.5 -77l-14 23c50 33.333 93.667 63.833 131 91.5z" />
    <glyph glyph-name="Ocircumflex" unicode="&#xd4;" horiz-adv-x="1493" 
d="M220 932c72.667 158 174.17 288.666 304.503 391.999s277.166 155 440.499 155c100.667 0 187.167 -19.333 259.5 -58s127.666 -95 165.999 -169s57.5 -163 57.5 -267c0 -154 -36.667 -309.833 -110 -467.5s-175.333 -288.167 -306 -391.5s-277.334 -155 -440.001 -155
c-100.667 0 -187 19.333 -259 58s-127 94.834 -165 168.501s-57 162.167 -57 265.5c0 154.667 36.333 311 109 469zM648.503 1294.5c-95.667 -98.333 -173 -225.5 -232 -381.5s-88.5 -315 -88.5 -477c0 -88 11.833 -164.167 35.5 -228.5s56.834 -113.666 99.501 -147.999
s91.667 -51.5 147 -51.5c103.333 0 202.833 49.167 298.5 147.5s173 225.5 232 381.5s88.5 315 88.5 477c0 88 -12 164.167 -36 228.5s-57.333 113.666 -100 147.999s-91.667 51.5 -147 51.5c-102.667 0 -201.834 -49.167 -297.501 -147.5zM1224 1629.5
c-45.333 18.333 -84.498 36.667 -117.498 55s-54.833 30.166 -65.5 35.499c-150.667 -63.333 -291.334 -109.666 -422.001 -138.999l-10 29c98 30 189.5 68.667 274.5 116s153.833 97.333 206.5 150h37c38 -66 78.667 -120.333 122 -163s97.666 -77 162.999 -103l-9 -29
c-74 14 -133.667 30.167 -179 48.5z" />
    <glyph glyph-name="Otilde" unicode="&#xd5;" horiz-adv-x="1493" 
d="M220 932c72.667 158 174.17 288.666 304.503 391.999s277.166 155 440.499 155c100.667 0 187.167 -19.333 259.5 -58s127.666 -95 165.999 -169s57.5 -163 57.5 -267c0 -154 -36.667 -309.833 -110 -467.5s-175.333 -288.167 -306 -391.5s-277.334 -155 -440.001 -155
c-100.667 0 -187 19.333 -259 58s-127 94.834 -165 168.501s-57 162.167 -57 265.5c0 154.667 36.333 311 109 469zM648.503 1294.5c-95.667 -98.333 -173 -225.5 -232 -381.5s-88.5 -315 -88.5 -477c0 -88 11.833 -164.167 35.5 -228.5s56.834 -113.666 99.501 -147.999
s91.667 -51.5 147 -51.5c103.333 0 202.833 49.167 298.5 147.5s173 225.5 232 381.5s88.5 315 88.5 477c0 88 -12 164.167 -36 228.5s-57.333 113.666 -100 147.999s-91.667 51.5 -147 51.5c-102.667 0 -201.834 -49.167 -297.501 -147.5zM784.503 1781.5
c47.667 34.333 97.833 51.5 150.5 51.5c44 0 80.333 -7 109 -21s65.667 -39 111 -75s90 -54 134 -54c52 0 99.667 39.667 143 119l37 -10c-30 -71.333 -68.833 -124.333 -116.5 -159s-97.5 -52 -149.5 -52c-44 0 -80.333 7 -109 21s-65.667 39 -111 75s-90 54 -134 54
c-52.667 0 -100.667 -39.667 -144 -119l-37 10c30 72 68.833 125.167 116.5 159.5z" />
    <glyph glyph-name="Odieresis" unicode="&#xd6;" horiz-adv-x="1493" 
d="M220 932c72.667 158 174.17 288.666 304.503 391.999s277.166 155 440.499 155c100.667 0 187.167 -19.333 259.5 -58s127.666 -95 165.999 -169s57.5 -163 57.5 -267c0 -154 -36.667 -309.833 -110 -467.5s-175.333 -288.167 -306 -391.5s-277.334 -155 -440.001 -155
c-100.667 0 -187 19.333 -259 58s-127 94.834 -165 168.501s-57 162.167 -57 265.5c0 154.667 36.333 311 109 469zM648.503 1294.5c-95.667 -98.333 -173 -225.5 -232 -381.5s-88.5 -315 -88.5 -477c0 -88 11.833 -164.167 35.5 -228.5s56.834 -113.666 99.501 -147.999
s91.667 -51.5 147 -51.5c103.333 0 202.833 49.167 298.5 147.5s173 225.5 232 381.5s88.5 315 88.5 477c0 88 -12 164.167 -36 228.5s-57.333 113.666 -100 147.999s-91.667 51.5 -147 51.5c-102.667 0 -201.834 -49.167 -297.501 -147.5zM703.003 1748
c12.667 20.667 29.666 37.665 50.999 50.998s44 20 68 20c28.667 0 52.834 -10 72.501 -30s29.5 -44.333 29.5 -73c0 -22 -6.33301 -43.5 -19 -64.5s-29.5 -38 -50.5 -51s-43.5 -19.5 -67.5 -19.5c-30.667 0 -55.5 9.83301 -74.5 29.5s-28.5 44.834 -28.5 75.501
c0 20.667 6.33301 41.334 19 62.001zM1138 1748c12.667 20.667 29.499 37.666 50.499 50.999s43.5 20 67.5 20c28.667 0 52.834 -10 72.501 -30s29.5 -44.333 29.5 -73c0 -22 -6.33301 -43.5 -19 -64.5s-29.5 -38 -50.5 -51s-43.5 -19.5 -67.5 -19.5
c-30 0 -54.5 10 -73.5 30s-28.5 45 -28.5 75c0 20.667 6.33301 41.334 19 62.001z" />
    <glyph glyph-name="multiply" unicode="&#xd7;" horiz-adv-x="1051" 
d="M256 1085l53 37l252 -358l465 362l33 -45l-465 -360l256 -354l-51 -37l-254 354l-459 -356l-31 45l457 354z" />
    <glyph glyph-name="Oslash" unicode="&#xd8;" horiz-adv-x="1493" 
d="M1448 985c0 -154 -36.665 -309.834 -109.998 -467.501s-175.333 -288.167 -306 -391.5s-277.334 -155 -440.001 -155c-154.667 0 -274.334 44.667 -359.001 134l-239 -255l-35 29l245 260c-62 83.333 -93 191.333 -93 324c0 154.667 36.333 311 109 469
s174.167 288.667 304.5 392s277.166 155 440.499 155c164.667 0 289.334 -49.667 374.001 -149l242 253l31 -27l-247 -261c55.333 -81.333 83 -184.666 83 -309.999zM1106 1379.5c-45.333 41.667 -98.667 62.5 -160 62.5c-102.667 0 -201.834 -49.167 -297.501 -147.5
s-173 -225.5 -232 -381.5s-88.5 -315 -88.5 -477c0 -58.667 5.66699 -113 17 -163l861 930c-21.333 76 -54.666 134.833 -99.999 176.5zM457.501 63.999c43.667 -37.333 94.5 -56 152.5 -56c103.333 0 202.833 49.167 298.5 147.5s173 225.5 232 381.5s88.5 315 88.5 477
c0 49.333 -4 95.333 -12 138l-858 -930c22 -68 54.833 -120.667 98.5 -158z" />
    <glyph glyph-name="Ugrave" unicode="&#xd9;" horiz-adv-x="1397" 
d="M1306 1303c0 37.333 -11.667 63.668 -35 79.001s-62 24.333 -116 27l10 41c46.667 -4 115.667 -6 207 -6c82 0 146.333 2 193 6l-11 -41c-48 -2 -85.167 -9 -111.5 -21s-47.333 -31.333 -63 -58s-29.834 -66 -42.501 -118l-159 -616c-50 -190 -117 -334.667 -201 -434
c-50 -58.667 -111.667 -105.167 -185 -139.5s-151.666 -51.5 -234.999 -51.5c-146 0 -251 37 -315 111c-48 53.333 -72 122.666 -72 207.999c0 70.667 17 170.667 51 300l170 643c11.333 43.333 17 76 17 98c0 20.667 -4.5 36.334 -13.5 47.001s-23.167 18.167 -42.5 22.5
s-46.666 7.16602 -81.999 8.49902l13 41c54.667 -4 142.667 -6 264 -6c104.667 0 190 2 256 6l-12 -41c-50 -2 -87.333 -7.33301 -112 -16s-44 -24.667 -58 -48s-27.667 -60.666 -41 -111.999l-181 -678c-30 -118 -45 -210.333 -45 -277c0 -75.333 18.5 -133.333 55.5 -174
s99.167 -61 186.5 -61c143.333 0 256.166 46.5 338.499 139.5s145.5 223.167 189.5 390.5l168 639c9.33301 37.333 14 67.666 14 90.999zM930 1653l-117.996 84.501c-48.667 34.333 -83.667 62.166 -105 83.499c-10.667 10.667 -19.834 23.167 -27.501 37.5
s-11.5 28.5 -11.5 42.5c0 15.333 4.66699 29 14 41c11.333 13.333 26.666 20 45.999 20c15.333 0 31.166 -4 47.499 -12s30.166 -18.333 41.499 -31c19.333 -20.667 42 -50.667 68 -90l75.5 -112.5c24.333 -35.667 54.5 -76.167 90.5 -121.5l-21 -20
c-36.667 30 -70 56 -100 78z" />
    <glyph glyph-name="Uacute" unicode="&#xda;" horiz-adv-x="1397" 
d="M1306 1303c0 37.333 -11.667 63.668 -35 79.001s-62 24.333 -116 27l10 41c46.667 -4 115.667 -6 207 -6c82 0 146.333 2 193 6l-11 -41c-48 -2 -85.167 -9 -111.5 -21s-47.333 -31.333 -63 -58s-29.834 -66 -42.501 -118l-159 -616c-50 -190 -117 -334.667 -201 -434
c-50 -58.667 -111.667 -105.167 -185 -139.5s-151.666 -51.5 -234.999 -51.5c-146 0 -251 37 -315 111c-48 53.333 -72 122.666 -72 207.999c0 70.667 17 170.667 51 300l170 643c11.333 43.333 17 76 17 98c0 20.667 -4.5 36.334 -13.5 47.001s-23.167 18.167 -42.5 22.5
s-46.666 7.16602 -81.999 8.49902l13 41c54.667 -4 142.667 -6 264 -6c104.667 0 190 2 256 6l-12 -41c-50 -2 -87.333 -7.33301 -112 -16s-44 -24.667 -58 -48s-27.667 -60.666 -41 -111.999l-181 -678c-30 -118 -45 -210.333 -45 -277c0 -75.333 18.5 -133.333 55.5 -174
s99.167 -61 186.5 -61c143.333 0 256.166 46.5 338.499 139.5s145.5 223.167 189.5 390.5l168 639c9.33301 37.333 14 67.666 14 90.999zM975 1695.5l139.998 106.5c56 43.333 99.333 74 130 92c26 16 52 24 78 24c28.667 0 48 -11.333 58 -34c2.66699 -6 4 -12.667 4 -20
c0 -16.667 -7.16699 -33.167 -21.5 -49.5s-31.166 -29.833 -50.499 -40.5c-29.333 -17.333 -71.166 -36 -125.499 -56l-157 -60c-50.333 -20 -107.833 -45.667 -172.5 -77l-14 23c50 33.333 93.667 63.833 131 91.5z" />
    <glyph glyph-name="Ucircumflex" unicode="&#xdb;" horiz-adv-x="1397" 
d="M1306 1303c0 37.333 -11.667 63.668 -35 79.001s-62 24.333 -116 27l10 41c46.667 -4 115.667 -6 207 -6c82 0 146.333 2 193 6l-11 -41c-48 -2 -85.167 -9 -111.5 -21s-47.333 -31.333 -63 -58s-29.834 -66 -42.501 -118l-159 -616c-50 -190 -117 -334.667 -201 -434
c-50 -58.667 -111.667 -105.167 -185 -139.5s-151.666 -51.5 -234.999 -51.5c-146 0 -251 37 -315 111c-48 53.333 -72 122.666 -72 207.999c0 70.667 17 170.667 51 300l170 643c11.333 43.333 17 76 17 98c0 20.667 -4.5 36.334 -13.5 47.001s-23.167 18.167 -42.5 22.5
s-46.666 7.16602 -81.999 8.49902l13 41c54.667 -4 142.667 -6 264 -6c104.667 0 190 2 256 6l-12 -41c-50 -2 -87.333 -7.33301 -112 -16s-44 -24.667 -58 -48s-27.667 -60.666 -41 -111.999l-181 -678c-30 -118 -45 -210.333 -45 -277c0 -75.333 18.5 -133.333 55.5 -174
s99.167 -61 186.5 -61c143.333 0 256.166 46.5 338.499 139.5s145.5 223.167 189.5 390.5l168 639c9.33301 37.333 14 67.666 14 90.999zM1183 1629.5c-45.333 18.333 -84.498 36.667 -117.498 55s-54.833 30.166 -65.5 35.499
c-150.667 -63.333 -291.334 -109.666 -422.001 -138.999l-10 29c98 30 189.5 68.667 274.5 116s153.833 97.333 206.5 150h37c38 -66 78.667 -120.333 122 -163s97.666 -77 162.999 -103l-9 -29c-74 14 -133.667 30.167 -179 48.5z" />
    <glyph glyph-name="Udieresis" unicode="&#xdc;" horiz-adv-x="1397" 
d="M1306 1303c0 37.333 -11.667 63.668 -35 79.001s-62 24.333 -116 27l10 41c46.667 -4 115.667 -6 207 -6c82 0 146.333 2 193 6l-11 -41c-48 -2 -85.167 -9 -111.5 -21s-47.333 -31.333 -63 -58s-29.834 -66 -42.501 -118l-159 -616c-50 -190 -117 -334.667 -201 -434
c-50 -58.667 -111.667 -105.167 -185 -139.5s-151.666 -51.5 -234.999 -51.5c-146 0 -251 37 -315 111c-48 53.333 -72 122.666 -72 207.999c0 70.667 17 170.667 51 300l170 643c11.333 43.333 17 76 17 98c0 20.667 -4.5 36.334 -13.5 47.001s-23.167 18.167 -42.5 22.5
s-46.666 7.16602 -81.999 8.49902l13 41c54.667 -4 142.667 -6 264 -6c104.667 0 190 2 256 6l-12 -41c-50 -2 -87.333 -7.33301 -112 -16s-44 -24.667 -58 -48s-27.667 -60.666 -41 -111.999l-181 -678c-30 -118 -45 -210.333 -45 -277c0 -75.333 18.5 -133.333 55.5 -174
s99.167 -61 186.5 -61c143.333 0 256.166 46.5 338.499 139.5s145.5 223.167 189.5 390.5l168 639c9.33301 37.333 14 67.666 14 90.999zM662 1748c12.667 20.667 29.666 37.665 50.999 50.998s44 20 68 20c28.667 0 52.834 -10 72.501 -30s29.5 -44.333 29.5 -73
c0 -22 -6.33301 -43.5 -19 -64.5s-29.5 -38 -50.5 -51s-43.5 -19.5 -67.5 -19.5c-30.667 0 -55.5 9.83301 -74.5 29.5s-28.5 44.834 -28.5 75.501c0 20.667 6.33301 41.334 19 62.001zM1097 1748c12.667 20.667 29.499 37.666 50.499 50.999s43.5 20 67.5 20
c28.667 0 52.834 -10 72.501 -30s29.5 -44.333 29.5 -73c0 -22 -6.33301 -43.5 -19 -64.5s-29.5 -38 -50.5 -51s-43.5 -19.5 -67.5 -19.5c-30 0 -54.5 10 -73.5 30s-28.5 45 -28.5 75c0 20.667 6.33301 41.334 19 62.001z" />
    <glyph glyph-name="Yacute" unicode="&#xdd;" horiz-adv-x="1372" 
d="M312 1402c16 25.333 36.3281 44.499 60.9951 57.499s56 19.5 94 19.5c72 0 130.167 -29.333 174.5 -88s78.833 -140.5 103.5 -245.5s46 -241.167 64 -408.5c98.667 248 226.334 451 383.001 609c88.667 88.667 169.334 133 242.001 133c40 0 69 -10.5 87 -31.5
s27 -47.167 27 -78.5c0 -20 -4.33301 -41 -13 -63s-22.167 -40.667 -40.5 -56s-40.833 -23 -67.5 -23c-51.333 0 -77 27 -77 81c0 22 6 44.333 18 67s27.667 43 47 61h-6c-36.667 -2 -74.334 -17 -113.001 -45c-72 -52 -149.167 -135.833 -231.5 -251.5
s-161.166 -264.834 -236.499 -447.501l-119 -475c-11.333 -44 -17 -77 -17 -99c0 -20 4.5 -35.333 13.5 -46s23 -18.167 42 -22.5s46.167 -7.16602 81.5 -8.49902l-10 -41c-61.333 4 -146 6 -254 6c-120 0 -209.333 -2 -268 -6l10 41c49.333 2 86.333 7.33301 111 16
s44.334 24.834 59.001 48.501s28.334 60.834 41.001 111.501l120 478c-48.667 447.333 -128.334 671 -239.001 671c-23.333 0 -42.666 -7.33301 -57.999 -22s-28.666 -39.334 -39.999 -74.001l-57 -168h-45l67 198c14.667 42.667 30 76.667 46 102zM966.995 1695.5
l139.998 106.5c56 43.333 99.333 74 130 92c26 16 52 24 78 24c28.667 0 48 -11.333 58 -34c2.66699 -6 4 -12.667 4 -20c0 -16.667 -7.16699 -33.167 -21.5 -49.5s-31.166 -29.833 -50.499 -40.5c-29.333 -17.333 -71.166 -36 -125.499 -56l-157 -60
c-50.333 -20 -107.833 -45.667 -172.5 -77l-14 23c50 33.333 93.667 63.833 131 91.5z" />
    <glyph glyph-name="Thorn" unicode="&#xde;" horiz-adv-x="1239" 
d="M340 217c-11.333 -44 -17 -77.0039 -17 -99.0039c0 -20 4.5 -35.333 13.5 -46s23.167 -18.167 42.5 -22.5s46.666 -7.16602 81.999 -8.49902l-8 -41c-64 4 -150.667 6 -260 6c-114 0 -201 -2 -261 -6l11 41c48 2 84 7.33301 108 16s43.167 24.834 57.5 48.501
s28.166 60.834 41.499 111.501l270 1016c11.333 43.333 17 76 17 98c0 20.667 -4.66699 36.334 -14 47.001s-23.5 18.167 -42.5 22.5s-46.167 7.16602 -81.5 8.49902l10 41c56 -4 142.667 -6 260 -6c110 0 197.333 2 262 6l-10 -41c-50 -2 -87.167 -7.33301 -111.5 -16
s-43.666 -24.667 -57.999 -48s-28.166 -60.666 -41.499 -111.999l-15 -58c132 2 204 3 216 3c134 0 235.5 -27.667 304.5 -83s103.5 -131 103.5 -227c0 -106 -32.5 -201.333 -97.5 -286s-156.167 -151 -273.5 -199s-251.333 -72 -402 -72l-81 1zM467 351.996
c190.667 0 329.167 50 415.5 150s129.5 233 129.5 399c0 81.333 -20.667 141.333 -62 180s-107.333 58 -198 58c-60 0 -116.333 -2.33301 -169 -7l-207 -780h91z" />
    <glyph glyph-name="germandbls" unicode="&#xdf;" horiz-adv-x="1120" 
d="M384.5 1355.5c40.333 80.333 92.168 141.501 155.501 183.501s143.333 63 240 63c65.333 0 118.666 -9.5 159.999 -28.5s71.5 -44 90.5 -75s28.5 -65.5 28.5 -103.5c0 -59.333 -18.833 -113.5 -56.5 -162.5s-78.834 -94 -123.501 -135l-91 -83.5
c-46 -42 -69 -93.333 -69 -154c0 -40.667 8.33301 -76.834 25 -108.501s36.5 -62.167 59.5 -91.5s39.833 -51.333 50.5 -66c38.667 -52 68.5 -101.833 89.5 -149.5s31.5 -96.834 31.5 -147.501c0 -64 -16.333 -120.667 -49 -170s-77 -87.666 -133 -114.999
s-117.667 -41 -185 -41c-45.333 0 -87.833 6.5 -127.5 19.5s-72 32.667 -97 59s-37.5 58.833 -37.5 97.5c0 30 7.5 54 22.5 72s34.167 27 57.5 27c32.667 0 55.5 -14.833 68.5 -44.5s19.5 -61.5 19.5 -95.5c0 -19.333 -4 -45 -12 -77c28 -11.333 56.667 -17 86 -17
c41.333 0 78.166 8.5 110.499 25.5s57.833 41.5 76.5 73.5s28 70 28 114c0 88.667 -35.667 178.334 -107 269.001l-49.5 60c-25.667 31.333 -46 64 -61 98s-22.5 68.667 -22.5 104c0 44 10.333 80.333 31 109s50.834 60.167 90.501 94.5s68.167 60.5 85.5 78.5
c87.333 92 131 197.333 131 316c0 72 -13.667 126.167 -41 162.5s-64 54.5 -110 54.5c-39.333 0 -73.666 -12.167 -102.999 -36.5s-56 -62.833 -80 -115.5s-47.667 -123.667 -71 -213l-412 -1562c-72 -2 -133.333 -11.667 -184 -29l372 1423
c34.667 131.333 72.167 237.166 112.5 317.499z" />
    <glyph glyph-name="agrave" unicode="&#xe0;" horiz-adv-x="1071" 
d="M971 334l-50.998 -150.003c-28 -76 -63 -130.5 -105 -163.5s-85.667 -49.5 -131 -49.5c-25.333 0 -47.833 4.83301 -67.5 14.5s-34.834 22.834 -45.501 39.501c-11.333 20 -17 44 -17 72c0 20 2.33301 40.833 7 62.5s9.66699 42.334 15 62.001s8.66602 32.5 9.99902 38.5
l37 149c-65.333 -153.333 -131.833 -264.666 -199.5 -333.999s-138.5 -104 -212.5 -104c-62.667 0 -110.5 22.5 -143.5 67.5s-49.5 105.167 -49.5 180.5c0 110.667 29.5 234.334 88.5 371.001s135.333 252.667 229 348s189.5 143 287.5 143c36 0 65.833 -13.333 89.5 -40
s37.5 -64.334 41.5 -113.001l32 125c76 2 139 11.333 189 28l-256 -905c-10 -36 -15 -61.333 -15 -76c0 -34 15.333 -51 46 -51c60 0 112.333 69.667 157 209l25 76h39zM729.002 863.997c0 54.667 -9.83301 97.999 -29.5 129.999s-47.5 48 -83.5 48
c-58 0 -119.833 -45.167 -185.5 -135.5s-120.667 -202.166 -165 -335.499s-66.5 -258.666 -66.5 -375.999c0 -56.667 6 -97.167 18 -121.5s29.667 -36.5 53 -36.5c38 0 83.5 29.167 136.5 87.5s105 136.166 156 233.499s93.167 201.333 126.5 312l38 149
c1.33301 21.333 2 36.333 2 45zM630.002 1352.5l-107.5 131.502c-43.667 52 -74.5 92.667 -92.5 122c-14 22.667 -21 44.334 -21 65.001c0 27.333 11 46.666 33 57.999c10 4 20.667 6 32 6c35.333 0 65 -21.333 89 -64c16.667 -28.667 34.667 -68.334 54 -119.001l58 -147.5
c19.333 -47.667 44.333 -102.834 75 -165.501l-27 -12c-34 48 -65 89.833 -93 125.5z" />
    <glyph glyph-name="aacute" unicode="&#xe1;" horiz-adv-x="1071" 
d="M971 334l-50.998 -150.003c-28 -76 -63 -130.5 -105 -163.5s-85.667 -49.5 -131 -49.5c-25.333 0 -47.833 4.83301 -67.5 14.5s-34.834 22.834 -45.501 39.501c-11.333 20 -17 44 -17 72c0 20 2.33301 40.833 7 62.5s9.66699 42.334 15 62.001s8.66602 32.5 9.99902 38.5
l37 149c-65.333 -153.333 -131.833 -264.666 -199.5 -333.999s-138.5 -104 -212.5 -104c-62.667 0 -110.5 22.5 -143.5 67.5s-49.5 105.167 -49.5 180.5c0 110.667 29.5 234.334 88.5 371.001s135.333 252.667 229 348s189.5 143 287.5 143c36 0 65.833 -13.333 89.5 -40
s37.5 -64.334 41.5 -113.001l32 125c76 2 139 11.333 189 28l-256 -905c-10 -36 -15 -61.333 -15 -76c0 -34 15.333 -51 46 -51c60 0 112.333 69.667 157 209l25 76h39zM729.002 863.997c0 54.667 -9.83301 97.999 -29.5 129.999s-47.5 48 -83.5 48
c-58 0 -119.833 -45.167 -185.5 -135.5s-120.667 -202.166 -165 -335.499s-66.5 -258.666 -66.5 -375.999c0 -56.667 6 -97.167 18 -121.5s29.667 -36.5 53 -36.5c38 0 83.5 29.167 136.5 87.5s105 136.166 156 233.499s93.167 201.333 126.5 312l38 149
c1.33301 21.333 2 36.333 2 45zM699.502 1365l105.499 141.5c42.667 58.333 77.334 100.833 104.001 127.5c26.667 30.667 54.667 46 84 46c16.667 0 31.667 -5 45 -15c10.667 -10.667 16 -24 16 -40c0 -27.333 -15.333 -56.333 -46 -87c-24 -25.333 -59.333 -55 -106 -89
l-134 -100.5c-42.667 -33 -91 -73.5 -145 -121.5l-21 18c37.333 44 69.833 84 97.5 120z" />
    <glyph glyph-name="acircumflex" unicode="&#xe2;" horiz-adv-x="1071" 
d="M971 334l-50.998 -150.003c-28 -76 -63 -130.5 -105 -163.5s-85.667 -49.5 -131 -49.5c-25.333 0 -47.833 4.83301 -67.5 14.5s-34.834 22.834 -45.501 39.501c-11.333 20 -17 44 -17 72c0 20 2.33301 40.833 7 62.5s9.66699 42.334 15 62.001s8.66602 32.5 9.99902 38.5
l37 149c-65.333 -153.333 -131.833 -264.666 -199.5 -333.999s-138.5 -104 -212.5 -104c-62.667 0 -110.5 22.5 -143.5 67.5s-49.5 105.167 -49.5 180.5c0 110.667 29.5 234.334 88.5 371.001s135.333 252.667 229 348s189.5 143 287.5 143c36 0 65.833 -13.333 89.5 -40
s37.5 -64.334 41.5 -113.001l32 125c76 2 139 11.333 189 28l-256 -905c-10 -36 -15 -61.333 -15 -76c0 -34 15.333 -51 46 -51c60 0 112.333 69.667 157 209l25 76h39zM729.002 863.997c0 54.667 -9.83301 97.999 -29.5 129.999s-47.5 48 -83.5 48
c-58 0 -119.833 -45.167 -185.5 -135.5s-120.667 -202.166 -165 -335.499s-66.5 -258.666 -66.5 -375.999c0 -56.667 6 -97.167 18 -121.5s29.667 -36.5 53 -36.5c38 0 83.5 29.167 136.5 87.5s105 136.166 156 233.499s93.167 201.333 126.5 312l38 149
c1.33301 21.333 2 36.333 2 45zM857.002 1346c-51.333 34 -100.668 77 -148.001 129c-119.333 -94 -239 -165 -359 -213l-10 28c88.667 38 171.834 88.5 249.501 151.5s141.5 129.833 191.5 200.5h36c14.667 -85.333 40.667 -155.5 78 -210.5
s92.666 -102.167 165.999 -141.5l-8 -28c-79.333 22 -144.666 50 -195.999 84z" />
    <glyph glyph-name="atilde" unicode="&#xe3;" horiz-adv-x="1071" 
d="M971 334l-50.998 -150.003c-28 -76 -63 -130.5 -105 -163.5s-85.667 -49.5 -131 -49.5c-25.333 0 -47.833 4.83301 -67.5 14.5s-34.834 22.834 -45.501 39.501c-11.333 20 -17 44 -17 72c0 20 2.33301 40.833 7 62.5s9.66699 42.334 15 62.001s8.66602 32.5 9.99902 38.5
l37 149c-65.333 -153.333 -131.833 -264.666 -199.5 -333.999s-138.5 -104 -212.5 -104c-62.667 0 -110.5 22.5 -143.5 67.5s-49.5 105.167 -49.5 180.5c0 110.667 29.5 234.334 88.5 371.001s135.333 252.667 229 348s189.5 143 287.5 143c36 0 65.833 -13.333 89.5 -40
s37.5 -64.334 41.5 -113.001l32 125c76 2 139 11.333 189 28l-256 -905c-10 -36 -15 -61.333 -15 -76c0 -34 15.333 -51 46 -51c60 0 112.333 69.667 157 209l25 76h39zM729.002 863.997c0 54.667 -9.83301 97.999 -29.5 129.999s-47.5 48 -83.5 48
c-58 0 -119.833 -45.167 -185.5 -135.5s-120.667 -202.166 -165 -335.499s-66.5 -258.666 -66.5 -375.999c0 -56.667 6 -97.167 18 -121.5s29.667 -36.5 53 -36.5c38 0 83.5 29.167 136.5 87.5s105 136.166 156 233.499s93.167 201.333 126.5 312l38 149
c1.33301 21.333 2 36.333 2 45zM482.502 1521c47.667 34.667 97.835 52 150.502 52c39.333 0 71.666 -7 96.999 -21s58 -39 98 -75s79.333 -54 118 -54c52 0 99.667 39.667 143 119l37 -10c-30 -71.333 -68.833 -124.333 -116.5 -159s-97.5 -52 -149.5 -52
c-39.333 0 -71.833 7 -97.5 21s-58.5 38.833 -98.5 74.5s-79.333 53.5 -118 53.5c-52.667 0 -100.334 -39.333 -143.001 -118l-37 10c30 71.333 68.833 124.333 116.5 159z" />
    <glyph glyph-name="adieresis" unicode="&#xe4;" horiz-adv-x="1071" 
d="M971 334l-50.998 -150.003c-28 -76 -63 -130.5 -105 -163.5s-85.667 -49.5 -131 -49.5c-25.333 0 -47.833 4.83301 -67.5 14.5s-34.834 22.834 -45.501 39.501c-11.333 20 -17 44 -17 72c0 20 2.33301 40.833 7 62.5s9.66699 42.334 15 62.001s8.66602 32.5 9.99902 38.5
l37 149c-65.333 -153.333 -131.833 -264.666 -199.5 -333.999s-138.5 -104 -212.5 -104c-62.667 0 -110.5 22.5 -143.5 67.5s-49.5 105.167 -49.5 180.5c0 110.667 29.5 234.334 88.5 371.001s135.333 252.667 229 348s189.5 143 287.5 143c36 0 65.833 -13.333 89.5 -40
s37.5 -64.334 41.5 -113.001l32 125c76 2 139 11.333 189 28l-256 -905c-10 -36 -15 -61.333 -15 -76c0 -34 15.333 -51 46 -51c60 0 112.333 69.667 157 209l25 76h39zM729.002 863.997c0 54.667 -9.83301 97.999 -29.5 129.999s-47.5 48 -83.5 48
c-58 0 -119.833 -45.167 -185.5 -135.5s-120.667 -202.166 -165 -335.499s-66.5 -258.666 -66.5 -375.999c0 -56.667 6 -97.167 18 -121.5s29.667 -36.5 53 -36.5c38 0 83.5 29.167 136.5 87.5s105 136.166 156 233.499s93.167 201.333 126.5 312l38 149
c1.33301 21.333 2 36.333 2 45zM447.002 1451c12.667 20.667 29.666 37.665 50.999 50.998s44 20 68 20c28.667 0 52.834 -10 72.501 -30s29.5 -44.333 29.5 -73c0 -22 -6.33301 -43.5 -19 -64.5s-29.5 -38 -50.5 -51s-43.5 -19.5 -67.5 -19.5
c-30.667 0 -55.5 9.83301 -74.5 29.5s-28.5 44.834 -28.5 75.501c0 20.667 6.33301 41.334 19 62.001zM882.001 1450.99c12.667 20.667 29.499 37.666 50.499 50.999s43.5 20 67.5 20c28.667 0 52.834 -10 72.501 -30s29.5 -44.333 29.5 -73c0 -22 -6.33301 -43.5 -19 -64.5
s-29.5 -38 -50.5 -51s-43.5 -19.5 -67.5 -19.5c-30 0 -54.5 10 -73.5 30s-28.5 45 -28.5 75c0 20.667 6.33301 41.334 19 62.001z" />
    <glyph glyph-name="aring" unicode="&#xe5;" horiz-adv-x="1071" 
d="M971 334l-50.998 -150.003c-28 -76 -63 -130.5 -105 -163.5s-85.667 -49.5 -131 -49.5c-25.333 0 -47.833 4.83301 -67.5 14.5s-34.834 22.834 -45.501 39.501c-11.333 20 -17 44 -17 72c0 20 2.33301 40.833 7 62.5s9.66699 42.334 15 62.001s8.66602 32.5 9.99902 38.5
l37 149c-65.333 -153.333 -131.833 -264.666 -199.5 -333.999s-138.5 -104 -212.5 -104c-62.667 0 -110.5 22.5 -143.5 67.5s-49.5 105.167 -49.5 180.5c0 110.667 29.5 234.334 88.5 371.001s135.333 252.667 229 348s189.5 143 287.5 143c36 0 65.833 -13.333 89.5 -40
s37.5 -64.334 41.5 -113.001l32 125c76 2 139 11.333 189 28l-256 -905c-10 -36 -15 -61.333 -15 -76c0 -34 15.333 -51 46 -51c60 0 112.333 69.667 157 209l25 76h39zM729.002 863.997c0 54.667 -9.83301 97.999 -29.5 129.999s-47.5 48 -83.5 48
c-58 0 -119.833 -45.167 -185.5 -135.5s-120.667 -202.166 -165 -335.499s-66.5 -258.666 -66.5 -375.999c0 -56.667 6 -97.167 18 -121.5s29.667 -36.5 53 -36.5c38 0 83.5 29.167 136.5 87.5s105 136.166 156 233.499s93.167 201.333 126.5 312l38 149
c1.33301 21.333 2 36.333 2 45zM890.002 1599.5c26.667 -13.667 47.8301 -32.834 63.4971 -57.501s23.5 -53.334 23.5 -86.001c0 -37.333 -10.667 -72.166 -32 -104.499s-49.666 -58.166 -84.999 -77.499s-72.666 -29 -111.999 -29c-49.333 0 -90 14.833 -122 44.5
s-48 69.5 -48 119.5c0 38.667 10 74.167 30 106.5s47 57.833 81 76.5s71.333 28 112 28c32.667 0 62.334 -6.83301 89.001 -20.5zM837.998 1310.5c26 15 46.833 35.502 62.5 61.502s23.5 54.667 23.5 86c0 24.667 -6.33301 46 -19 64s-29 31.667 -49 41s-41 14 -63 14
c-27.333 0 -53.5 -7.83301 -78.5 -23.5s-45.167 -36.334 -60.5 -62.001s-23 -52.5 -23 -80.5c0 -38.667 12.333 -68.834 37 -90.501s54 -32.5 88 -32.5c28.667 0 56 7.5 82 22.5z" />
    <glyph glyph-name="ae" unicode="&#xe6;" horiz-adv-x="1350" 
d="M1070 111.5c-42.667 -41.667 -90.501 -75.499 -143.501 -101.499s-107.167 -39 -162.5 -39c-66.667 0 -122.167 15.5 -166.5 46.5s-74.5 76.5 -90.5 136.5c-78.667 -122 -177.334 -183 -296.001 -183c-68 0 -119.167 20.667 -153.5 62s-51.5 96.666 -51.5 165.999
c0 117.333 37.333 244 112 380s168.834 250.333 282.501 343s224.5 139 332.5 139c59.333 0 104.333 -24 135 -72c84 61.333 170.667 92 260 92c57.333 0 103.833 -13.333 139.5 -40s53.5 -65 53.5 -115c0 -107.333 -61.667 -200.333 -185 -279s-266.666 -144 -429.999 -196
c-13.333 -68 -20 -133.667 -20 -197c0 -131.333 47 -197 141 -197c111.333 0 214 68.333 308 205l41 -16c-28 -48 -63.333 -92.833 -106 -134.5zM949.999 965.001c-48.667 -51.333 -94.5 -119.499 -137.5 -204.499s-75.5 -175.167 -97.5 -270.5
c136.667 48 230.667 92.333 282 133c50.667 39.333 90 87.166 118 143.499s42 117.5 42 183.5c0 29.333 -6.5 52 -19.5 68s-31.167 24 -54.5 24c-40 0 -84.333 -25.667 -133 -77zM385.999 76.502c39.333 26.333 76.666 67.502 111.999 123.502
c-2.66699 19.333 -4 39.333 -4 60c0 71.333 14.667 151.666 44 240.999s70.333 176 123 260s112.667 153.333 180 208c-24 32.667 -55 49 -93 49c-73.333 0 -154.5 -41.333 -243.5 -124s-164.333 -189.334 -226 -320.001s-92.5 -264 -92.5 -400
c0 -42.667 7.33301 -76.167 22 -100.5s37.334 -36.5 68.001 -36.5c34 0 70.667 13.167 110 39.5z" />
    <glyph glyph-name="ccedilla" unicode="&#xe7;" horiz-adv-x="885" 
d="M613 111.5c-42.667 -41.667 -90.501 -75.5 -143.501 -101.5s-107.167 -39 -162.5 -39c-84 0 -150 25.667 -198 77s-72 126 -72 224c0 110.667 26 229.667 78 357s125 234.5 219 321.5s201 130.5 321 130.5c40.667 0 77.834 -7 111.501 -21s60.5 -34.167 80.5 -60.5
s30 -57.166 30 -92.499c0 -26.667 -6 -52.667 -18 -78s-29.167 -46 -51.5 -62s-47.833 -24 -76.5 -24c-27.333 0 -48.166 7.66699 -62.499 23s-21.5 34.333 -21.5 57c0 38.667 15.167 72.167 45.5 100.5s66.5 46.166 108.5 53.499c-29.333 42 -75.666 63 -138.999 63
c-68.667 0 -136.834 -36.833 -204.501 -110.5s-123 -171.167 -166 -292.5s-64.5 -249 -64.5 -383c0 -66.667 12.667 -116.167 38 -148.5s60.666 -48.5 105.999 -48.5c110.667 0 213 68.333 307 205l41 -16c-28 -48 -63.333 -92.833 -106 -134.5zM335.999 -133
c27.333 0 48.833 -7.33301 64.5 -22s23.5 -34.667 23.5 -60c0 -37.333 -13 -68.833 -39 -94.5s-58.5 -44.667 -97.5 -57s-77.5 -18.5 -115.5 -18.5c-35.333 0 -67.833 4.5 -97.5 13.5s-51.834 19.5 -66.501 31.5l14 31c20 -8.66699 38.333 -15.334 55 -20.001
s39.334 -7 68.001 -7c18 0 38.5 3.33301 61.5 10s43.167 17.834 60.5 33.501s26 36.167 26 61.5c0 32.667 -19.333 49 -58 49c-22 0 -43 -5 -63 -15l94 197h55l-69 -147c26 9.33301 54 14 84 14z" />
    <glyph glyph-name="egrave" unicode="&#xe8;" horiz-adv-x="879" 
d="M601 111.5c-42.667 -41.667 -90.501 -75.5 -143.501 -101.5s-107.167 -39 -162.5 -39c-84.667 0 -150.834 24.833 -198.501 74.5s-71.5 121.167 -71.5 214.5c0 103.333 30.333 220.166 91 350.499s142.834 241.333 246.501 333s216.167 137.5 337.5 137.5
c44 0 80.333 -11.667 109 -35s43 -56.666 43 -99.999c0 -110.667 -61.667 -207 -185 -289s-265.666 -150.333 -426.999 -205c-15.333 -68 -23 -134 -23 -198c0 -131.333 47 -197 141 -197c116.667 0 222 68.333 316 205l33 -16c-28 -48 -63.333 -92.833 -106 -134.5z
M507.999 965.5c-54 -51 -104.501 -118.999 -151.501 -203.999s-82.833 -175.167 -107.5 -270.5c134.667 47.333 227.667 91.333 279 132c50.667 39.333 90 87.166 118 143.499s42 117.5 42 183.5c0 36.667 -2.66699 61.167 -8 73.5s-13.666 18.5 -24.999 18.5
c-44 0 -93 -25.5 -147 -76.5zM578.998 1352.5l-107.5 131.502c-43.667 52 -74.5 92.667 -92.5 122c-14 22.667 -21 44.334 -21 65.001c0 27.333 11 46.666 33 57.999c10 4 20.667 6 32 6c35.333 0 65 -21.333 89 -64c16.667 -28.667 34.667 -68.334 54 -119.001l58 -147.5
c19.333 -47.667 44.333 -102.834 75 -165.501l-27 -12c-34 48 -65 89.833 -93 125.5z" />
    <glyph glyph-name="eacute" unicode="&#xe9;" horiz-adv-x="879" 
d="M601 111.5c-42.667 -41.667 -90.501 -75.5 -143.501 -101.5s-107.167 -39 -162.5 -39c-84.667 0 -150.834 24.833 -198.501 74.5s-71.5 121.167 -71.5 214.5c0 103.333 30.333 220.166 91 350.499s142.834 241.333 246.501 333s216.167 137.5 337.5 137.5
c44 0 80.333 -11.667 109 -35s43 -56.666 43 -99.999c0 -110.667 -61.667 -207 -185 -289s-265.666 -150.333 -426.999 -205c-15.333 -68 -23 -134 -23 -198c0 -131.333 47 -197 141 -197c116.667 0 222 68.333 316 205l33 -16c-28 -48 -63.333 -92.833 -106 -134.5z
M507.999 965.5c-54 -51 -104.501 -118.999 -151.501 -203.999s-82.833 -175.167 -107.5 -270.5c134.667 47.333 227.667 91.333 279 132c50.667 39.333 90 87.166 118 143.499s42 117.5 42 183.5c0 36.667 -2.66699 61.167 -8 73.5s-13.666 18.5 -24.999 18.5
c-44 0 -93 -25.5 -147 -76.5zM648.498 1365l105.499 141.5c42.667 58.333 77.334 100.833 104.001 127.5c26.667 30.667 54.667 46 84 46c16.667 0 31.667 -5 45 -15c10.667 -10.667 16 -24 16 -40c0 -27.333 -15.333 -56.333 -46 -87c-24 -25.333 -59.333 -55 -106 -89
l-134 -100.5c-42.667 -33 -91 -73.5 -145 -121.5l-21 18c37.333 44 69.833 84 97.5 120z" />
    <glyph glyph-name="ecircumflex" unicode="&#xea;" horiz-adv-x="879" 
d="M601 111.5c-42.667 -41.667 -90.501 -75.5 -143.501 -101.5s-107.167 -39 -162.5 -39c-84.667 0 -150.834 24.833 -198.501 74.5s-71.5 121.167 -71.5 214.5c0 103.333 30.333 220.166 91 350.499s142.834 241.333 246.501 333s216.167 137.5 337.5 137.5
c44 0 80.333 -11.667 109 -35s43 -56.666 43 -99.999c0 -110.667 -61.667 -207 -185 -289s-265.666 -150.333 -426.999 -205c-15.333 -68 -23 -134 -23 -198c0 -131.333 47 -197 141 -197c116.667 0 222 68.333 316 205l33 -16c-28 -48 -63.333 -92.833 -106 -134.5z
M507.999 965.5c-54 -51 -104.501 -118.999 -151.501 -203.999s-82.833 -175.167 -107.5 -270.5c134.667 47.333 227.667 91.333 279 132c50.667 39.333 90 87.166 118 143.499s42 117.5 42 183.5c0 36.667 -2.66699 61.167 -8 73.5s-13.666 18.5 -24.999 18.5
c-44 0 -93 -25.5 -147 -76.5zM805.998 1346c-51.333 34 -100.668 77 -148.001 129c-119.333 -94 -239 -165 -359 -213l-10 28c88.667 38 171.834 88.5 249.501 151.5s141.5 129.833 191.5 200.5h36c14.667 -85.333 40.667 -155.5 78 -210.5s92.666 -102.167 165.999 -141.5
l-8 -28c-79.333 22 -144.666 50 -195.999 84z" />
    <glyph glyph-name="edieresis" unicode="&#xeb;" horiz-adv-x="879" 
d="M601 111.5c-42.667 -41.667 -90.501 -75.5 -143.501 -101.5s-107.167 -39 -162.5 -39c-84.667 0 -150.834 24.833 -198.501 74.5s-71.5 121.167 -71.5 214.5c0 103.333 30.333 220.166 91 350.499s142.834 241.333 246.501 333s216.167 137.5 337.5 137.5
c44 0 80.333 -11.667 109 -35s43 -56.666 43 -99.999c0 -110.667 -61.667 -207 -185 -289s-265.666 -150.333 -426.999 -205c-15.333 -68 -23 -134 -23 -198c0 -131.333 47 -197 141 -197c116.667 0 222 68.333 316 205l33 -16c-28 -48 -63.333 -92.833 -106 -134.5z
M507.999 965.5c-54 -51 -104.501 -118.999 -151.501 -203.999s-82.833 -175.167 -107.5 -270.5c134.667 47.333 227.667 91.333 279 132c50.667 39.333 90 87.166 118 143.499s42 117.5 42 183.5c0 36.667 -2.66699 61.167 -8 73.5s-13.666 18.5 -24.999 18.5
c-44 0 -93 -25.5 -147 -76.5zM395.998 1451c12.667 20.667 29.666 37.665 50.999 50.998s44 20 68 20c28.667 0 52.834 -10 72.501 -30s29.5 -44.333 29.5 -73c0 -22 -6.33301 -43.5 -19 -64.5s-29.5 -38 -50.5 -51s-43.5 -19.5 -67.5 -19.5
c-30.667 0 -55.5 9.83301 -74.5 29.5s-28.5 44.834 -28.5 75.501c0 20.667 6.33301 41.334 19 62.001zM830.997 1451c12.667 20.667 29.499 37.666 50.499 50.999s43.5 20 67.5 20c28.667 0 52.834 -10 72.501 -30s29.5 -44.333 29.5 -73c0 -22 -6.33301 -43.5 -19 -64.5
s-29.5 -38 -50.5 -51s-43.5 -19.5 -67.5 -19.5c-30 0 -54.5 10 -73.5 30s-28.5 45 -28.5 75c0 20.667 6.33301 41.334 19 62.001z" />
    <glyph glyph-name="igrave" unicode="&#xec;" horiz-adv-x="618" 
d="M339 954c0 34.667 -14.666 52 -43.999 52c-31.333 0 -59.333 -16.5 -84 -49.5s-50.667 -86.167 -78 -159.5l-29 -76h-38l53 149c28 78 64.667 132.667 110 164s93.333 47 144 47c90.667 0 136 -42.667 136 -128c0 -40 -11.333 -92.667 -34 -158l-219 -621
c-10.667 -29.333 -16 -54.333 -16 -75c0 -34.667 16.333 -52 49 -52c28 0 54.333 15.5 79 46.5s51.667 85.167 81 162.5l28 76h39l-53 -150c-26.667 -74 -62.334 -127.667 -107.001 -161s-93 -50 -145 -50c-95.333 0 -143 41.667 -143 125c0 42 12 96 36 162l220 621
c10 30 15 55 15 75zM362.001 1352.5l-107.5 131.502c-43.667 52 -74.5 92.667 -92.5 122c-14 22.667 -21 44.334 -21 65.001c0 27.333 11 46.666 33 57.999c10 4 20.667 6 32 6c35.333 0 65 -21.333 89 -64c16.667 -28.667 34.667 -68.334 54 -119.001l58 -147.5
c19.333 -47.667 44.333 -102.834 75 -165.501l-27 -12c-34 48 -65 89.833 -93 125.5z" />
    <glyph glyph-name="iacute" unicode="&#xed;" horiz-adv-x="618" 
d="M339 954c0 34.667 -14.666 52 -43.999 52c-31.333 0 -59.333 -16.5 -84 -49.5s-50.667 -86.167 -78 -159.5l-29 -76h-38l53 149c28 78 64.667 132.667 110 164s93.333 47 144 47c90.667 0 136 -42.667 136 -128c0 -40 -11.333 -92.667 -34 -158l-219 -621
c-10.667 -29.333 -16 -54.333 -16 -75c0 -34.667 16.333 -52 49 -52c28 0 54.333 15.5 79 46.5s51.667 85.167 81 162.5l28 76h39l-53 -150c-26.667 -74 -62.334 -127.667 -107.001 -161s-93 -50 -145 -50c-95.333 0 -143 41.667 -143 125c0 42 12 96 36 162l220 621
c10 30 15 55 15 75zM431.501 1365l105.499 141.5c42.667 58.333 77.334 100.833 104.001 127.5c26.667 30.667 54.667 46 84 46c16.667 0 31.667 -5 45 -15c10.667 -10.667 16 -24 16 -40c0 -27.333 -15.333 -56.333 -46 -87c-24 -25.333 -59.333 -55 -106 -89l-134 -100.5
c-42.667 -33 -91 -73.5 -145 -121.5l-21 18c37.333 44 69.833 84 97.5 120z" />
    <glyph glyph-name="icircumflex" unicode="&#xee;" horiz-adv-x="618" 
d="M339 954c0 34.667 -14.666 52 -43.999 52c-31.333 0 -59.333 -16.5 -84 -49.5s-50.667 -86.167 -78 -159.5l-29 -76h-38l53 149c28 78 64.667 132.667 110 164s93.333 47 144 47c90.667 0 136 -42.667 136 -128c0 -40 -11.333 -92.667 -34 -158l-219 -621
c-10.667 -29.333 -16 -54.333 -16 -75c0 -34.667 16.333 -52 49 -52c28 0 54.333 15.5 79 46.5s51.667 85.167 81 162.5l28 76h39l-53 -150c-26.667 -74 -62.334 -127.667 -107.001 -161s-93 -50 -145 -50c-95.333 0 -143 41.667 -143 125c0 42 12 96 36 162l220 621
c10 30 15 55 15 75zM589.001 1346c-51.333 34 -100.668 77 -148.001 129c-119.333 -94 -239 -165 -359 -213l-10 28c88.667 38 171.834 88.5 249.501 151.5s141.5 129.833 191.5 200.5h36c14.667 -85.333 40.667 -155.5 78 -210.5s92.666 -102.167 165.999 -141.5l-8 -28
c-79.333 22 -144.666 50 -195.999 84z" />
    <glyph glyph-name="idieresis" unicode="&#xef;" horiz-adv-x="618" 
d="M339 954c0 34.667 -14.666 52 -43.999 52c-31.333 0 -59.333 -16.5 -84 -49.5s-50.667 -86.167 -78 -159.5l-29 -76h-38l53 149c28 78 64.667 132.667 110 164s93.333 47 144 47c90.667 0 136 -42.667 136 -128c0 -40 -11.333 -92.667 -34 -158l-219 -621
c-10.667 -29.333 -16 -54.333 -16 -75c0 -34.667 16.333 -52 49 -52c28 0 54.333 15.5 79 46.5s51.667 85.167 81 162.5l28 76h39l-53 -150c-26.667 -74 -62.334 -127.667 -107.001 -161s-93 -50 -145 -50c-95.333 0 -143 41.667 -143 125c0 42 12 96 36 162l220 621
c10 30 15 55 15 75zM179.001 1451c12.667 20.667 29.666 37.665 50.999 50.998s44 20 68 20c28.667 0 52.834 -10 72.501 -30s29.5 -44.333 29.5 -73c0 -22 -6.33301 -43.5 -19 -64.5s-29.5 -38 -50.5 -51s-43.5 -19.5 -67.5 -19.5c-30.667 0 -55.5 9.83301 -74.5 29.5
s-28.5 44.834 -28.5 75.501c0 20.667 6.33301 41.334 19 62.001zM614 1451c12.667 20.667 29.499 37.666 50.499 50.999s43.5 20 67.5 20c28.667 0 52.834 -10 72.501 -30s29.5 -44.333 29.5 -73c0 -22 -6.33301 -43.5 -19 -64.5s-29.5 -38 -50.5 -51
s-43.5 -19.5 -67.5 -19.5c-30 0 -54.5 10 -73.5 30s-28.5 45 -28.5 75c0 20.667 6.33301 41.334 19 62.001z" />
    <glyph glyph-name="eth" unicode="&#xf0;" horiz-adv-x="997" 
d="M915 807c0 -122.667 -23.665 -249.001 -70.998 -379.001s-115.833 -238.667 -205.5 -326s-194.5 -131 -314.5 -131c-87.333 0 -156 27.167 -206 81.5s-75 134.5 -75 240.5c0 106.667 23.5 222 70.5 346s114.167 228.667 201.5 314s187.666 128 300.999 128
c42 0 78 -10.333 108 -31c-18.667 111.333 -56.334 207.666 -113.001 288.999l-378 -168l-12 37l367 162c-60.667 76.667 -144 142.334 -250 197.001l24 35c126.667 -47.333 232 -110.666 316 -189.999l328 144l12 -36l-311 -137c138.667 -146 208 -338 208 -576z
M534.002 144.999c62 88.667 111.667 199.5 149 332.5s56 261.167 56 384.5c0 52 -3 101.333 -9 148c-26 20 -64 30 -114 30c-68 0 -132.5 -44.5 -193.5 -133.5s-110.167 -200.167 -147.5 -333.5s-56 -261 -56 -383c0 -118.667 39 -178 117 -178c70 0 136 44.333 198 133z
" />
    <glyph glyph-name="ntilde" unicode="&#xf1;" horiz-adv-x="1188" 
d="M1034 182c-48 -140.667 -130.668 -211.003 -248.001 -211.003c-61.333 0 -104.333 20 -129 60c-10.667 17.333 -16 39.666 -16 66.999c0 38.667 11.667 92 35 160l194 586c14 40.667 21 74.334 21 101.001c0 47.333 -22 71 -66 71c-52.667 0 -112 -38.167 -178 -114.5
s-130.833 -181.166 -194.5 -314.499s-119.167 -281.333 -166.5 -444l-36 -143h-178l245 879c10 32.667 15 58.334 15 77.001c0 33.333 -15 50 -45 50c-20.667 0 -39.167 -6.5 -55.5 -19.5s-32.666 -34.5 -48.999 -64.5s-34.166 -71.667 -53.499 -125l-27 -76h-39l52 149
c48 140.667 129 211 243 211c80.667 0 121 -40.333 121 -121c0 -36.667 -9.33301 -91.667 -28 -165l-71 -280c58.667 138.667 115.167 249.334 169.5 332.001s109.166 142.334 164.499 179.001s115 55 179 55c110 0 165 -51.333 165 -154
c0 -40.667 -10 -92.334 -30 -155.001l-199 -598c-10.667 -32 -16 -57.667 -16 -77c0 -33.333 16.333 -50 49 -50c28 0 54.667 15.5 80 46.5s51.333 85.167 78 162.5l27 76h38zM507.499 1521c47.667 34.667 97.835 52 150.502 52c39.333 0 71.666 -7 96.999 -21
s58 -39 98 -75s79.333 -54 118 -54c52 0 99.667 39.667 143 119l37 -10c-30 -71.333 -68.833 -124.333 -116.5 -159s-97.5 -52 -149.5 -52c-39.333 0 -71.833 7 -97.5 21s-58.5 38.833 -98.5 74.5s-79.333 53.5 -118 53.5c-52.667 0 -100.334 -39.333 -143.001 -118l-37 10
c30 71.333 68.833 124.333 116.5 159z" />
    <glyph glyph-name="ograve" unicode="&#xf2;" horiz-adv-x="999" 
d="M114.5 639.5c47.667 123.667 116.501 228.168 206.501 313.501s194.667 128 314 128c87.333 0 155.833 -27 205.5 -81s74.5 -134 74.5 -240c0 -107.333 -23.833 -222.833 -71.5 -346.5s-116.334 -228.334 -206.001 -314.001s-194.167 -128.5 -313.5 -128.5
c-87.333 0 -156 27.167 -206 81.5s-75 134.5 -75 240.5c0 107.333 23.833 222.833 71.5 346.5zM424.501 907.001c-62.333 -88.667 -112.167 -199.667 -149.5 -333s-56 -261.333 -56 -384c0 -118.667 39 -178 117 -178c70 0 136 44.333 198 133s111.667 199.5 149 332.5
s56 261.167 56 384.5c0 61.333 -9.5 106.333 -28.5 135s-48.167 43 -87.5 43c-70 0 -136.167 -44.333 -198.5 -133zM620 1352.5l-107.5 131.502c-43.667 52 -74.5 92.667 -92.5 122c-14 22.667 -21 44.334 -21 65.001c0 27.333 11 46.666 33 57.999c10 4 20.667 6 32 6
c35.333 0 65 -21.333 89 -64c16.667 -28.667 34.667 -68.334 54 -119.001l58 -147.5c19.333 -47.667 44.333 -102.834 75 -165.501l-27 -12c-34 48 -65 89.833 -93 125.5z" />
    <glyph glyph-name="oacute" unicode="&#xf3;" horiz-adv-x="999" 
d="M114.5 639.5c47.667 123.667 116.501 228.168 206.501 313.501s194.667 128 314 128c87.333 0 155.833 -27 205.5 -81s74.5 -134 74.5 -240c0 -107.333 -23.833 -222.833 -71.5 -346.5s-116.334 -228.334 -206.001 -314.001s-194.167 -128.5 -313.5 -128.5
c-87.333 0 -156 27.167 -206 81.5s-75 134.5 -75 240.5c0 107.333 23.833 222.833 71.5 346.5zM424.501 907.001c-62.333 -88.667 -112.167 -199.667 -149.5 -333s-56 -261.333 -56 -384c0 -118.667 39 -178 117 -178c70 0 136 44.333 198 133s111.667 199.5 149 332.5
s56 261.167 56 384.5c0 61.333 -9.5 106.333 -28.5 135s-48.167 43 -87.5 43c-70 0 -136.167 -44.333 -198.5 -133zM689.5 1365l105.499 141.5c42.667 58.333 77.334 100.833 104.001 127.5c26.667 30.667 54.667 46 84 46c16.667 0 31.667 -5 45 -15
c10.667 -10.667 16 -24 16 -40c0 -27.333 -15.333 -56.333 -46 -87c-24 -25.333 -59.333 -55 -106 -89l-134 -100.5c-42.667 -33 -91 -73.5 -145 -121.5l-21 18c37.333 44 69.833 84 97.5 120z" />
    <glyph glyph-name="ocircumflex" unicode="&#xf4;" horiz-adv-x="999" 
d="M114.5 639.5c47.667 123.667 116.501 228.168 206.501 313.501s194.667 128 314 128c87.333 0 155.833 -27 205.5 -81s74.5 -134 74.5 -240c0 -107.333 -23.833 -222.833 -71.5 -346.5s-116.334 -228.334 -206.001 -314.001s-194.167 -128.5 -313.5 -128.5
c-87.333 0 -156 27.167 -206 81.5s-75 134.5 -75 240.5c0 107.333 23.833 222.833 71.5 346.5zM424.501 907.001c-62.333 -88.667 -112.167 -199.667 -149.5 -333s-56 -261.333 -56 -384c0 -118.667 39 -178 117 -178c70 0 136 44.333 198 133s111.667 199.5 149 332.5
s56 261.167 56 384.5c0 61.333 -9.5 106.333 -28.5 135s-48.167 43 -87.5 43c-70 0 -136.167 -44.333 -198.5 -133zM847 1346c-51.333 34 -100.668 77 -148.001 129c-119.333 -94 -239 -165 -359 -213l-10 28c88.667 38 171.834 88.5 249.501 151.5
s141.5 129.833 191.5 200.5h36c14.667 -85.333 40.667 -155.5 78 -210.5s92.666 -102.167 165.999 -141.5l-8 -28c-79.333 22 -144.666 50 -195.999 84z" />
    <glyph glyph-name="otilde" unicode="&#xf5;" horiz-adv-x="999" 
d="M114.5 639.5c47.667 123.667 116.501 228.168 206.501 313.501s194.667 128 314 128c87.333 0 155.833 -27 205.5 -81s74.5 -134 74.5 -240c0 -107.333 -23.833 -222.833 -71.5 -346.5s-116.334 -228.334 -206.001 -314.001s-194.167 -128.5 -313.5 -128.5
c-87.333 0 -156 27.167 -206 81.5s-75 134.5 -75 240.5c0 107.333 23.833 222.833 71.5 346.5zM424.501 907.001c-62.333 -88.667 -112.167 -199.667 -149.5 -333s-56 -261.333 -56 -384c0 -118.667 39 -178 117 -178c70 0 136 44.333 198 133s111.667 199.5 149 332.5
s56 261.167 56 384.5c0 61.333 -9.5 106.333 -28.5 135s-48.167 43 -87.5 43c-70 0 -136.167 -44.333 -198.5 -133zM472.5 1521c47.667 34.667 97.835 52 150.502 52c39.333 0 71.666 -7 96.999 -21s58 -39 98 -75s79.333 -54 118 -54c52 0 99.667 39.667 143 119l37 -10
c-30 -71.333 -68.833 -124.333 -116.5 -159s-97.5 -52 -149.5 -52c-39.333 0 -71.833 7 -97.5 21s-58.5 38.833 -98.5 74.5s-79.333 53.5 -118 53.5c-52.667 0 -100.334 -39.333 -143.001 -118l-37 10c30 71.333 68.833 124.333 116.5 159z" />
    <glyph glyph-name="odieresis" unicode="&#xf6;" horiz-adv-x="999" 
d="M114.5 639.5c47.667 123.667 116.501 228.168 206.501 313.501s194.667 128 314 128c87.333 0 155.833 -27 205.5 -81s74.5 -134 74.5 -240c0 -107.333 -23.833 -222.833 -71.5 -346.5s-116.334 -228.334 -206.001 -314.001s-194.167 -128.5 -313.5 -128.5
c-87.333 0 -156 27.167 -206 81.5s-75 134.5 -75 240.5c0 107.333 23.833 222.833 71.5 346.5zM424.501 907.001c-62.333 -88.667 -112.167 -199.667 -149.5 -333s-56 -261.333 -56 -384c0 -118.667 39 -178 117 -178c70 0 136 44.333 198 133s111.667 199.5 149 332.5
s56 261.167 56 384.5c0 61.333 -9.5 106.333 -28.5 135s-48.167 43 -87.5 43c-70 0 -136.167 -44.333 -198.5 -133zM437 1451c12.667 20.667 29.666 37.665 50.999 50.998s44 20 68 20c28.667 0 52.834 -10 72.501 -30s29.5 -44.333 29.5 -73
c0 -22 -6.33301 -43.5 -19 -64.5s-29.5 -38 -50.5 -51s-43.5 -19.5 -67.5 -19.5c-30.667 0 -55.5 9.83301 -74.5 29.5s-28.5 44.834 -28.5 75.501c0 20.667 6.33301 41.334 19 62.001zM871.999 1451c12.667 20.667 29.499 37.666 50.499 50.999s43.5 20 67.5 20
c28.667 0 52.834 -10 72.501 -30s29.5 -44.333 29.5 -73c0 -22 -6.33301 -43.5 -19 -64.5s-29.5 -38 -50.5 -51s-43.5 -19.5 -67.5 -19.5c-30 0 -54.5 10 -73.5 30s-28.5 45 -28.5 75c0 20.667 6.33301 41.334 19 62.001z" />
    <glyph glyph-name="divide" unicode="&#xf7;" horiz-adv-x="1346" 
d="M740.5 1101.5c28.333 22.333 57.835 33.5 88.502 33.5c26 0 47 -7.66699 63 -23s24 -35 24 -59c0 -8.66699 -1.66699 -19 -5 -31c-8.66699 -32 -27.334 -58.833 -56.001 -80.5s-59 -32.5 -91 -32.5c-25.333 0 -45.833 7.5 -61.5 22.5s-23.5 34.5 -23.5 58.5
c0 9.33301 1.66699 20 5 32c9.33301 30.667 28.166 57.167 56.499 79.5zM1223 758l-19 -62h-1026l19 62h1026zM570.002 511.5c28.667 22.333 58.332 33.5 88.999 33.5c26 0 47 -7.5 63 -22.5s24 -34.5 24 -58.5c0 -9.33301 -1.66699 -20 -5 -32
c-9.33301 -31.333 -28.333 -58.333 -57 -81s-58.667 -34 -90 -34c-25.333 0 -45.833 7.83301 -61.5 23.5s-23.5 35.5 -23.5 59.5c0 9.33301 1.66699 20 5 32c8.66699 30.667 27.334 57.167 56.001 79.5z" />
    <glyph glyph-name="oslash" unicode="&#xf8;" horiz-adv-x="999" 
d="M915 760c0 -107.333 -23.832 -222.832 -71.499 -346.499s-116.334 -228.334 -206.001 -314.001s-194.167 -128.5 -313.5 -128.5c-86.667 0 -154.667 26.333 -204 79l-165 -200l-29 27l169 205c-34.667 54 -52 124.333 -52 211c0 107.333 23.833 222.833 71.5 346.5
s116.5 228.167 206.5 313.5s194.667 128 314 128c92.667 0 163 -29.333 211 -88l172 207l26 -24l-175 -215c30.667 -52 46 -119 46 -201zM706.501 1002.5c-19 25 -46.832 37.5 -83.499 37.5c-68.667 0 -133.667 -42.833 -195 -128.5s-110.833 -193.167 -148.5 -322.5
s-57.834 -255 -60.501 -377l520 672c-2.66699 54 -13.5 93.5 -32.5 118.5zM336.002 12.001c68 0 132 41.333 192 124s109 187 147 313s59 250 63 372l-517 -674c8 -90 46.333 -135 115 -135z" />
    <glyph glyph-name="ugrave" unicode="&#xf9;" horiz-adv-x="1161" 
d="M1061 332l-51.002 -149.999c-49.333 -140.667 -132 -211 -248 -211c-22.667 0 -43.5 4.83301 -62.5 14.5s-33.167 23.5 -42.5 41.5c-8 16.667 -12 37.667 -12 63c0 36 9.66699 92 29 168l65 257c-54.667 -132 -107.5 -237.833 -158.5 -317.5
s-102.333 -137.334 -154 -173.001s-107.167 -53.5 -166.5 -53.5c-115.333 0 -173 52.667 -173 158c0 42.667 10 93.334 30 152.001l198 598c10.667 33.333 16 59 16 77c0 33.333 -16 50 -48 50c-28 0 -54.667 -15.5 -80 -46.5s-51.333 -85.167 -78 -162.5l-27 -76h-39
l52 149c48 140.667 130.333 211 247 211c96 0 144 -42.333 144 -127c0 -37.333 -11 -90.333 -33 -159l-195 -586c-13.333 -40 -20 -74 -20 -102c0 -46.667 21.667 -70 65 -70c52 0 109.833 38 173.5 114s126.334 182 188.001 318s115.834 290 162.501 462l31 122
c78 2 140.333 11.333 187 28l-254 -907c-10 -34.667 -15 -61.334 -15 -80.001c0 -31.333 14.667 -47 44 -47c30 0 57.5 16.167 82.5 48.5s50.5 85.833 76.5 160.5l27 76h39zM598.998 1352.5l-107.5 131.502c-43.667 52 -74.5 92.667 -92.5 122
c-14 22.667 -21 44.334 -21 65.001c0 27.333 11 46.666 33 57.999c10 4 20.667 6 32 6c35.333 0 65 -21.333 89 -64c16.667 -28.667 34.667 -68.334 54 -119.001l58 -147.5c19.333 -47.667 44.333 -102.834 75 -165.501l-27 -12c-34 48 -65 89.833 -93 125.5z" />
    <glyph glyph-name="uacute" unicode="&#xfa;" horiz-adv-x="1161" 
d="M1061 332l-51.002 -149.999c-49.333 -140.667 -132 -211 -248 -211c-22.667 0 -43.5 4.83301 -62.5 14.5s-33.167 23.5 -42.5 41.5c-8 16.667 -12 37.667 -12 63c0 36 9.66699 92 29 168l65 257c-54.667 -132 -107.5 -237.833 -158.5 -317.5
s-102.333 -137.334 -154 -173.001s-107.167 -53.5 -166.5 -53.5c-115.333 0 -173 52.667 -173 158c0 42.667 10 93.334 30 152.001l198 598c10.667 33.333 16 59 16 77c0 33.333 -16 50 -48 50c-28 0 -54.667 -15.5 -80 -46.5s-51.333 -85.167 -78 -162.5l-27 -76h-39
l52 149c48 140.667 130.333 211 247 211c96 0 144 -42.333 144 -127c0 -37.333 -11 -90.333 -33 -159l-195 -586c-13.333 -40 -20 -74 -20 -102c0 -46.667 21.667 -70 65 -70c52 0 109.833 38 173.5 114s126.334 182 188.001 318s115.834 290 162.501 462l31 122
c78 2 140.333 11.333 187 28l-254 -907c-10 -34.667 -15 -61.334 -15 -80.001c0 -31.333 14.667 -47 44 -47c30 0 57.5 16.167 82.5 48.5s50.5 85.833 76.5 160.5l27 76h39zM668.498 1365l105.499 141.5c42.667 58.333 77.334 100.833 104.001 127.5
c26.667 30.667 54.667 46 84 46c16.667 0 31.667 -5 45 -15c10.667 -10.667 16 -24 16 -40c0 -27.333 -15.333 -56.333 -46 -87c-24 -25.333 -59.333 -55 -106 -89l-134 -100.5c-42.667 -33 -91 -73.5 -145 -121.5l-21 18c37.333 44 69.833 84 97.5 120z" />
    <glyph glyph-name="ucircumflex" unicode="&#xfb;" horiz-adv-x="1161" 
d="M1061 332l-51.002 -149.999c-49.333 -140.667 -132 -211 -248 -211c-22.667 0 -43.5 4.83301 -62.5 14.5s-33.167 23.5 -42.5 41.5c-8 16.667 -12 37.667 -12 63c0 36 9.66699 92 29 168l65 257c-54.667 -132 -107.5 -237.833 -158.5 -317.5
s-102.333 -137.334 -154 -173.001s-107.167 -53.5 -166.5 -53.5c-115.333 0 -173 52.667 -173 158c0 42.667 10 93.334 30 152.001l198 598c10.667 33.333 16 59 16 77c0 33.333 -16 50 -48 50c-28 0 -54.667 -15.5 -80 -46.5s-51.333 -85.167 -78 -162.5l-27 -76h-39
l52 149c48 140.667 130.333 211 247 211c96 0 144 -42.333 144 -127c0 -37.333 -11 -90.333 -33 -159l-195 -586c-13.333 -40 -20 -74 -20 -102c0 -46.667 21.667 -70 65 -70c52 0 109.833 38 173.5 114s126.334 182 188.001 318s115.834 290 162.501 462l31 122
c78 2 140.333 11.333 187 28l-254 -907c-10 -34.667 -15 -61.334 -15 -80.001c0 -31.333 14.667 -47 44 -47c30 0 57.5 16.167 82.5 48.5s50.5 85.833 76.5 160.5l27 76h39zM825.998 1346c-51.333 34 -100.668 77 -148.001 129c-119.333 -94 -239 -165 -359 -213l-10 28
c88.667 38 171.834 88.5 249.501 151.5s141.5 129.833 191.5 200.5h36c14.667 -85.333 40.667 -155.5 78 -210.5s92.666 -102.167 165.999 -141.5l-8 -28c-79.333 22 -144.666 50 -195.999 84z" />
    <glyph glyph-name="udieresis" unicode="&#xfc;" horiz-adv-x="1161" 
d="M1061 332l-51.002 -149.999c-49.333 -140.667 -132 -211 -248 -211c-22.667 0 -43.5 4.83301 -62.5 14.5s-33.167 23.5 -42.5 41.5c-8 16.667 -12 37.667 -12 63c0 36 9.66699 92 29 168l65 257c-54.667 -132 -107.5 -237.833 -158.5 -317.5
s-102.333 -137.334 -154 -173.001s-107.167 -53.5 -166.5 -53.5c-115.333 0 -173 52.667 -173 158c0 42.667 10 93.334 30 152.001l198 598c10.667 33.333 16 59 16 77c0 33.333 -16 50 -48 50c-28 0 -54.667 -15.5 -80 -46.5s-51.333 -85.167 -78 -162.5l-27 -76h-39
l52 149c48 140.667 130.333 211 247 211c96 0 144 -42.333 144 -127c0 -37.333 -11 -90.333 -33 -159l-195 -586c-13.333 -40 -20 -74 -20 -102c0 -46.667 21.667 -70 65 -70c52 0 109.833 38 173.5 114s126.334 182 188.001 318s115.834 290 162.501 462l31 122
c78 2 140.333 11.333 187 28l-254 -907c-10 -34.667 -15 -61.334 -15 -80.001c0 -31.333 14.667 -47 44 -47c30 0 57.5 16.167 82.5 48.5s50.5 85.833 76.5 160.5l27 76h39zM415.998 1451c12.667 20.667 29.666 37.665 50.999 50.998s44 20 68 20
c28.667 0 52.834 -10 72.501 -30s29.5 -44.333 29.5 -73c0 -22 -6.33301 -43.5 -19 -64.5s-29.5 -38 -50.5 -51s-43.5 -19.5 -67.5 -19.5c-30.667 0 -55.5 9.83301 -74.5 29.5s-28.5 44.834 -28.5 75.501c0 20.667 6.33301 41.334 19 62.001zM850.997 1451
c12.667 20.667 29.499 37.666 50.499 50.999s43.5 20 67.5 20c28.667 0 52.834 -10 72.501 -30s29.5 -44.333 29.5 -73c0 -22 -6.33301 -43.5 -19 -64.5s-29.5 -38 -50.5 -51s-43.5 -19.5 -67.5 -19.5c-30 0 -54.5 10 -73.5 30s-28.5 45 -28.5 75
c0 20.667 6.33301 41.334 19 62.001z" />
    <glyph glyph-name="yacute" unicode="&#xfd;" horiz-adv-x="985" 
d="M768 449c54.667 114.667 92.999 227.659 114.999 338.992c-42 22 -78.5 49 -109.5 81s-46.5 68 -46.5 108c0 32.667 9.66699 58.167 29 76.5s44.333 27.5 75 27.5c71.333 0 107 -55.333 107 -166c0 -87.333 -19.333 -185.666 -58 -294.999
s-88.834 -217.666 -150.501 -324.999s-126.5 -203.666 -194.5 -288.999c-128 -159.333 -262.667 -272.666 -404 -339.999c-71.333 -34 -130.666 -51 -177.999 -51c-29.333 0 -53.833 7.33301 -73.5 22s-29.5 35.334 -29.5 62.001c0 28 11 50.333 33 67s48 25 78 25
c28.667 0 56.334 -7 83.001 -21s55.667 -33.667 87 -59c107.333 56.667 209.666 138.334 306.999 245.001l-151 918c-7.33301 42 -15.833 71.333 -25.5 88s-23.167 25 -40.5 25s-35.333 -13.333 -54 -40s-41 -76 -67 -148l-26 -76h-39l51 149
c48 139.333 126.667 209 236 209c28.667 0 52.667 -5.66699 72 -17s35 -30.666 47 -57.999s21.333 -65 28 -113l105 -770c74.667 102.667 139.334 211.334 194.001 326.001zM603.499 1364.99l105.499 141.5c42.667 58.333 77.334 100.833 104.001 127.5
c26.667 30.667 54.667 46 84 46c16.667 0 31.667 -5 45 -15c10.667 -10.667 16 -24 16 -40c0 -27.333 -15.333 -56.333 -46 -87c-24 -25.333 -59.333 -55 -106 -89l-134 -100.5c-42.667 -33 -91 -73.5 -145 -121.5l-21 18c37.333 44 69.833 84 97.5 120z" />
    <glyph glyph-name="thorn" unicode="&#xfe;" horiz-adv-x="1128" 
d="M645.5 998.5c59.667 55 123.833 82.498 192.5 82.498c66 0 118 -24.333 156 -73s57 -120.334 57 -215.001c0 -110.667 -24.5 -230.5 -73.5 -359.5s-119.167 -238.333 -210.5 -328s-196.666 -134.5 -315.999 -134.5c-37.333 0 -71 10.333 -101 31s-52 49.667 -66 87
l-77 -269c-5.33301 -19.333 -8 -35.666 -8 -48.999c0 -36 15 -61.5 45 -76.5s73 -22.5 129 -22.5l-13 -43c-16 0.666992 -51.833 2.33398 -107.5 5.00098s-111.167 4 -166.5 4c-44 0 -90 -1.33301 -138 -4l-89 -5l12 43c33.333 0 59.833 3.83301 79.5 11.5
s35.667 20.667 48 39s23.166 43.833 32.499 76.5l386 1366c-41.333 -90.667 -90 -171.167 -146 -241.5s-123.667 -143.166 -203 -218.499l-23 26c65.333 64 119.333 120.167 162 168.5s85.667 107.833 129 178.5s86.333 157 129 259l74 262
c75.333 3.33301 137.333 13 186 29l-259 -903c60 127.333 119.833 218.5 179.5 273.5zM360.999 45.998c24 -18.667 53.334 -27.999 88.001 -27.999c72.667 0 141.667 45.333 207 136s118 201 158 331s60 247.667 60 353c0 58.667 -8.33301 103 -25 133
s-40.334 45 -71.001 45c-35.333 0 -76.333 -23.167 -123 -69.5s-92.5 -108.833 -137.5 -187.5s-83.167 -163.667 -114.5 -255l-104 -363c17.333 -44.667 38 -76.334 62 -95.001z" />
    </font>
</defs>
</svg>
